<svg width="131" height="131" viewBox="0 0 131 131" fill="none" xmlns="http://www.w3.org/2000/svg">
<path d="M81.8999 46.0598L83.6299 56.1598C83.7966 57.1198 83.4699 57.3331 82.6499 56.7998L74.0299 51.1998C73.7704 51.0339 73.478 50.9272 73.1738 50.8874C72.8695 50.8476 72.5608 50.8758 72.2699 50.9698C65.8965 53.0231 59.6899 53.0365 53.6499 51.0098C52.9099 50.7631 52.1999 50.8665 51.5199 51.3198C48.5199 53.3331 45.5599 55.2865 42.6399 57.1798C42.5725 57.2248 42.4934 57.2488 42.4124 57.2488C42.3314 57.2489 42.2522 57.2249 42.1848 57.18C42.1174 57.1351 42.0648 57.0712 42.0337 56.9964C42.0025 56.9216 41.9943 56.8393 42.0099 56.7598L43.8799 45.9998C43.914 45.798 43.901 45.591 43.8421 45.395C43.7831 45.199 43.6797 45.0193 43.5399 44.8698C37.6899 38.6198 35.3599 31.0298 37.6599 22.8598C39.7599 15.3498 46.5499 9.0298 53.9899 6.7598C62.8166 4.06647 70.9666 5.15647 78.4399 10.0298C89.3999 17.1898 92.3799 31.4498 84.5599 42.0198C83.8332 42.9998 83.0766 43.9098 82.2899 44.7498C81.9432 45.1231 81.8132 45.5598 81.8999 46.0598ZM61.3699 32.6998C61.3403 32.7333 61.3045 32.7606 61.2644 32.7803C61.2243 32.7999 61.1807 32.8115 61.1361 32.8142C61.0915 32.817 61.0468 32.811 61.0046 32.7965C60.9623 32.782 60.9234 32.7594 60.8899 32.7298L53.6799 26.2798C53.6135 26.2189 53.5257 26.1868 53.4357 26.1905C53.3458 26.1943 53.2609 26.2336 53.1999 26.2998L50.1599 29.6998C50.099 29.7661 50.0668 29.8539 50.0706 29.9439C50.0743 30.0339 50.1137 30.1188 50.1799 30.1798L61.1899 40.1098C61.2234 40.1394 61.2623 40.162 61.3046 40.1765C61.3468 40.191 61.3915 40.197 61.4361 40.1942C61.4807 40.1915 61.5243 40.1799 61.5644 40.1603C61.6045 40.1406 61.6403 40.1133 61.6699 40.0798L76.9699 23.6298C77.001 23.5961 77.025 23.5565 77.0404 23.5133C77.0557 23.4701 77.0622 23.4242 77.0594 23.3784C77.0566 23.3326 77.0446 23.2879 77.024 23.2469C77.0035 23.2059 76.9749 23.1695 76.9399 23.1398L73.3599 20.1398C73.2928 20.0832 73.2065 20.0547 73.1189 20.0603C73.0312 20.0658 72.9492 20.1051 72.8899 20.1698L61.3699 32.6998Z" fill="#C5942E"/>
<path d="M39.4902 119.95L39.6202 127.45C39.6269 128.01 39.3535 128.293 38.8002 128.3L13.7502 128.37C13.3168 128.37 13.1068 128.153 13.1202 127.72C13.2902 120.88 13.1902 114.46 10.1302 108.17C6.54018 100.77 4.56018 94.0197 5.47018 85.7097C7.16018 70.3697 16.6502 61.0397 32.7002 63.2897C39.5602 64.2497 45.0669 67.8397 49.2202 74.0597C50.9402 76.6297 48.5002 78.7497 47.3602 80.7697C47.1735 81.0964 47.1669 81.4264 47.3402 81.7597C48.5535 84.0397 49.3635 86.4631 49.7702 89.0297C50.3802 92.8697 53.0402 96.3497 54.9302 99.7097C56.8002 103.04 52.5502 103.84 50.4802 104.92C50.1335 105.106 49.9635 105.396 49.9702 105.79C50.0402 113.39 50.3402 119.71 40.2602 119.21C39.7335 119.183 39.4769 119.43 39.4902 119.95Z" fill="#C5942E"/>
<path d="M76.9498 98.5597C76.8958 98.6398 76.8627 98.732 76.8534 98.8282C76.8441 98.9244 76.8588 99.0217 76.8963 99.1116C76.9339 99.2014 76.993 99.281 77.0686 99.3435C77.1442 99.4059 77.2339 99.4492 77.3298 99.4697C78.7565 99.763 79.9165 100.386 80.8098 101.34C81.0232 101.566 81.1398 101.833 81.1598 102.14C81.3098 104.24 80.9598 106.55 81.7598 108.51C83.5898 112.96 87.7198 112.72 91.7698 112.72C92.4285 112.72 93.0603 112.981 93.527 113.445C93.9937 113.91 94.2572 114.541 94.2598 115.2L94.3398 127.99C94.3398 128.21 94.2332 128.32 94.0198 128.32L89.4898 128.35C89.2432 128.35 89.1198 128.23 89.1198 127.99L89.1598 118.42C89.1598 118.34 89.144 118.261 89.1132 118.188C89.0824 118.114 89.0374 118.048 88.9806 117.992C88.9238 117.936 88.8565 117.892 88.7825 117.862C88.7086 117.833 88.6295 117.818 88.5498 117.82C81.3898 118.01 75.6898 112.71 76.0398 105.43C76.0597 105.065 75.9381 104.706 75.7001 104.427C75.462 104.148 75.1256 103.97 74.7598 103.93C73.6265 103.81 72.5798 103.456 71.6198 102.87C70.0865 101.936 69.7532 100.726 70.6198 99.2397C72.1065 96.693 73.5298 94.2563 74.8898 91.9297C75.6765 90.5897 76.1065 89.1797 76.1798 87.6997C76.3332 84.7463 76.9698 81.833 78.0898 78.9597C78.2632 78.5197 78.2365 78.0897 78.0098 77.6697C76.9398 75.6997 77.2098 73.8697 78.7398 72.1597C85.9198 64.113 95.1532 61.2997 106.44 63.7197C119.24 66.4697 125.7 78.9297 125.73 91.4897C125.743 99.223 125.767 106.773 125.8 114.14C125.82 117.16 126.41 120.226 127.57 123.34C128.56 125.99 126.83 128.09 124.2 128.27C117.233 128.736 111.523 127.356 107.07 124.13C100.35 119.256 96.9565 112.61 96.8898 104.19C96.8498 98.9763 96.8598 94.063 96.9198 89.4497C96.9265 89.0097 96.7132 88.743 96.2798 88.6497C92.3932 87.8097 88.5998 86.073 84.8998 83.4397C84.5398 83.1797 84.2332 82.8663 83.9798 82.4997C83.2198 81.393 82.6532 81.483 82.2798 82.7697C81.6532 84.9163 81.3232 87.0563 81.2898 89.1897C81.2298 92.4997 78.6998 95.8297 76.9498 98.5597Z" fill="#C5942E"/>
</svg>
