<svg width="160" height="29" viewBox="0 0 160 29" fill="none" xmlns="http://www.w3.org/2000/svg">
<g clip-path="url(#clip0_1122_7474)">
<path d="M154.297 28.062C154.317 21.1054 154.327 14.147 154.327 7.18704C154.327 5.91371 154.198 4.87204 153.942 4.06204C152.997 1.06204 150.307 0.872044 147.652 0.877044C102.808 0.883711 58.0168 0.885378 13.2768 0.882044C9.57009 0.882044 7.71176 2.65038 7.70176 6.18704C7.68509 13.4804 7.67676 20.772 7.67676 28.062" stroke="#0B0B0C" stroke-width="2"/>
<path d="M15.4921 10.157L15.4621 8.14198C15.4621 8.03198 15.4088 7.97364 15.3021 7.96698L15.0871 7.95198C14.9971 7.94531 14.9521 7.98698 14.9521 8.07698L14.9571 10.277C14.9575 10.4248 14.9926 10.5705 15.0596 10.7023C15.1265 10.8342 15.2235 10.9484 15.3426 11.036C15.4618 11.1235 15.5998 11.1819 15.7456 11.2064C15.8914 11.2308 16.0409 11.2208 16.1821 11.177C16.5555 11.0636 16.9221 11.0586 17.2821 11.162C17.4588 11.212 17.5521 11.1453 17.5621 10.962C17.6121 9.89864 17.6005 8.94364 17.5271 8.09698C17.5171 7.97031 17.4505 7.92198 17.3271 7.95198L17.1871 7.98698C17.1622 7.99416 17.1401 8.00861 17.124 8.02832C17.1079 8.04804 17.0985 8.07204 17.0971 8.09698L17.0321 10.142C17.0255 10.3653 16.9221 10.522 16.7221 10.612C16.4755 10.722 16.2088 10.7453 15.9221 10.682C15.8014 10.655 15.6934 10.5885 15.6153 10.4933C15.5373 10.398 15.4939 10.2795 15.4921 10.157Z" stroke="#848385" stroke-width="2"/>
<path d="M19.2118 8.40716C19.6484 8.34716 20.0251 8.47382 20.3418 8.78716C20.5084 8.95049 20.5884 8.91549 20.5818 8.68216C20.5784 8.36882 20.4301 8.15382 20.1368 8.03716C19.5934 7.81716 19.1084 7.87549 18.6818 8.21216C18.5623 8.3071 18.472 8.43367 18.4209 8.57745C18.3699 8.72123 18.3602 8.87646 18.393 9.02546C18.4258 9.17446 18.4998 9.31126 18.6066 9.42029C18.7133 9.52931 18.8485 9.60618 18.9968 9.64216C19.3168 9.71882 19.6218 9.82882 19.9118 9.97216C20.2918 10.1622 20.3001 10.3655 19.9368 10.5822C19.4768 10.8555 19.0284 10.7505 18.5918 10.2672C18.5418 10.2138 18.4951 10.2155 18.4518 10.2722L18.3318 10.4222C18.3042 10.457 18.2906 10.5007 18.2933 10.545C18.2961 10.5893 18.3151 10.631 18.3468 10.6622C18.9668 11.3088 19.6384 11.4105 20.3618 10.9672C20.4979 10.8836 20.6068 10.7624 20.6754 10.6182C20.7439 10.4739 20.7692 10.3129 20.748 10.1546C20.7268 9.99633 20.6601 9.84759 20.5561 9.72645C20.452 9.60531 20.3151 9.51697 20.1618 9.47216L19.1918 9.19216C19.0451 9.14882 18.9684 9.05216 18.9618 8.90216L18.9518 8.72216C18.9473 8.64652 18.9717 8.57201 19.0199 8.51358C19.0681 8.45515 19.1367 8.41713 19.2118 8.40716Z" stroke="#848385" stroke-width="2"/>
<path d="M22.0865 9.75223L23.6915 9.72723C23.9249 9.7239 24.0332 9.6039 24.0165 9.36723C23.9599 8.59057 23.6182 8.11723 22.9915 7.94723C21.3915 7.51723 20.6415 9.96223 21.7665 10.8672C22.4732 11.4339 23.1865 11.3522 23.9065 10.6222C23.9232 10.6056 23.9265 10.5889 23.9165 10.5722L23.8165 10.4122C23.7532 10.3022 23.6699 10.2839 23.5665 10.3572C23.2965 10.5539 23.0132 10.6672 22.7165 10.6972C22.6032 10.7098 22.4883 10.696 22.3809 10.657C22.2734 10.618 22.1761 10.5548 22.0965 10.4722C21.9799 10.3489 21.9015 10.2039 21.8615 10.0372C21.8182 9.85057 21.8932 9.75557 22.0865 9.75223Z" stroke="#848385" stroke-width="2"/>
<path d="M25.922 8.51685C26.1787 8.55351 26.3487 8.45851 26.432 8.23185C26.5387 7.93851 26.4454 7.84518 26.152 7.95185C25.8454 8.06518 25.537 8.08185 25.227 8.00185C24.9637 7.93185 24.832 8.03351 24.832 8.30685L24.842 11.0568C24.842 11.1468 24.8854 11.1868 24.972 11.1768L25.182 11.1618C25.2887 11.1518 25.342 11.0935 25.342 10.9868L25.372 8.98685C25.3727 8.91782 25.3882 8.84974 25.4172 8.78724C25.4463 8.72474 25.4884 8.66929 25.5406 8.62467C25.5928 8.58006 25.6539 8.54734 25.7198 8.52873C25.7856 8.51012 25.8546 8.50607 25.922 8.51685Z" stroke="#848385" stroke-width="2"/>
<path d="M28.0368 8.37705C28.3568 8.39038 28.6468 8.46372 28.9068 8.59705C29.0635 8.67372 29.1435 8.79872 29.1468 8.97205L29.1768 10.987C29.1779 11.0256 29.1928 11.0623 29.2187 11.09C29.2446 11.1178 29.2796 11.1345 29.3168 11.137L29.4668 11.157C29.5835 11.167 29.6468 11.1137 29.6568 10.997C29.7101 10.447 29.7185 9.83705 29.6818 9.16705C29.6218 8.11705 29.1085 7.73538 28.1418 8.02205C27.8985 8.09205 27.6685 8.07538 27.4518 7.97205C27.2151 7.85872 27.0968 7.93372 27.0968 8.19705L27.0918 11.037C27.0918 11.1104 27.1285 11.1504 27.2018 11.157L27.4418 11.182C27.5618 11.192 27.6185 11.137 27.6118 11.017C27.5751 10.2237 27.6168 9.42538 27.7368 8.62205C27.7635 8.44872 27.8635 8.36705 28.0368 8.37705Z" stroke="#848385" stroke-width="2"/>
<path d="M32.1216 9.21709L31.0166 9.40709C30.8528 9.43592 30.7009 9.51163 30.5792 9.62505C30.4576 9.73848 30.3714 9.88474 30.3312 10.0461C30.291 10.2075 30.2984 10.3771 30.3526 10.5344C30.4068 10.6916 30.5055 10.8298 30.6366 10.9321C31.0666 11.2688 31.5499 11.3071 32.0866 11.0471C32.2233 10.9804 32.3566 10.9838 32.4866 11.0571L32.6266 11.1371C32.8366 11.2504 32.9399 11.1888 32.9366 10.9521L32.9116 8.96709C32.9049 8.38376 32.6149 8.04042 32.0416 7.93709C31.3483 7.81376 30.8649 8.01876 30.5916 8.55209C30.4483 8.83209 30.5133 8.89209 30.7866 8.73209C31.1799 8.50209 31.5783 8.41376 31.9816 8.46709C32.1616 8.49042 32.2783 8.58876 32.3316 8.76209C32.3449 8.80209 32.3549 8.84376 32.3616 8.88709C32.3883 9.07709 32.3083 9.18709 32.1216 9.21709Z" stroke="#848385" stroke-width="2"/>
<path d="M35.7071 8.20182C35.6971 8.15515 35.6738 8.11682 35.6371 8.08682C35.4905 7.96682 35.3305 7.92015 35.1571 7.94682C34.7471 8.01015 34.3421 8.02682 33.9421 7.99682C33.7255 7.98015 33.6188 8.08182 33.6221 8.30182L33.6621 11.0518C33.6621 11.07 33.6658 11.0879 33.6729 11.1047C33.68 11.1214 33.6904 11.1365 33.7034 11.1491C33.7165 11.1617 33.732 11.1715 33.7489 11.178C33.7659 11.1845 33.784 11.1875 33.8021 11.1868L33.9371 11.1768C34.0738 11.1702 34.1438 11.1002 34.1471 10.9668L34.2521 8.71682C34.2588 8.51015 34.3655 8.41348 34.5721 8.42682L35.0971 8.46682C35.2147 8.47449 35.3249 8.52701 35.4049 8.61353C35.4849 8.70005 35.5287 8.81398 35.5271 8.93182L35.5021 10.9268C35.5019 10.9813 35.5219 11.0339 35.5581 11.0738C35.5943 11.1137 35.644 11.138 35.6971 11.1418L35.8371 11.1568C35.9938 11.1702 36.0738 11.0985 36.0771 10.9418L36.0871 9.12682C36.0905 8.70348 36.3038 8.47348 36.7271 8.43682C36.7971 8.43015 36.8671 8.43182 36.9371 8.44182C37.2538 8.48848 37.4121 8.67182 37.4121 8.99182L37.4271 10.9468C37.4283 10.9933 37.447 11.0377 37.4794 11.071C37.5119 11.1044 37.5557 11.1243 37.6021 11.1268L37.7821 11.1368C37.9055 11.1435 37.9688 11.0851 37.9721 10.9618C37.9888 10.2785 37.9805 9.62182 37.9471 8.99182C37.8921 7.83682 36.7821 7.57682 36.0021 8.29182C35.8521 8.42848 35.7538 8.39848 35.7071 8.20182Z" stroke="#848385" stroke-width="2"/>
<path d="M39.4918 9.76688L40.9718 9.73688C41.5052 9.72354 41.6518 9.47854 41.4118 9.00187L41.1968 8.57188C40.9702 8.11854 40.6035 7.90688 40.0968 7.93688C37.9768 8.06188 38.0618 11.5619 40.5818 11.1419C40.9018 11.0885 41.1052 10.9085 41.1918 10.6019C41.2818 10.2919 41.1885 10.2185 40.9118 10.3819C40.8152 10.4352 40.7202 10.4919 40.6268 10.5519C40.1118 10.8869 39.4118 10.7069 39.2618 10.0669C39.2152 9.87021 39.2918 9.77021 39.4918 9.76688Z" stroke="#848385" stroke-width="2"/>
<path d="M142.898 10.9352C142.899 10.7737 142.867 10.6137 142.805 10.4644C142.744 10.315 142.654 10.1793 142.54 10.0649C142.426 9.95045 142.29 9.85961 142.141 9.79754C141.992 9.73546 141.832 9.70337 141.67 9.70309L140.28 9.70069C140.119 9.7004 139.959 9.73194 139.81 9.79349C139.66 9.85504 139.524 9.94541 139.41 10.0594C139.296 10.1734 139.205 10.3089 139.143 10.458C139.081 10.6071 139.049 10.767 139.048 10.9285L139.046 12.2985C139.046 12.4601 139.077 12.6201 139.139 12.7694C139.2 12.9187 139.291 13.0545 139.405 13.1689C139.519 13.2833 139.654 13.3742 139.803 13.4362C139.952 13.4983 140.112 13.5304 140.274 13.5307L141.664 13.5331C141.825 13.5334 141.985 13.5018 142.135 13.4403C142.284 13.3787 142.42 13.2884 142.534 13.1743C142.649 13.0603 142.739 12.9249 142.801 12.7758C142.864 12.6267 142.896 12.4668 142.896 12.3052L142.898 10.9352Z" stroke="#10637D" stroke-width="2"/>
<path d="M147.402 10.927C147.402 10.5981 147.271 10.2827 147.039 10.0502C146.806 9.81765 146.491 9.68701 146.162 9.68701H144.782C144.619 9.68701 144.458 9.71908 144.307 9.7814C144.157 9.84372 144.02 9.93505 143.905 10.0502C143.79 10.1653 143.699 10.302 143.636 10.4525C143.574 10.6029 143.542 10.7642 143.542 10.927V12.327C143.542 12.4899 143.574 12.6511 143.636 12.8015C143.699 12.952 143.79 13.0887 143.905 13.2038C144.02 13.319 144.157 13.4103 144.307 13.4726C144.458 13.5349 144.619 13.567 144.782 13.567H146.162C146.491 13.567 146.806 13.4364 147.039 13.2038C147.271 12.9713 147.402 12.6559 147.402 12.327V10.927Z" stroke="#10637D" stroke-width="2"/>
<path d="M142.913 15.4989C142.916 15.1568 142.783 14.8275 142.543 14.5835C142.303 14.3395 141.976 14.2007 141.634 14.1977L140.354 14.1866C140.185 14.1851 140.017 14.217 139.859 14.2804C139.702 14.3439 139.559 14.4377 139.438 14.5564C139.318 14.6752 139.221 14.8165 139.155 14.9725C139.089 15.1284 139.054 15.2959 139.053 15.4653L139.041 16.8052C139.038 17.1473 139.171 17.4766 139.411 17.7206C139.651 17.9647 139.978 18.1034 140.32 18.1064L141.6 18.1176C141.769 18.1191 141.937 18.0872 142.094 18.0237C142.251 17.9602 142.394 17.8665 142.515 17.7477C142.636 17.629 142.732 17.4876 142.798 17.3317C142.865 17.1757 142.899 17.0083 142.901 16.8389L142.913 15.4989Z" stroke="#10637D" stroke-width="2"/>
<path d="M144.53 15.4009C144.581 15.3718 144.624 15.3319 144.659 15.2832C144.693 15.2346 144.717 15.1782 144.73 15.1174C144.743 15.0566 144.744 14.9925 144.733 14.9287C144.723 14.865 144.7 14.8028 144.668 14.7458C144.635 14.6889 144.593 14.6382 144.543 14.5966C144.494 14.5551 144.438 14.5236 144.379 14.5038C144.32 14.484 144.259 14.4765 144.2 14.4815C144.14 14.4865 144.084 14.504 144.033 14.5331C143.982 14.5621 143.938 14.6021 143.904 14.6508C143.87 14.6994 143.845 14.7557 143.833 14.8166C143.82 14.8774 143.819 14.9415 143.83 15.0053C143.84 15.069 143.863 15.1312 143.895 15.1881C143.928 15.2451 143.97 15.2958 144.02 15.3374C144.069 15.3789 144.125 15.4104 144.184 15.4302C144.243 15.4499 144.304 15.4575 144.363 15.4525C144.423 15.4475 144.479 15.4299 144.53 15.4009Z" stroke="#10637D" stroke-width="2"/>
<path d="M147.147 14.9668C147.147 14.8395 147.096 14.7174 147.006 14.6274C146.916 14.5374 146.794 14.4868 146.667 14.4868C146.539 14.4868 146.417 14.5374 146.327 14.6274C146.237 14.7174 146.187 14.8395 146.187 14.9668C146.187 15.0941 146.237 15.2162 146.327 15.3062C146.417 15.3962 146.539 15.4468 146.667 15.4468C146.794 15.4468 146.916 15.3962 147.006 15.3062C147.096 15.2162 147.147 15.0941 147.147 14.9668Z" stroke="#10637D" stroke-width="2"/>
<path d="M23.919 15.55C23.9185 15.4612 23.8828 15.3762 23.8196 15.3137C23.7565 15.2512 23.6711 15.2163 23.5822 15.2168L23.5422 15.217C23.4982 15.2172 23.4547 15.2261 23.4142 15.2432C23.3736 15.2602 23.3368 15.2851 23.3059 15.3164C23.2749 15.3476 23.2504 15.3847 23.2338 15.4254C23.2172 15.4662 23.2088 15.5098 23.209 15.5538L23.234 20.3237C23.2345 20.4125 23.2702 20.4976 23.3334 20.56C23.3965 20.6225 23.4819 20.6574 23.5707 20.6569L23.6107 20.6567C23.6547 20.6565 23.6982 20.6476 23.7388 20.6305C23.7794 20.6135 23.8162 20.5886 23.8471 20.5573C23.8781 20.5261 23.9025 20.489 23.9192 20.4483C23.9358 20.4076 23.9442 20.3639 23.944 20.32L23.919 15.55Z" stroke="#10637D" stroke-width="2"/>
<path d="M48.4317 20.3371C50.8617 22.2421 52.2617 16.8221 49.3117 16.6971C49.1447 16.6906 48.9775 16.7285 48.8267 16.8071L48.5367 16.9571C48.2867 17.0838 48.1583 17.0071 48.1517 16.7271L48.1117 15.4271C48.1111 15.3984 48.1047 15.3701 48.0927 15.344C48.0808 15.318 48.0637 15.2948 48.0425 15.2759C48.0213 15.257 47.9964 15.243 47.9696 15.2346C47.9427 15.2261 47.9145 15.2236 47.8867 15.2271L47.7517 15.2371C47.6745 15.2457 47.6033 15.2816 47.5516 15.3379C47.4999 15.3942 47.4714 15.4669 47.4717 15.5421V20.3121C47.4717 20.5221 47.5767 20.6221 47.7867 20.6121C47.91 20.6088 47.9983 20.5488 48.0517 20.4321C48.1383 20.2388 48.265 20.2071 48.4317 20.3371Z" stroke="#10637D" stroke-width="2"/>
<path d="M62.8067 16.9672L62.7817 15.3322C62.7817 15.2289 62.7284 15.1822 62.6217 15.1922L62.4667 15.2072C62.3757 15.2171 62.2915 15.2605 62.2306 15.3288C62.1696 15.3971 62.1362 15.4857 62.1367 15.5772L62.1617 20.3422C62.1623 20.3862 62.1739 20.4292 62.1956 20.4674C62.2173 20.5056 62.2483 20.5377 62.2858 20.5607C62.3232 20.5837 62.3659 20.5968 62.4098 20.5988C62.4536 20.6008 62.4973 20.5917 62.5367 20.5722C62.6234 20.5289 62.7017 20.4722 62.7717 20.4022C62.8817 20.2889 63.0034 20.2739 63.1367 20.3572C65.6917 21.9772 66.5617 17.3072 64.4767 16.7772C63.9501 16.6439 63.4851 16.7489 63.0817 17.0922C62.9017 17.2422 62.8101 17.2006 62.8067 16.9672Z" stroke="#10637D" stroke-width="2"/>
<path d="M19.4071 19.4619C19.1404 19.0552 19.0904 18.5386 19.2571 17.9119C19.2788 17.83 19.2839 17.7446 19.2721 17.6608C19.2604 17.5771 19.2319 17.4966 19.1885 17.4242C19.1451 17.3519 19.0876 17.2892 19.0195 17.2398C18.9514 17.1904 18.874 17.1554 18.7921 17.1369C18.3287 17.0269 17.8787 16.9952 17.4421 17.0419C17.2454 17.0652 17.0837 17.1486 16.9571 17.2919C15.9071 18.4769 16.7521 20.7569 18.4921 19.7469C18.6487 19.6536 18.7937 19.6702 18.9271 19.7969C19.0471 19.9036 19.1837 19.9769 19.3371 20.0169C20.1021 20.2169 20.6771 19.2919 20.7821 18.6619C21.3671 15.0219 16.0371 14.2719 15.1421 17.4719C14.4171 20.0519 16.2621 21.8669 18.9371 21.3519C19.0371 21.3319 19.1171 21.2786 19.1771 21.1919C19.3104 20.9952 19.2571 20.9052 19.0171 20.9219C17.7871 21.0219 16.5571 21.0519 15.9021 19.7869C15.2571 18.5419 15.5571 16.5719 17.0971 16.1169C19.3671 15.4469 20.8871 17.0669 19.9471 19.4119C19.9261 19.4639 19.8913 19.509 19.8463 19.5425C19.8014 19.576 19.7481 19.5964 19.6923 19.6016C19.6365 19.6067 19.5804 19.5964 19.5301 19.5718C19.4798 19.5471 19.4372 19.5091 19.4071 19.4619Z" stroke="#10637D" stroke-width="2"/>
<path d="M22.2809 15.8028C22.2809 15.7568 22.272 15.7113 22.2545 15.6688C22.2369 15.6263 22.2112 15.5877 22.1788 15.5551C22.1463 15.5226 22.1078 15.4967 22.0654 15.4791C22.0229 15.4614 21.9774 15.4523 21.9315 15.4522L21.9015 15.4521C21.8087 15.452 21.7196 15.4887 21.6538 15.5542C21.5881 15.6197 21.551 15.7087 21.5509 15.8015L21.543 20.3215C21.5429 20.3675 21.5519 20.413 21.5694 20.4555C21.5869 20.498 21.6126 20.5366 21.6451 20.5692C21.6775 20.6017 21.716 20.6276 21.7585 20.6452C21.8009 20.6629 21.8464 20.672 21.8924 20.6721L21.9224 20.6721C22.0152 20.6723 22.1043 20.6356 22.17 20.5701C22.2358 20.5046 22.2728 20.4156 22.273 20.3228L22.2809 15.8028Z" stroke="#10637D" stroke-width="2"/>
<path d="M39.6017 17.5618L39.7717 17.4068C39.8531 17.3316 39.9171 17.2394 39.9594 17.1367C40.0017 17.0339 40.0213 16.9231 40.0167 16.8118C39.9417 15.0818 37.9017 15.3868 36.7317 15.4568C36.672 15.4607 36.616 15.4871 36.5752 15.5308C36.5343 15.5744 36.5116 15.632 36.5117 15.6918L36.5367 20.2268C36.5367 20.4235 36.6351 20.5418 36.8317 20.5818C37.9851 20.8052 38.8801 20.7468 39.5167 20.4068C40.3267 19.9735 40.5151 19.3102 40.0817 18.4168C40.0217 18.2902 39.9301 18.1902 39.8067 18.1168L39.6467 18.0168C39.4301 17.8835 39.4151 17.7318 39.6017 17.5618Z" stroke="#10637D" stroke-width="2"/>
<path d="M71.5416 17.377L71.7266 17.302C72.1666 17.1287 72.1716 16.9437 71.7416 16.747C71.4749 16.6237 71.3082 16.427 71.2416 16.157C71.0916 15.5203 70.8949 15.5053 70.6516 16.112C70.5649 16.3387 70.4416 16.5403 70.2816 16.717C70.1416 16.8703 70.1332 17.032 70.2566 17.202L70.4516 17.472C70.5549 17.6087 70.6049 17.762 70.6016 17.932C70.5916 18.9987 70.6332 19.7087 70.7266 20.062C70.8666 20.5887 71.2516 20.772 71.8816 20.612C72.1316 20.5487 72.1666 20.4237 71.9866 20.237C71.8966 20.1437 71.7932 20.0803 71.6766 20.047C71.5785 20.0199 71.4919 19.9614 71.4297 19.8803C71.3675 19.7992 71.333 19.6997 71.3316 19.597L71.3016 17.737C71.2982 17.5603 71.3782 17.4403 71.5416 17.377Z" stroke="#10637D" stroke-width="2"/>
<path d="M145.961 16.137C145.961 16.0123 145.912 15.8928 145.824 15.8047C145.736 15.7165 145.616 15.667 145.491 15.667C145.367 15.667 145.247 15.7165 145.159 15.8047C145.071 15.8928 145.021 16.0123 145.021 16.137C145.021 16.1987 145.034 16.2598 145.057 16.3169C145.081 16.3739 145.116 16.4257 145.159 16.4693C145.203 16.513 145.255 16.5476 145.312 16.5712C145.369 16.5948 145.43 16.607 145.491 16.607C145.553 16.607 145.614 16.5948 145.671 16.5712C145.728 16.5476 145.78 16.513 145.824 16.4693C145.867 16.4257 145.902 16.3739 145.926 16.3169C145.949 16.2598 145.961 16.1987 145.961 16.137Z" stroke="#10637D" stroke-width="2"/>
<path d="M45.4014 16.8273L45.2764 16.7373C44.9964 16.5373 44.8581 16.6106 44.8614 16.9573L44.9114 20.5273C44.9114 20.6139 44.9547 20.6573 45.0414 20.6573H45.2364C45.3931 20.6606 45.4747 20.5839 45.4814 20.4273L45.6064 17.9373C45.6131 17.7573 45.6947 17.6239 45.8514 17.5373C46.0847 17.4039 46.3364 17.3639 46.6064 17.4173C46.7764 17.4473 46.8764 17.3773 46.9064 17.2073C46.9297 17.0639 46.9097 16.9273 46.8464 16.7973C46.7431 16.5873 46.5864 16.5356 46.3764 16.6423L45.9314 16.8673C45.7447 16.9606 45.5681 16.9473 45.4014 16.8273Z" stroke="#10637D" stroke-width="2"/>
<path d="M26.0172 19.072L25.3522 16.937C25.2855 16.717 25.1405 16.637 24.9172 16.697L24.7622 16.742C24.74 16.7475 24.7192 16.7577 24.7012 16.7719C24.6833 16.7862 24.6686 16.8041 24.6582 16.8245C24.6478 16.8448 24.6418 16.8672 24.6408 16.8901C24.6398 16.913 24.6436 16.9358 24.6522 16.957L25.8872 20.422C25.9524 20.602 25.9463 20.8003 25.8702 20.9767C25.7941 21.1531 25.6536 21.2944 25.4772 21.372C25.3205 21.4387 25.1788 21.5287 25.0522 21.642C24.8422 21.8254 24.8738 21.9404 25.1472 21.987C26.0022 22.137 26.5372 21.127 26.7822 20.417C27.2122 19.1904 27.6055 18.0487 27.9622 16.992C28.0055 16.862 27.9605 16.7804 27.8272 16.747L27.6822 16.717C27.6054 16.6994 27.5249 16.7112 27.4564 16.7501C27.3879 16.789 27.3364 16.8521 27.3122 16.927L26.6372 19.072C26.4305 19.732 26.2238 19.732 26.0172 19.072Z" stroke="#10637D" stroke-width="2"/>
<path d="M30.7121 17.8919C30.7258 17.9474 30.726 18.0052 30.7126 18.0608C30.6992 18.1164 30.6726 18.168 30.635 18.2115C30.5974 18.255 30.5498 18.289 30.4963 18.3108C30.4428 18.3326 30.3848 18.3416 30.3271 18.3369C29.1204 18.2303 28.4088 18.6336 28.1921 19.5469C28.1779 19.6087 28.1759 19.6723 28.1862 19.7341C28.1965 19.7959 28.2189 19.8546 28.2521 19.9069C28.7888 20.7469 29.5254 20.9253 30.4621 20.4419C30.5954 20.3719 30.7304 20.3719 30.8671 20.4419L31.0071 20.5119C31.2738 20.6486 31.4021 20.5686 31.3921 20.2719C31.3471 18.9219 32.0221 16.3819 29.5771 16.7019C28.9971 16.7786 28.6421 17.0503 28.5121 17.5169C28.4521 17.7436 28.5321 17.8169 28.7521 17.7369C29.2271 17.5619 29.5921 17.1919 30.1371 17.3269C30.4471 17.4069 30.6388 17.5953 30.7121 17.8919Z" stroke="#10637D" stroke-width="2"/>
<path d="M43.3816 20.4221C43.3983 20.4854 43.4316 20.5371 43.4816 20.5771C43.5145 20.6039 43.5541 20.6211 43.5961 20.6268C43.6381 20.6324 43.6809 20.6264 43.7197 20.6094C43.7584 20.5923 43.7918 20.5648 43.8159 20.53C43.8401 20.4952 43.8542 20.4544 43.8566 20.4121C43.9033 19.6554 43.9416 18.8887 43.9716 18.1121C44.0266 16.5371 41.6116 16.1871 41.1366 17.3471C40.9433 17.8237 41.0666 17.9287 41.5066 17.6621C41.8366 17.4587 42.175 17.3471 42.5216 17.3271C42.955 17.2971 43.1983 17.4821 43.2516 17.8821C43.2983 18.2221 43.1516 18.3771 42.8116 18.3471C41.555 18.2337 40.8866 18.6554 40.8066 19.6121C40.7939 19.7795 40.8438 19.9453 40.9466 20.0771C41.5266 20.8304 42.26 20.9154 43.1466 20.3321C43.2666 20.2521 43.345 20.2821 43.3816 20.4221Z" stroke="#10637D" stroke-width="2"/>
<path d="M52.4872 18.9273L54.6122 18.8873C54.6577 18.8867 54.7026 18.8769 54.7443 18.8586C54.786 18.8403 54.8236 18.8138 54.8548 18.7807C54.886 18.7476 54.9103 18.7085 54.9262 18.6658C54.9421 18.6232 54.9492 18.5778 54.9472 18.5323C54.8922 17.3123 54.0722 16.4673 52.8372 16.7173C51.0522 17.0823 51.1022 20.3873 52.9472 20.6723C53.6972 20.789 54.2405 20.5956 54.5772 20.0923C54.8872 19.6223 54.7822 19.4973 54.2622 19.7173C54.0222 19.8173 53.7739 19.9106 53.5172 19.9973C52.8505 20.2206 52.4238 19.9723 52.2372 19.2523C52.1838 19.039 52.2672 18.9306 52.4872 18.9273Z" stroke="#10637D" stroke-width="2"/>
<path d="M56.7163 17.5368L57.5563 17.3018C57.673 17.2718 57.7313 17.1951 57.7313 17.0718V16.9168C57.7346 16.7601 57.658 16.6851 57.5013 16.6918C57.2713 16.7018 57.0563 16.7535 56.8563 16.8468C56.6763 16.9301 56.4996 16.9285 56.3263 16.8418C56.183 16.7685 56.038 16.7535 55.8913 16.7968C55.7613 16.8335 55.698 16.9201 55.7013 17.0568L55.7263 20.5268C55.7296 20.6501 55.7913 20.7018 55.9113 20.6818L56.0563 20.6568C56.1336 20.6441 56.2041 20.6044 56.2561 20.5442C56.308 20.4841 56.3381 20.4073 56.3413 20.3268L56.3963 17.9418C56.3994 17.849 56.4322 17.7596 56.4897 17.6867C56.5473 17.6138 56.6267 17.5613 56.7163 17.5368Z" stroke="#10637D" stroke-width="2"/>
<path d="M67.975 20.7472C68.4471 20.7464 68.8995 20.5291 69.2326 20.1431C69.5657 19.7571 69.7524 19.2341 69.7514 18.6891C69.7509 18.4192 69.7044 18.1521 69.6146 17.9029C69.5247 17.6538 69.3932 17.4274 69.2275 17.2369C69.0619 17.0464 68.8654 16.8953 68.6493 16.7924C68.4331 16.6895 68.2016 16.6368 67.9678 16.6372C67.4957 16.638 67.0434 16.8553 66.7102 17.2413C66.3771 17.6273 66.1905 18.1503 66.1914 18.6953C66.1919 18.9652 66.2384 19.2323 66.3283 19.4815C66.4182 19.7307 66.5497 19.957 66.7153 20.1475C66.8809 20.338 67.0774 20.4891 67.2936 20.592C67.5097 20.6949 67.7413 20.7476 67.975 20.7472Z" stroke="#10637D" stroke-width="2"/>
<path d="M144.751 17.3219C144.751 17.1986 144.702 17.0803 144.615 16.9931C144.528 16.9059 144.41 16.8569 144.286 16.8569C144.163 16.8569 144.045 16.9059 143.957 16.9931C143.87 17.0803 143.821 17.1986 143.821 17.3219C143.821 17.4453 143.87 17.5635 143.957 17.6507C144.045 17.7379 144.163 17.7869 144.286 17.7869C144.41 17.7869 144.528 17.7379 144.615 17.6507C144.702 17.5635 144.751 17.4453 144.751 17.3219Z" stroke="#10637D" stroke-width="2"/>
<path d="M147.147 17.3023C147.147 17.175 147.096 17.0529 147.006 16.9629C146.916 16.8728 146.794 16.8223 146.667 16.8223C146.539 16.8223 146.417 16.8728 146.327 16.9629C146.237 17.0529 146.187 17.175 146.187 17.3023C146.187 17.4296 146.237 17.5517 146.327 17.6417C146.417 17.7317 146.539 17.7823 146.667 17.7823C146.794 17.7823 146.916 17.7317 147.006 17.6417C147.096 17.5517 147.147 17.4296 147.147 17.3023Z" stroke="#10637D" stroke-width="2"/>
<path d="M36.0321 21.2384C36.032 21.1589 36.0003 21.0826 35.9439 21.0265C35.8875 20.9703 35.8112 20.9388 35.7316 20.939L32.0416 20.9454C32.0022 20.9454 31.9632 20.9533 31.9269 20.9684C31.8905 20.9836 31.8575 21.0057 31.8297 21.0336C31.8019 21.0615 31.7798 21.0946 31.7648 21.1311C31.7498 21.1675 31.7421 21.2065 31.7422 21.2459L31.7422 21.2759C31.7424 21.3555 31.7741 21.4317 31.8305 21.4879C31.8868 21.544 31.9632 21.5755 32.0427 21.5754L35.7327 21.569C35.7721 21.5689 35.8111 21.5611 35.8475 21.5459C35.8839 21.5308 35.9169 21.5086 35.9447 21.4807C35.9725 21.4528 35.9946 21.4197 36.0096 21.3833C36.0246 21.3468 36.0323 21.3078 36.0322 21.2684L36.0321 21.2384Z" stroke="#10637D" stroke-width="2"/>
<path d="M61.667 21.2473C61.667 21.1677 61.6353 21.0914 61.5791 21.0351C61.5228 20.9789 61.4465 20.9473 61.367 20.9473H57.677C57.5974 20.9473 57.5211 20.9789 57.4648 21.0351C57.4086 21.0914 57.377 21.1677 57.377 21.2473V21.2773C57.377 21.3568 57.4086 21.4331 57.4648 21.4894C57.5211 21.5457 57.5974 21.5773 57.677 21.5773H61.367C61.4465 21.5773 61.5228 21.5457 61.5791 21.4894C61.6353 21.4331 61.667 21.3568 61.667 21.2773V21.2473Z" stroke="#10637D" stroke-width="2"/>
<path d="M23.0369 9.29198C23.2503 9.37198 23.3719 9.26198 23.4019 8.96198C23.4092 8.8773 23.3899 8.79261 23.3468 8.71992C23.3038 8.64723 23.2391 8.59023 23.1619 8.55698C22.5919 8.30698 22.1903 8.41032 21.9569 8.86698C21.8336 9.11365 21.9086 9.23865 22.1819 9.24198L22.8019 9.24698C22.8819 9.25032 22.9603 9.26531 23.0369 9.29198Z" stroke="#848385" stroke-width="2"/>
<path d="M32.2814 10.227C32.2814 10.1736 32.2914 10.122 32.3114 10.072C32.408 9.82865 32.3264 9.70865 32.0664 9.71198C31.6564 9.71198 31.2814 9.81198 30.9414 10.012C30.9123 10.0289 30.887 10.0516 30.8669 10.0785C30.8468 10.1055 30.8324 10.1362 30.8244 10.1689C30.8165 10.2016 30.8152 10.2355 30.8207 10.2687C30.8262 10.3019 30.8383 10.3336 30.8564 10.362C31.0497 10.6753 31.388 10.7936 31.8714 10.717C32.1514 10.6736 32.288 10.5103 32.2814 10.227Z" stroke="#848385" stroke-width="2"/>
<path d="M39.7665 9.26704C39.9998 9.22704 40.2382 9.23371 40.4815 9.28704C40.8048 9.35704 40.9032 9.23871 40.7765 8.93204C40.5798 8.44871 40.2215 8.30204 39.7015 8.49204C39.5715 8.53871 39.4715 8.62204 39.4015 8.74204C39.1515 9.17871 39.2732 9.35371 39.7665 9.26704Z" stroke="#848385" stroke-width="2"/>
<path d="M142.243 10.9641C142.243 10.8807 142.227 10.7981 142.195 10.721C142.163 10.6439 142.116 10.5738 142.057 10.5147C141.999 10.4557 141.929 10.4088 141.852 10.3767C141.775 10.3447 141.692 10.3281 141.609 10.328L140.289 10.3257C140.205 10.3255 140.123 10.3418 140.046 10.3736C139.969 10.4054 139.899 10.452 139.839 10.5109C139.78 10.5698 139.734 10.6397 139.701 10.7167C139.669 10.7937 139.653 10.8762 139.653 10.9596L139.65 12.2796C139.65 12.363 139.667 12.4456 139.698 12.5227C139.73 12.5998 139.777 12.6699 139.836 12.7289C139.894 12.788 139.964 12.8349 140.041 12.8669C140.118 12.899 140.201 12.9155 140.284 12.9157L141.604 12.918C141.688 12.9181 141.77 12.9018 141.847 12.8701C141.924 12.8383 141.995 12.7916 142.054 12.7328C142.113 12.6739 142.16 12.604 142.192 12.527C142.224 12.45 142.24 12.3675 142.24 12.2841L142.243 10.9641Z" stroke="#10637D" stroke-width="2"/>
<path d="M146.74 10.9496C146.74 10.7838 146.674 10.625 146.556 10.508C146.439 10.391 146.28 10.3254 146.114 10.3257L144.784 10.328C144.702 10.3281 144.621 10.3444 144.545 10.376C144.469 10.4075 144.4 10.4537 144.342 10.5118C144.285 10.5699 144.239 10.6389 144.207 10.7148C144.176 10.7907 144.16 10.872 144.16 10.9541L144.163 12.3041C144.163 12.4698 144.229 12.6287 144.346 12.7457C144.464 12.8627 144.623 12.9283 144.789 12.928L146.119 12.9257C146.201 12.9255 146.282 12.9092 146.358 12.8777C146.433 12.8462 146.502 12.8 146.56 12.7419C146.618 12.6837 146.664 12.6147 146.695 12.5389C146.727 12.463 146.743 12.3817 146.743 12.2996L146.74 10.9496Z" stroke="#10637D" stroke-width="2"/>
<path d="M142.273 15.5216C142.274 15.4297 142.256 15.3386 142.221 15.2535C142.186 15.1685 142.135 15.0911 142.07 15.0259C142.005 14.9607 141.928 14.9088 141.844 14.8734C141.759 14.8379 141.668 14.8195 141.576 14.8191L140.366 14.8149C140.274 14.8146 140.183 14.8324 140.098 14.8673C140.013 14.9022 139.936 14.9535 139.87 15.0182C139.805 15.083 139.753 15.16 139.718 15.2448C139.682 15.3296 139.664 15.4206 139.664 15.5125L139.659 16.7625C139.659 16.8544 139.677 16.9455 139.712 17.0306C139.746 17.1156 139.798 17.193 139.862 17.2582C139.927 17.3234 140.004 17.3752 140.089 17.4107C140.174 17.4462 140.265 17.4646 140.357 17.4649L141.567 17.4691C141.659 17.4695 141.75 17.4517 141.835 17.4168C141.92 17.3819 141.997 17.3306 142.062 17.2659C142.128 17.2011 142.179 17.1241 142.215 17.0393C142.25 16.9545 142.269 16.8635 142.269 16.7716L142.273 15.5216Z" stroke="#10637D" stroke-width="2"/>
<path d="M50.2274 18.2282C50.2264 18.1093 50.2019 17.9919 50.1555 17.8825C50.1091 17.7731 50.0415 17.6739 49.9568 17.5906C49.872 17.5073 49.7717 17.4415 49.6615 17.397C49.5513 17.3524 49.4334 17.3301 49.3145 17.3311L49.0445 17.3335C48.8045 17.3356 48.5752 17.4329 48.407 17.6041C48.2387 17.7753 48.1454 18.0063 48.1475 18.2463L48.1556 19.1763C48.1566 19.2951 48.1811 19.4126 48.2275 19.522C48.2739 19.6314 48.3415 19.7306 48.4262 19.8139C48.511 19.8972 48.6113 19.963 48.7215 20.0075C48.8317 20.052 48.9496 20.0744 49.0684 20.0734L49.3384 20.071C49.5785 20.0689 49.8078 19.9715 49.976 19.8003C50.1442 19.6292 50.2376 19.3981 50.2355 19.1581L50.2274 18.2282Z" stroke="#10637D" stroke-width="2"/>
<path d="M64.9613 18.2801C64.961 18.154 64.936 18.0292 64.8875 17.9128C64.8391 17.7964 64.7682 17.6907 64.6789 17.6018C64.5896 17.5128 64.4836 17.4422 64.3671 17.3942C64.2505 17.3462 64.1256 17.3216 63.9996 17.3218L63.7396 17.3222C63.485 17.3227 63.241 17.4242 63.0612 17.6046C62.8815 17.7849 62.7808 18.0293 62.7813 18.2839L62.7827 19.1039C62.7829 19.2299 62.8079 19.3547 62.8564 19.4711C62.9048 19.5875 62.9757 19.6932 63.065 19.7822C63.1543 19.8712 63.2603 19.9417 63.3768 19.9898C63.4934 20.0378 63.6183 20.0624 63.7444 20.0622L64.0044 20.0617C64.259 20.0613 64.5029 19.9597 64.6827 19.7794C64.8624 19.599 64.9631 19.3547 64.9627 19.1001L64.9613 18.2801Z" stroke="#10637D" stroke-width="2"/>
<path d="M17.8816 19.4367C17.9787 19.4337 18.0741 19.406 18.1624 19.3552C18.2506 19.3044 18.3299 19.2315 18.3958 19.1407C18.4617 19.0499 18.5129 18.943 18.5464 18.826C18.58 18.709 18.5952 18.5843 18.5912 18.4589C18.5873 18.3336 18.5643 18.21 18.5235 18.0954C18.4826 17.9808 18.4249 17.8772 18.3534 17.7908C18.2819 17.7043 18.1982 17.6365 18.1069 17.5914C18.0157 17.5462 17.9187 17.5246 17.8216 17.5276C17.7245 17.5307 17.629 17.5584 17.5408 17.6092C17.4526 17.66 17.3733 17.7328 17.3074 17.8236C17.2415 17.9144 17.1903 18.0214 17.1568 18.1384C17.1232 18.2553 17.108 18.3801 17.1119 18.5054C17.1159 18.6308 17.1389 18.7543 17.1797 18.8689C17.2205 18.9836 17.2783 19.0871 17.3498 19.1736C17.4213 19.2601 17.505 19.3278 17.5963 19.373C17.6875 19.4181 17.7845 19.4398 17.8816 19.4367Z" stroke="#10637D" stroke-width="2"/>
<path d="M39.2794 16.4947C39.2802 16.3859 39.2377 16.2814 39.1614 16.2039C39.085 16.1265 38.981 16.0826 38.8723 16.0818L37.5723 16.0728C37.4636 16.072 37.359 16.1145 37.2816 16.1908C37.2042 16.2672 37.1602 16.3711 37.1595 16.4799L37.1543 17.2199C37.1535 17.3286 37.196 17.4332 37.2724 17.5106C37.3487 17.588 37.4527 17.6319 37.5614 17.6327L38.8614 17.6418C38.9701 17.6425 39.0747 17.6001 39.1521 17.5237C39.2296 17.4474 39.2735 17.3434 39.2743 17.2347L39.2794 16.4947Z" stroke="#10637D" stroke-width="2"/>
<path d="M37.1922 18.4668L37.1622 19.7868C37.1615 19.8203 37.1674 19.8536 37.1796 19.8848C37.1918 19.916 37.2101 19.9445 37.2333 19.9686C37.2565 19.9928 37.2843 20.0121 37.3149 20.0255C37.3456 20.039 37.3787 20.0462 37.4122 20.0468L38.4972 20.0718C38.6325 20.0746 38.7669 20.0562 38.8927 20.0177C39.0184 19.9792 39.1331 19.9214 39.2302 19.8475C39.3272 19.7737 39.4047 19.6853 39.4583 19.5874C39.5118 19.4895 39.5403 19.3839 39.5422 19.2768L39.5472 19.0768C39.551 18.8614 39.4469 18.6527 39.2576 18.4962C39.0684 18.3398 38.8093 18.2483 38.5372 18.2418L37.4522 18.2168C37.4187 18.2162 37.3854 18.2221 37.3542 18.2343C37.323 18.2465 37.2945 18.2648 37.2704 18.288C37.2462 18.3112 37.2269 18.3389 37.2135 18.3696C37.2001 18.4003 37.1928 18.4334 37.1922 18.4668Z" stroke="#10637D" stroke-width="2"/>
<path d="M30.7147 19.2157C30.6728 19.0622 30.5395 18.9405 30.3443 18.8772C30.1491 18.814 29.908 18.8144 29.6739 18.8784C29.558 18.9101 29.4473 18.9565 29.3482 19.0149C29.2491 19.0732 29.1634 19.1425 29.0962 19.2187C29.0289 19.2948 28.9814 19.3764 28.9562 19.4588C28.9311 19.5411 28.9288 19.6226 28.9496 19.6986C28.9916 19.8521 29.1249 19.9739 29.3201 20.0371C29.5153 20.1004 29.7564 20.0999 29.9905 20.0359C30.1064 20.0042 30.2171 19.9578 30.3162 19.8995C30.4153 19.8411 30.501 19.7718 30.5682 19.6957C30.6355 19.6195 30.683 19.5379 30.7082 19.4556C30.7333 19.3732 30.7355 19.2917 30.7147 19.2157Z" stroke="#10637D" stroke-width="2"/>
<path d="M43.3046 19.1619C43.2799 19.0858 43.2319 19.0179 43.1633 18.9624C43.0948 18.9068 43.0071 18.8646 42.9053 18.8381C42.8035 18.8117 42.6895 18.8015 42.5698 18.8081C42.4501 18.8148 42.3271 18.8381 42.2079 18.8769C41.967 18.9552 41.7558 19.0913 41.6208 19.2555C41.4859 19.4196 41.4381 19.5983 41.4881 19.7521C41.5129 19.8283 41.5609 19.8961 41.6294 19.9517C41.6979 20.0073 41.7856 20.0495 41.8874 20.0759C41.9893 20.1024 42.1033 20.1126 42.2229 20.106C42.3426 20.0993 42.4656 20.0759 42.5849 20.0372C42.8257 19.9589 43.0369 19.8227 43.1719 19.6586C43.3069 19.4945 43.3546 19.3158 43.3046 19.1619Z" stroke="#10637D" stroke-width="2"/>
<path d="M52.3721 18.3419L54.0921 18.2919C54.1052 18.2912 54.1181 18.288 54.13 18.2824C54.1419 18.2767 54.1525 18.2688 54.1614 18.2591C54.1702 18.2493 54.177 18.2379 54.1814 18.2255C54.1858 18.2131 54.1878 18.2 54.1871 18.1869V18.1469C54.1796 17.9247 54.0795 17.7147 53.909 17.5629C53.7384 17.411 53.5112 17.3298 53.2771 17.3369H53.1271C53.0105 17.3403 52.8957 17.3655 52.7893 17.4111C52.6829 17.4567 52.587 17.5218 52.5071 17.6027C52.4272 17.6835 52.3648 17.7785 52.3236 17.8822C52.2825 17.9859 52.2632 18.0962 52.2671 18.2069V18.2469C52.2677 18.26 52.2709 18.2729 52.2766 18.2848C52.2822 18.2967 52.2901 18.3073 52.2999 18.3161C52.3096 18.325 52.321 18.3318 52.3334 18.3362C52.3458 18.3406 52.3589 18.3425 52.3721 18.3419Z" stroke="#10637D" stroke-width="2"/>
<path d="M69.0225 18.2591C69.0227 18.1376 68.999 18.0173 68.9527 17.905C68.9064 17.7926 68.8385 17.6906 68.7527 17.6045C68.667 17.5185 68.5651 17.4501 68.453 17.4035C68.3408 17.3568 68.2206 17.3326 68.0991 17.3324L67.8491 17.332C67.6038 17.3316 67.3683 17.4286 67.1946 17.6018C67.0208 17.775 66.9229 18.0101 66.9225 18.2554L66.9209 19.1454C66.9207 19.2669 66.9444 19.3872 66.9907 19.4995C67.037 19.6118 67.1049 19.7139 67.1907 19.8C67.2764 19.886 67.3783 19.9543 67.4904 20.001C67.6026 20.0477 67.7228 20.0718 67.8443 20.072L68.0943 20.0724C68.3396 20.0729 68.5751 19.9758 68.7488 19.8027C68.9226 19.6295 69.0205 19.3944 69.0209 19.1491L69.0225 18.2591Z" stroke="#10637D" stroke-width="2"/>
<path d="M0.881836 0.0620117H159.477V28.062H154.297C154.317 21.1053 154.327 14.147 154.327 7.18701C154.327 5.91368 154.199 4.87201 153.942 4.06201C152.997 1.06201 150.307 0.872012 147.652 0.877012C102.809 0.883678 58.0168 0.885345 13.2768 0.882012C9.57017 0.882012 7.71184 2.65035 7.70184 6.18701C7.68517 13.4803 7.67684 20.772 7.67684 28.062H0.896836L0.881836 0.0620117Z" fill="black"/>
<path d="M154.297 28.062H7.67676C7.67676 20.772 7.68509 13.4804 7.70176 6.18704C7.71176 2.65038 9.57009 0.882044 13.2768 0.882044C58.0168 0.885378 102.808 0.883711 147.652 0.877044C150.307 0.872044 152.997 1.06204 153.942 4.06204C154.198 4.87204 154.327 5.91371 154.327 7.18704C154.327 14.147 154.317 21.1054 154.297 28.062ZM15.4918 10.157L15.4618 8.14204C15.4618 8.03204 15.4084 7.97371 15.3018 7.96704L15.0868 7.95204C14.9968 7.94538 14.9518 7.98704 14.9518 8.07704L14.9568 10.277C14.9572 10.4249 14.9922 10.5706 15.0592 10.7024C15.1261 10.8342 15.2231 10.9485 15.3422 11.036C15.4614 11.1236 15.5994 11.1819 15.7452 11.2064C15.891 11.2309 16.0405 11.2209 16.1818 11.177C16.5551 11.0637 16.9218 11.0587 17.2818 11.162C17.4584 11.212 17.5518 11.1454 17.5618 10.962C17.6118 9.89871 17.6001 8.94371 17.5268 8.09704C17.5168 7.97038 17.4501 7.92204 17.3268 7.95204L17.1868 7.98704C17.1618 7.99422 17.1397 8.00868 17.1236 8.02839C17.1075 8.04811 17.0981 8.0721 17.0968 8.09704L17.0318 10.142C17.0251 10.3654 16.9218 10.522 16.7218 10.612C16.4751 10.722 16.2084 10.7454 15.9218 10.682C15.8011 10.6551 15.693 10.5886 15.6149 10.4934C15.5369 10.3981 15.4935 10.2796 15.4918 10.157ZM19.2118 8.40704C19.6484 8.34704 20.0251 8.47371 20.3418 8.78704C20.5084 8.95038 20.5884 8.91538 20.5818 8.68204C20.5784 8.36871 20.4301 8.15371 20.1368 8.03704C19.5934 7.81704 19.1084 7.87538 18.6818 8.21204C18.5623 8.30699 18.4719 8.43355 18.4209 8.57734C18.3698 8.72112 18.3602 8.87634 18.393 9.02535C18.4258 9.17435 18.4998 9.31115 18.6065 9.42017C18.7133 9.5292 18.8485 9.60607 18.9968 9.64204C19.3168 9.71871 19.6218 9.82871 19.9118 9.97204C20.2918 10.162 20.3001 10.3654 19.9368 10.582C19.4768 10.8554 19.0284 10.7504 18.5918 10.267C18.5418 10.2137 18.4951 10.2154 18.4518 10.272L18.3318 10.422C18.3042 10.4569 18.2905 10.5006 18.2933 10.5449C18.2961 10.5892 18.3151 10.6309 18.3468 10.662C18.9668 11.3087 19.6384 11.4104 20.3618 10.967C20.4979 10.8835 20.6068 10.7623 20.6754 10.618C20.7439 10.4738 20.7691 10.3128 20.748 10.1545C20.7268 9.99622 20.6601 9.84748 20.5561 9.72634C20.452 9.6052 20.315 9.51686 20.1618 9.47204L19.1918 9.19204C19.0451 9.14871 18.9684 9.05204 18.9618 8.90204L18.9518 8.72204C18.9473 8.64641 18.9716 8.5719 19.0199 8.51346C19.0681 8.45503 19.1367 8.41702 19.2118 8.40704ZM22.0868 9.75204L23.6918 9.72704C23.9251 9.72371 24.0334 9.60371 24.0168 9.36704C23.9601 8.59038 23.6184 8.11704 22.9918 7.94704C21.3918 7.51704 20.6418 9.96204 21.7668 10.867C22.4734 11.4337 23.1868 11.352 23.9068 10.622C23.9234 10.6054 23.9268 10.5887 23.9168 10.572L23.8168 10.412C23.7534 10.302 23.6701 10.2837 23.5668 10.357C23.2968 10.5537 23.0134 10.667 22.7168 10.697C22.6034 10.7096 22.4886 10.6958 22.3811 10.6568C22.2736 10.6178 22.1763 10.5546 22.0968 10.472C21.9801 10.3487 21.9018 10.2037 21.8618 10.037C21.8184 9.85038 21.8934 9.75538 22.0868 9.75204ZM25.9218 8.51704C26.1784 8.55371 26.3484 8.45871 26.4318 8.23204C26.5384 7.93871 26.4451 7.84538 26.1518 7.95204C25.8451 8.06538 25.5368 8.08204 25.2268 8.00204C24.9634 7.93204 24.8318 8.03371 24.8318 8.30704L24.8418 11.057C24.8418 11.147 24.8851 11.187 24.9718 11.177L25.1818 11.162C25.2884 11.152 25.3418 11.0937 25.3418 10.987L25.3718 8.98704C25.3725 8.91802 25.3879 8.84994 25.417 8.78743C25.4461 8.72493 25.4882 8.66948 25.5404 8.62487C25.5926 8.58026 25.6537 8.54753 25.7195 8.52892C25.7853 8.51032 25.8543 8.50626 25.9218 8.51704ZM28.0368 8.37704C28.3568 8.39038 28.6468 8.46371 28.9068 8.59704C29.0634 8.67371 29.1434 8.79871 29.1468 8.97204L29.1768 10.987C29.1778 11.0256 29.1928 11.0623 29.2187 11.09C29.2446 11.1178 29.2795 11.1345 29.3168 11.137L29.4668 11.157C29.5834 11.167 29.6468 11.1137 29.6568 10.997C29.7101 10.447 29.7184 9.83704 29.6818 9.16704C29.6218 8.11704 29.1084 7.73538 28.1418 8.02204C27.8984 8.09204 27.6684 8.07538 27.4518 7.97204C27.2151 7.85871 27.0968 7.93371 27.0968 8.19704L27.0918 11.037C27.0918 11.1104 27.1284 11.1504 27.2018 11.157L27.4418 11.182C27.5618 11.192 27.6184 11.137 27.6118 11.017C27.5751 10.2237 27.6168 9.42538 27.7368 8.62204C27.7634 8.44871 27.8634 8.36704 28.0368 8.37704ZM32.1218 9.21704L31.0168 9.40704C30.8529 9.43587 30.701 9.51158 30.5794 9.62501C30.4577 9.73843 30.3715 9.8847 30.3313 10.0461C30.2911 10.2075 30.2986 10.3771 30.3528 10.5343C30.407 10.6916 30.5056 10.8297 30.6368 10.932C31.0668 11.2687 31.5501 11.307 32.0868 11.047C32.2234 10.9804 32.3568 10.9837 32.4868 11.057L32.6268 11.137C32.8368 11.2504 32.9401 11.1887 32.9368 10.952L32.9118 8.96704C32.9051 8.38371 32.6151 8.04038 32.0418 7.93704C31.3484 7.81371 30.8651 8.01871 30.5918 8.55204C30.4484 8.83204 30.5134 8.89204 30.7868 8.73204C31.1801 8.50204 31.5784 8.41371 31.9818 8.46704C32.1618 8.49038 32.2784 8.58871 32.3318 8.76204C32.3451 8.80204 32.3551 8.84371 32.3618 8.88704C32.3884 9.07704 32.3084 9.18704 32.1218 9.21704ZM35.7068 8.20204C35.6968 8.15538 35.6734 8.11704 35.6368 8.08704C35.4901 7.96704 35.3301 7.92038 35.1568 7.94704C34.7468 8.01038 34.3418 8.02704 33.9418 7.99704C33.7251 7.98038 33.6184 8.08204 33.6218 8.30204L33.6618 11.052C33.6617 11.0702 33.6654 11.0882 33.6725 11.1049C33.6796 11.1216 33.69 11.1367 33.703 11.1493C33.7161 11.1619 33.7316 11.1718 33.7486 11.1782C33.7655 11.1847 33.7836 11.1877 33.8018 11.187L33.9368 11.177C34.0734 11.1704 34.1434 11.1004 34.1468 10.967L34.2518 8.71704C34.2584 8.51038 34.3651 8.41371 34.5718 8.42704L35.0968 8.46704C35.2144 8.47472 35.3245 8.52724 35.4045 8.61376C35.4845 8.70028 35.5283 8.81421 35.5268 8.93204L35.5018 10.927C35.5015 10.9816 35.5215 11.0341 35.5577 11.074C35.594 11.1139 35.6436 11.1382 35.6968 11.142L35.8368 11.157C35.9934 11.1704 36.0734 11.0987 36.0768 10.942L36.0868 9.12704C36.0901 8.70371 36.3034 8.47371 36.7268 8.43704C36.7968 8.43038 36.8668 8.43204 36.9368 8.44204C37.2534 8.48871 37.4118 8.67204 37.4118 8.99204L37.4268 10.947C37.4279 10.9936 37.4466 11.0379 37.4791 11.0713C37.5115 11.1046 37.5553 11.1245 37.6018 11.127L37.7818 11.137C37.9051 11.1437 37.9684 11.0854 37.9718 10.962C37.9884 10.2787 37.9801 9.62204 37.9468 8.99204C37.8918 7.83704 36.7818 7.57704 36.0018 8.29204C35.8518 8.42871 35.7534 8.39871 35.7068 8.20204ZM39.4918 9.76704L40.9718 9.73704C41.5051 9.72371 41.6518 9.47871 41.4118 9.00204L41.1968 8.57204C40.9701 8.11871 40.6034 7.90704 40.0968 7.93704C37.9768 8.06204 38.0618 11.562 40.5818 11.142C40.9018 11.0887 41.1051 10.9087 41.1918 10.602C41.2818 10.292 41.1884 10.2187 40.9118 10.382C40.8151 10.4354 40.7201 10.492 40.6268 10.552C40.1118 10.887 39.4118 10.707 39.2618 10.067C39.2151 9.87038 39.2918 9.77038 39.4918 9.76704ZM142.898 10.9354C142.898 10.7739 142.867 10.6139 142.805 10.4645C142.744 10.3152 142.653 10.1794 142.539 10.065C142.425 9.95061 142.29 9.85977 142.141 9.79769C141.992 9.73562 141.832 9.70353 141.67 9.70324L140.28 9.70084C140.119 9.70056 139.959 9.7321 139.809 9.79365C139.66 9.8552 139.524 9.94557 139.41 10.0596C139.295 10.1736 139.204 10.309 139.142 10.4582C139.08 10.6073 139.048 10.7672 139.048 10.9287L139.046 12.2987C139.045 12.4602 139.077 12.6202 139.138 12.7696C139.2 12.9189 139.29 13.0546 139.404 13.1691C139.518 13.2835 139.654 13.3743 139.803 13.4364C139.952 13.4985 140.112 13.5306 140.273 13.5308L141.663 13.5332C141.825 13.5335 141.985 13.502 142.134 13.4404C142.284 13.3789 142.419 13.2885 142.534 13.1745C142.648 13.0605 142.739 12.9251 142.801 12.7759C142.863 12.6268 142.895 12.4669 142.896 12.3054L142.898 10.9354ZM147.402 10.927C147.402 10.5982 147.271 10.2828 147.039 10.0502C146.806 9.81769 146.491 9.68704 146.162 9.68704H144.782C144.619 9.68704 144.458 9.71912 144.307 9.78143C144.157 9.84375 144.02 9.93509 143.905 10.0502C143.79 10.1654 143.698 10.3021 143.636 10.4525C143.574 10.603 143.542 10.7642 143.542 10.927V12.327C143.542 12.4899 143.574 12.6511 143.636 12.8016C143.698 12.952 143.79 13.0887 143.905 13.2039C144.02 13.319 144.157 13.4103 144.307 13.4727C144.458 13.535 144.619 13.567 144.782 13.567H146.162C146.491 13.567 146.806 13.4364 147.039 13.2039C147.271 12.9713 147.402 12.6559 147.402 12.327V10.927ZM142.913 15.4989C142.915 15.1568 142.782 14.8275 142.543 14.5835C142.303 14.3395 141.976 14.2007 141.634 14.1977L140.354 14.1865C140.185 14.1851 140.016 14.217 139.859 14.2804C139.702 14.3439 139.559 14.4376 139.438 14.5564C139.318 14.6751 139.221 14.8165 139.155 14.9724C139.089 15.1284 139.054 15.2958 139.053 15.4652L139.041 16.8052C139.038 17.1473 139.171 17.4766 139.411 17.7206C139.651 17.9646 139.978 18.1034 140.32 18.1064L141.6 18.1175C141.769 18.119 141.937 18.0871 142.094 18.0237C142.251 17.9602 142.394 17.8664 142.515 17.7477C142.636 17.629 142.732 17.4876 142.798 17.3316C142.865 17.1757 142.899 17.0082 142.901 16.8388L142.913 15.4989ZM144.53 15.4009C144.581 15.3719 144.625 15.3319 144.659 15.2833C144.693 15.2346 144.718 15.1783 144.731 15.1175C144.743 15.0566 144.744 14.9925 144.734 14.9288C144.723 14.865 144.701 14.8029 144.668 14.7459C144.635 14.6889 144.593 14.6382 144.543 14.5967C144.494 14.5552 144.438 14.5236 144.379 14.5039C144.32 14.4841 144.259 14.4765 144.2 14.4815C144.141 14.4866 144.084 14.5041 144.033 14.5331C143.983 14.5622 143.939 14.6022 143.904 14.6508C143.87 14.6994 143.846 14.7558 143.833 14.8166C143.82 14.8774 143.819 14.9416 143.83 15.0053C143.841 15.0691 143.863 15.1312 143.896 15.1882C143.928 15.2452 143.971 15.2959 144.02 15.3374C144.07 15.3789 144.125 15.4105 144.184 15.4302C144.243 15.45 144.304 15.4576 144.364 15.4525C144.423 15.4475 144.48 15.43 144.53 15.4009ZM147.147 14.967C147.147 14.8397 147.096 14.7177 147.006 14.6276C146.916 14.5376 146.794 14.487 146.667 14.487C146.539 14.487 146.417 14.5376 146.327 14.6276C146.237 14.7177 146.187 14.8397 146.187 14.967C146.187 15.0943 146.237 15.2164 146.327 15.3065C146.417 15.3965 146.539 15.447 146.667 15.447C146.794 15.447 146.916 15.3965 147.006 15.3065C147.096 15.2164 147.147 15.0943 147.147 14.967ZM23.9193 15.5502C23.9188 15.4614 23.883 15.3763 23.8199 15.3139C23.7567 15.2514 23.6713 15.2165 23.5825 15.217L23.5425 15.2172C23.4985 15.2174 23.455 15.2263 23.4144 15.2434C23.3739 15.2604 23.3371 15.2853 23.3061 15.3165C23.2752 15.3478 23.2507 15.3849 23.2341 15.4256C23.2175 15.4663 23.209 15.51 23.2093 15.5539L23.2343 20.3239C23.2347 20.4127 23.2705 20.4977 23.3336 20.5602C23.3968 20.6227 23.4822 20.6576 23.571 20.6571L23.611 20.6569C23.655 20.6567 23.6985 20.6478 23.7391 20.6307C23.7796 20.6137 23.8164 20.5888 23.8474 20.5575C23.8783 20.5263 23.9028 20.4892 23.9194 20.4485C23.9361 20.4077 23.9445 20.3641 23.9443 20.3201L23.9193 15.5502ZM48.4318 20.337C50.8618 22.242 52.2618 16.822 49.3118 16.697C49.1448 16.6905 48.9776 16.7284 48.8268 16.807L48.5368 16.957C48.2868 17.0837 48.1584 17.007 48.1518 16.727L48.1118 15.427C48.1112 15.3983 48.1047 15.37 48.0928 15.344C48.0809 15.3179 48.0638 15.2947 48.0426 15.2758C48.0213 15.257 47.9965 15.2429 47.9697 15.2345C47.9428 15.2261 47.9146 15.2235 47.8868 15.227L47.7518 15.237C47.6746 15.2457 47.6033 15.2815 47.5517 15.3378C47.5 15.3941 47.4715 15.4669 47.4718 15.542V20.312C47.4718 20.522 47.5768 20.622 47.7868 20.612C47.9101 20.6087 47.9984 20.5487 48.0518 20.432C48.1384 20.2387 48.2651 20.207 48.4318 20.337ZM62.8068 16.967L62.7818 15.332C62.7818 15.2287 62.7284 15.182 62.6218 15.192L62.4668 15.207C62.3757 15.2169 62.2916 15.2603 62.2306 15.3286C62.1697 15.3969 62.1362 15.4855 62.1368 15.577L62.1618 20.342C62.1623 20.386 62.174 20.429 62.1956 20.4672C62.2173 20.5055 62.2484 20.5375 62.2858 20.5605C62.3232 20.5835 62.3659 20.5966 62.4098 20.5986C62.4537 20.6006 62.4974 20.5915 62.5368 20.572C62.6234 20.5287 62.7018 20.472 62.7718 20.402C62.8818 20.2887 63.0034 20.2737 63.1368 20.357C65.6918 21.977 66.5618 17.307 64.4768 16.777C63.9501 16.6437 63.4851 16.7487 63.0818 17.092C62.9018 17.242 62.8101 17.2004 62.8068 16.967ZM19.4068 19.462C19.1401 19.0554 19.0901 18.5387 19.2568 17.912C19.2785 17.8302 19.2836 17.7448 19.2718 17.661C19.2601 17.5772 19.2316 17.4967 19.1882 17.4244C19.1448 17.352 19.0873 17.2893 19.0192 17.2399C18.9511 17.1906 18.8737 17.1556 18.7918 17.137C18.3284 17.027 17.8784 16.9954 17.4418 17.042C17.2451 17.0654 17.0834 17.1487 16.9568 17.292C15.9068 18.477 16.7518 20.757 18.4918 19.747C18.6484 19.6537 18.7934 19.6704 18.9268 19.797C19.0468 19.9037 19.1834 19.977 19.3368 20.017C20.1018 20.217 20.6768 19.292 20.7818 18.662C21.3668 15.022 16.0368 14.272 15.1418 17.472C14.4168 20.052 16.2618 21.867 18.9368 21.352C19.0368 21.332 19.1168 21.2787 19.1768 21.192C19.3101 20.9954 19.2568 20.9054 19.0168 20.922C17.7868 21.022 16.5568 21.052 15.9018 19.787C15.2568 18.542 15.5568 16.572 17.0968 16.117C19.3668 15.447 20.8868 17.067 19.9468 19.412C19.9258 19.464 19.891 19.5092 19.846 19.5426C19.8011 19.5761 19.7478 19.5965 19.692 19.6017C19.6362 19.6069 19.5801 19.5966 19.5298 19.5719C19.4795 19.5473 19.4369 19.5093 19.4068 19.462ZM22.2807 15.8027C22.2808 15.7567 22.2718 15.7112 22.2543 15.6687C22.2368 15.6262 22.2111 15.5876 22.1786 15.555C22.1462 15.5225 22.1076 15.4966 22.0652 15.479C22.0228 15.4613 21.9773 15.4522 21.9313 15.4521L21.9013 15.452C21.8085 15.4519 21.7194 15.4886 21.6537 15.5541C21.5879 15.6196 21.5509 15.7086 21.5507 15.8014L21.5428 20.3214C21.5427 20.3674 21.5517 20.4129 21.5692 20.4554C21.5867 20.4979 21.6125 20.5365 21.6449 20.5691C21.6773 20.6016 21.7159 20.6275 21.7583 20.6451C21.8007 20.6628 21.8462 20.6719 21.8922 20.672L21.9222 20.672C22.015 20.6722 22.1041 20.6355 22.1699 20.57C22.2356 20.5045 22.2726 20.4155 22.2728 20.3227L22.2807 15.8027ZM39.6018 17.562L39.7718 17.407C39.8531 17.3318 39.9171 17.2396 39.9594 17.1369C40.0017 17.0342 40.0213 16.9233 40.0168 16.812C39.9418 15.082 37.9018 15.387 36.7318 15.457C36.6721 15.4609 36.6161 15.4873 36.5752 15.531C36.5343 15.5746 36.5116 15.6322 36.5118 15.692L36.5368 20.227C36.5368 20.4237 36.6351 20.542 36.8318 20.582C37.9851 20.8054 38.8801 20.747 39.5168 20.407C40.3268 19.9737 40.5151 19.3104 40.0818 18.417C40.0218 18.2904 39.9301 18.1904 39.8068 18.117L39.6468 18.017C39.4301 17.8837 39.4151 17.732 39.6018 17.562ZM71.5418 17.377L71.7268 17.302C72.1668 17.1287 72.1718 16.9437 71.7418 16.747C71.4751 16.6237 71.3084 16.427 71.2418 16.157C71.0918 15.5204 70.8951 15.5054 70.6518 16.112C70.5651 16.3387 70.4418 16.5404 70.2818 16.717C70.1418 16.8704 70.1334 17.032 70.2568 17.202L70.4518 17.472C70.5551 17.6087 70.6051 17.762 70.6018 17.932C70.5918 18.9987 70.6334 19.7087 70.7268 20.062C70.8668 20.5887 71.2518 20.772 71.8818 20.612C72.1318 20.5487 72.1668 20.4237 71.9868 20.237C71.8968 20.1437 71.7934 20.0804 71.6768 20.047C71.5787 20.02 71.4921 19.9615 71.4299 19.8803C71.3677 19.7992 71.3332 19.6998 71.3318 19.597L71.3018 17.737C71.2984 17.5604 71.3784 17.4404 71.5418 17.377ZM145.962 16.137C145.962 16.0124 145.912 15.8928 145.824 15.8047C145.736 15.7166 145.616 15.667 145.492 15.667C145.367 15.667 145.248 15.7166 145.159 15.8047C145.071 15.8928 145.022 16.0124 145.022 16.137C145.022 16.1988 145.034 16.2599 145.058 16.3169C145.081 16.3739 145.116 16.4257 145.159 16.4694C145.203 16.513 145.255 16.5476 145.312 16.5713C145.369 16.5949 145.43 16.607 145.492 16.607C145.553 16.607 145.615 16.5949 145.672 16.5713C145.729 16.5476 145.78 16.513 145.824 16.4694C145.868 16.4257 145.902 16.3739 145.926 16.3169C145.95 16.2599 145.962 16.1988 145.962 16.137ZM45.4018 16.827L45.2768 16.737C44.9968 16.537 44.8584 16.6104 44.8618 16.957L44.9118 20.527C44.9118 20.6137 44.9551 20.657 45.0418 20.657H45.2368C45.3934 20.6604 45.4751 20.5837 45.4818 20.427L45.6068 17.937C45.6134 17.757 45.6951 17.6237 45.8518 17.537C46.0851 17.4037 46.3368 17.3637 46.6068 17.417C46.7768 17.447 46.8768 17.377 46.9068 17.207C46.9301 17.0637 46.9101 16.927 46.8468 16.797C46.7434 16.587 46.5868 16.5354 46.3768 16.642L45.9318 16.867C45.7451 16.9604 45.5684 16.947 45.4018 16.827ZM26.0168 19.072L25.3518 16.937C25.2851 16.717 25.1401 16.637 24.9168 16.697L24.7618 16.742C24.7395 16.7475 24.7188 16.7578 24.7008 16.772C24.6829 16.7862 24.6682 16.8041 24.6578 16.8245C24.6473 16.8449 24.6414 16.8672 24.6404 16.8901C24.6393 16.913 24.6432 16.9358 24.6518 16.957L25.8868 20.422C25.952 20.6021 25.9459 20.8003 25.8698 20.9767C25.7936 21.1531 25.6532 21.2944 25.4768 21.372C25.3201 21.4387 25.1784 21.5287 25.0518 21.642C24.8418 21.8254 24.8734 21.9404 25.1468 21.987C26.0018 22.137 26.5368 21.127 26.7818 20.417C27.2118 19.1904 27.6051 18.0487 27.9618 16.992C28.0051 16.862 27.9601 16.7804 27.8268 16.747L27.6818 16.717C27.605 16.6995 27.5244 16.7113 27.4559 16.7501C27.3875 16.789 27.336 16.8521 27.3118 16.927L26.6368 19.072C26.4301 19.732 26.2234 19.732 26.0168 19.072ZM30.7118 17.892C30.7255 17.9475 30.7257 18.0054 30.7122 18.0609C30.6988 18.1165 30.6722 18.1681 30.6346 18.2116C30.597 18.2551 30.5495 18.2891 30.496 18.3109C30.4424 18.3327 30.3844 18.3417 30.3268 18.337C29.1201 18.2304 28.4084 18.6337 28.1918 19.547C28.1775 19.6088 28.1755 19.6724 28.1858 19.7342C28.1961 19.796 28.2185 19.8548 28.2518 19.907C28.7884 20.747 29.5251 20.9254 30.4618 20.442C30.5951 20.372 30.7301 20.372 30.8668 20.442L31.0068 20.512C31.2734 20.6487 31.4018 20.5687 31.3918 20.272C31.3468 18.922 32.0218 16.382 29.5768 16.702C28.9968 16.7787 28.6418 17.0504 28.5118 17.517C28.4518 17.7437 28.5318 17.817 28.7518 17.737C29.2268 17.562 29.5918 17.192 30.1368 17.327C30.4468 17.407 30.6384 17.5954 30.7118 17.892ZM43.3818 20.422C43.3984 20.4854 43.4318 20.537 43.4818 20.577C43.5146 20.6038 43.5542 20.621 43.5962 20.6267C43.6382 20.6324 43.681 20.6264 43.7198 20.6093C43.7586 20.5923 43.7919 20.5648 43.8161 20.53C43.8402 20.4952 43.8543 20.4544 43.8568 20.412C43.9034 19.6554 43.9418 18.8887 43.9718 18.112C44.0268 16.537 41.6118 16.187 41.1368 17.347C40.9434 17.8237 41.0668 17.9287 41.5068 17.662C41.8368 17.4587 42.1751 17.347 42.5218 17.327C42.9551 17.297 43.1984 17.482 43.2518 17.882C43.2984 18.222 43.1518 18.377 42.8118 18.347C41.5551 18.2337 40.8868 18.6554 40.8068 19.612C40.794 19.7795 40.8439 19.9453 40.9468 20.077C41.5268 20.8304 42.2601 20.9154 43.1468 20.332C43.2668 20.252 43.3451 20.282 43.3818 20.422ZM52.4868 18.927L54.6118 18.887C54.6573 18.8864 54.7022 18.8767 54.7439 18.8583C54.7856 18.84 54.8231 18.8135 54.8544 18.7804C54.8856 18.7473 54.9099 18.7083 54.9258 18.6656C54.9416 18.6229 54.9488 18.5775 54.9468 18.532C54.8918 17.312 54.0718 16.467 52.8368 16.717C51.0518 17.082 51.1018 20.387 52.9468 20.672C53.6968 20.7887 54.2401 20.5954 54.5768 20.092C54.8868 19.622 54.7818 19.497 54.2618 19.717C54.0218 19.817 53.7734 19.9104 53.5168 19.997C52.8501 20.2204 52.4234 19.972 52.2368 19.252C52.1834 19.0387 52.2668 18.9304 52.4868 18.927ZM56.7168 17.537L57.5568 17.302C57.6734 17.272 57.7318 17.1954 57.7318 17.072V16.917C57.7351 16.7604 57.6584 16.6854 57.5018 16.692C57.2718 16.702 57.0568 16.7537 56.8568 16.847C56.6768 16.9304 56.5001 16.9287 56.3268 16.842C56.1834 16.7687 56.0384 16.7537 55.8918 16.797C55.7618 16.8337 55.6984 16.9204 55.7018 17.057L55.7268 20.527C55.7301 20.6504 55.7918 20.702 55.9118 20.682L56.0568 20.657C56.134 20.6444 56.2046 20.6046 56.2565 20.5445C56.3084 20.4843 56.3385 20.4075 56.3418 20.327L56.3968 17.942C56.3999 17.8492 56.4326 17.7598 56.4902 17.687C56.5478 17.6141 56.6272 17.5615 56.7168 17.537ZM67.9754 20.747C68.4474 20.7462 68.8998 20.5289 69.2329 20.143C69.5661 19.757 69.7527 19.234 69.7518 18.6889C69.7513 18.4191 69.7048 18.1519 69.6149 17.9028C69.525 17.6536 69.3935 17.4273 69.2279 17.2367C69.0622 17.0462 68.8658 16.8952 68.6496 16.7923C68.4335 16.6894 68.2019 16.6366 67.9682 16.637C67.4961 16.6379 67.0437 16.8552 66.7106 17.2411C66.3774 17.6271 66.1908 18.1501 66.1918 18.6951C66.1922 18.965 66.2387 19.2322 66.3286 19.4813C66.4185 19.7305 66.55 19.9568 66.7156 20.1473C66.8813 20.3379 67.0778 20.4889 67.2939 20.5918C67.51 20.6947 67.7416 20.7475 67.9754 20.747ZM144.752 17.322C144.752 17.1987 144.703 17.0804 144.616 16.9932C144.528 16.906 144.41 16.857 144.287 16.857C144.163 16.857 144.045 16.906 143.958 16.9932C143.871 17.0804 143.822 17.1987 143.822 17.322C143.822 17.4454 143.871 17.5636 143.958 17.6508C144.045 17.7381 144.163 17.787 144.287 17.787C144.41 17.787 144.528 17.7381 144.616 17.6508C144.703 17.5636 144.752 17.4454 144.752 17.322ZM147.147 17.302C147.147 17.1747 147.096 17.0527 147.006 16.9626C146.916 16.8726 146.794 16.822 146.667 16.822C146.539 16.822 146.417 16.8726 146.327 16.9626C146.237 17.0527 146.187 17.1747 146.187 17.302C146.187 17.4293 146.237 17.5514 146.327 17.6415C146.417 17.7315 146.539 17.782 146.667 17.782C146.794 17.782 146.916 17.7315 147.006 17.6415C147.096 17.5514 147.147 17.4293 147.147 17.302ZM36.0317 21.2383C36.0316 21.1587 35.9998 21.0825 35.9435 21.0263C35.8871 20.9702 35.8108 20.9387 35.7312 20.9388L32.0412 20.9452C32.0018 20.9453 31.9628 20.9531 31.9264 20.9683C31.8901 20.9834 31.857 21.0056 31.8292 21.0335C31.8014 21.0614 31.7794 21.0945 31.7644 21.1309C31.7494 21.1674 31.7417 21.2064 31.7418 21.2458L31.7418 21.2758C31.742 21.3554 31.7737 21.4316 31.83 21.4877C31.8864 21.5439 31.9628 21.5754 32.0423 21.5752L35.7323 21.5688C35.7717 21.5688 35.8107 21.5609 35.8471 21.5458C35.8834 21.5307 35.9165 21.5085 35.9443 21.4806C35.9721 21.4527 35.9941 21.4196 36.0091 21.3831C36.0241 21.3467 36.0318 21.3077 36.0318 21.2683L36.0317 21.2383ZM61.6668 21.247C61.6668 21.1675 61.6351 21.0912 61.5789 21.0349C61.5226 20.9787 61.4463 20.947 61.3668 20.947H57.6768C57.5972 20.947 57.5209 20.9787 57.4646 21.0349C57.4084 21.0912 57.3768 21.1675 57.3768 21.247V21.277C57.3768 21.3566 57.4084 21.4329 57.4646 21.4892C57.5209 21.5454 57.5972 21.577 57.6768 21.577H61.3668C61.4463 21.577 61.5226 21.5454 61.5789 21.4892C61.6351 21.4329 61.6668 21.3566 61.6668 21.277V21.247Z" fill="#161618"/>
<path d="M15.9212 10.682C16.2078 10.7453 16.4745 10.722 16.7212 10.612C16.9212 10.522 17.0245 10.3653 17.0312 10.142L17.0962 8.09698C17.0975 8.07204 17.1069 8.04804 17.123 8.02832C17.1392 8.00861 17.1612 7.99416 17.1862 7.98698L17.3262 7.95198C17.4495 7.92198 17.5162 7.97031 17.5262 8.09698C17.5995 8.94364 17.6112 9.89864 17.5612 10.962C17.5512 11.1453 17.4578 11.212 17.2812 11.162C16.9212 11.0586 16.5545 11.0636 16.1812 11.177C16.04 11.2208 15.8904 11.2308 15.7446 11.2064C15.5988 11.1819 15.4608 11.1235 15.3417 11.036C15.2225 10.9484 15.1256 10.8342 15.0586 10.7023C14.9917 10.5705 14.9566 10.4248 14.9562 10.277L14.9512 8.07698C14.9512 7.98698 14.9962 7.94531 15.0862 7.95198L15.3012 7.96698C15.4078 7.97364 15.4612 8.03198 15.4612 8.14198L15.4912 10.157C15.4929 10.2795 15.5363 10.398 15.6144 10.4933C15.6924 10.5885 15.8005 10.655 15.9212 10.682Z" fill="#F1F0F2"/>
<path d="M18.9508 8.72167L18.9608 8.90167C18.9675 9.05167 19.0441 9.14834 19.1908 9.19167L20.1608 9.47167C20.3141 9.51648 20.4511 9.60482 20.5551 9.72596C20.6592 9.8471 20.7258 9.99584 20.747 10.1541C20.7682 10.3124 20.743 10.4734 20.6744 10.6177C20.6058 10.7619 20.4969 10.8831 20.3608 10.9667C19.6375 11.41 18.9658 11.3083 18.3458 10.6617C18.3142 10.6306 18.2951 10.5888 18.2923 10.5445C18.2896 10.5002 18.3033 10.4565 18.3308 10.4217L18.4508 10.2717C18.4941 10.215 18.5408 10.2133 18.5908 10.2667C19.0275 10.75 19.4758 10.855 19.9358 10.5817C20.2991 10.365 20.2908 10.1617 19.9108 9.97167C19.6208 9.82834 19.3158 9.71834 18.9958 9.64167C18.8475 9.6057 18.7123 9.52882 18.6056 9.4198C18.4989 9.31077 18.4249 9.17397 18.392 9.02497C18.3592 8.87597 18.3689 8.72074 18.4199 8.57696C18.471 8.43318 18.5614 8.30661 18.6808 8.21167C19.1075 7.875 19.5925 7.81667 20.1358 8.03667C20.4291 8.15334 20.5775 8.36834 20.5808 8.68167C20.5875 8.915 20.5075 8.95 20.3408 8.78667C20.0241 8.47334 19.6475 8.34667 19.2108 8.40667C19.1357 8.41664 19.0671 8.45466 19.0189 8.51309C18.9707 8.57152 18.9464 8.64604 18.9508 8.72167Z" fill="#F1F0F2"/>
<path d="M22.0865 9.75175C21.8932 9.75508 21.8182 9.85008 21.8615 10.0367C21.9015 10.2034 21.9799 10.3484 22.0965 10.4717C22.1761 10.5543 22.2734 10.6175 22.3809 10.6565C22.4883 10.6955 22.6032 10.7093 22.7165 10.6967C23.0132 10.6667 23.2965 10.5534 23.5665 10.3567C23.6699 10.2834 23.7532 10.3017 23.8165 10.4117L23.9165 10.5717C23.9265 10.5884 23.9232 10.6051 23.9065 10.6217C23.1865 11.3517 22.4732 11.4334 21.7665 10.8667C20.6415 9.96175 21.3915 7.51675 22.9915 7.94675C23.6182 8.11675 23.9599 8.59008 24.0165 9.36675C24.0332 9.60341 23.9249 9.72341 23.6915 9.72675L22.0865 9.75175ZM23.0365 9.29175C23.2499 9.37175 23.3715 9.26175 23.4015 8.96175C23.4088 8.87706 23.3895 8.79238 23.3464 8.71969C23.3034 8.647 23.2387 8.58999 23.1615 8.55675C22.5915 8.30675 22.1899 8.41008 21.9565 8.86675C21.8332 9.11341 21.9082 9.23841 22.1815 9.24175L22.8015 9.24675C22.8815 9.25008 22.9599 9.26508 23.0365 9.29175Z" fill="#F1F0F2"/>
<path d="M25.3711 8.98685L25.3411 10.9868C25.3411 11.0935 25.2877 11.1518 25.1811 11.1618L24.9711 11.1768C24.8844 11.1868 24.8411 11.1468 24.8411 11.0568L24.8311 8.30685C24.8311 8.03351 24.9627 7.93185 25.2261 8.00185C25.5361 8.08185 25.8444 8.06518 26.1511 7.95185C26.4444 7.84518 26.5377 7.93851 26.4311 8.23185C26.3477 8.45851 26.1777 8.55351 25.9211 8.51685C25.8536 8.50607 25.7846 8.51012 25.7188 8.52873C25.653 8.54734 25.5919 8.58006 25.5397 8.62467C25.4875 8.66929 25.4454 8.72474 25.4163 8.78724C25.3872 8.84974 25.3718 8.91782 25.3711 8.98685Z" fill="#F1F0F2"/>
<path d="M27.7358 8.62205C27.6158 9.42538 27.5742 10.2237 27.6108 11.017C27.6175 11.137 27.5608 11.192 27.4408 11.182L27.2008 11.157C27.1275 11.1504 27.0908 11.1104 27.0908 11.037L27.0958 8.19705C27.0958 7.93372 27.2142 7.85872 27.4508 7.97205C27.6675 8.07538 27.8975 8.09205 28.1408 8.02205C29.1075 7.73538 29.6208 8.11705 29.6808 9.16705C29.7175 9.83705 29.7092 10.447 29.6558 10.997C29.6458 11.1137 29.5825 11.167 29.4658 11.157L29.3158 11.137C29.2786 11.1345 29.2436 11.1178 29.2177 11.09C29.1918 11.0623 29.1769 11.0256 29.1758 10.987L29.1458 8.97205C29.1425 8.79872 29.0625 8.67372 28.9058 8.59705C28.6458 8.46372 28.3558 8.39038 28.0358 8.37705C27.8625 8.36705 27.7625 8.44872 27.7358 8.62205Z" fill="#F1F0F2"/>
<path d="M32.3616 8.8866C32.3549 8.84327 32.3449 8.8016 32.3316 8.7616C32.2783 8.58827 32.1616 8.48993 31.9816 8.4666C31.5783 8.41327 31.1799 8.5016 30.7866 8.7316C30.5133 8.8916 30.4483 8.8316 30.5916 8.5516C30.8649 8.01827 31.3483 7.81327 32.0416 7.9366C32.6149 8.03994 32.9049 8.38327 32.9116 8.9666L32.9366 10.9516C32.9399 11.1883 32.8366 11.2499 32.6266 11.1366L32.4866 11.0566C32.3566 10.9833 32.2233 10.9799 32.0866 11.0466C31.5499 11.3066 31.0666 11.2683 30.6366 10.9316C30.5055 10.8293 30.4068 10.6911 30.3526 10.5339C30.2984 10.3766 30.291 10.207 30.3312 10.0456C30.3714 9.88426 30.4576 9.73799 30.5792 9.62456C30.7009 9.51114 30.8528 9.43543 31.0166 9.4066L32.1216 9.2166C32.3083 9.1866 32.3883 9.0766 32.3616 8.8866ZM32.2816 10.2266C32.2816 10.1733 32.2916 10.1216 32.3116 10.0716C32.4083 9.82827 32.3266 9.70827 32.0666 9.7116C31.6566 9.7116 31.2816 9.8116 30.9416 10.0116C30.9126 10.0285 30.8872 10.0512 30.8672 10.0781C30.8471 10.1051 30.8326 10.1358 30.8247 10.1685C30.8167 10.2012 30.8155 10.2351 30.821 10.2683C30.8265 10.3015 30.8386 10.3332 30.8566 10.3616C31.0499 10.6749 31.3883 10.7933 31.8716 10.7166C32.1516 10.6733 32.2883 10.5099 32.2816 10.2266Z" fill="#F1F0F2"/>
<path d="M36.0012 8.29182C36.7812 7.57682 37.8912 7.83682 37.9462 8.99182C37.9795 9.62182 37.9878 10.2785 37.9712 10.9618C37.9678 11.0851 37.9045 11.1435 37.7812 11.1368L37.6012 11.1268C37.5547 11.1243 37.5109 11.1044 37.4785 11.071C37.446 11.0377 37.4274 10.9933 37.4262 10.9468L37.4112 8.99182C37.4112 8.67182 37.2528 8.48848 36.9362 8.44182C36.8662 8.43182 36.7962 8.43015 36.7262 8.43682C36.3028 8.47348 36.0895 8.70348 36.0862 9.12682L36.0762 10.9418C36.0728 11.0985 35.9928 11.1702 35.8362 11.1568L35.6962 11.1418C35.6431 11.138 35.5934 11.1137 35.5572 11.0738C35.521 11.0339 35.5009 10.9813 35.5012 10.9268L35.5262 8.93182C35.5277 8.81398 35.4839 8.70005 35.4039 8.61353C35.3239 8.52701 35.2138 8.47449 35.0962 8.46682L34.5712 8.42682C34.3645 8.41348 34.2578 8.51015 34.2512 8.71682L34.1462 10.9668C34.1428 11.1002 34.0728 11.1702 33.9362 11.1768L33.8012 11.1868C33.783 11.1875 33.7649 11.1845 33.748 11.178C33.731 11.1715 33.7155 11.1617 33.7025 11.1491C33.6894 11.1365 33.679 11.1214 33.6719 11.1047C33.6648 11.0879 33.6612 11.07 33.6612 11.0518L33.6212 8.30182C33.6178 8.08182 33.7245 7.98015 33.9412 7.99682C34.3412 8.02682 34.7462 8.01015 35.1562 7.94682C35.3295 7.92015 35.4895 7.96682 35.6362 8.08682C35.6728 8.11682 35.6962 8.15515 35.7062 8.20182C35.7528 8.39848 35.8512 8.42848 36.0012 8.29182Z" fill="#F1F0F2"/>
<path d="M39.2609 10.0669C39.4109 10.7069 40.1109 10.8869 40.6259 10.5519C40.7192 10.4919 40.8142 10.4352 40.9109 10.3819C41.1875 10.2185 41.2809 10.2919 41.1909 10.6019C41.1042 10.9085 40.9009 11.0885 40.5809 11.1419C38.0609 11.5619 37.9759 8.06188 40.0959 7.93688C40.6025 7.90688 40.9692 8.11854 41.1959 8.57188L41.4109 9.00187C41.6509 9.47854 41.5042 9.72354 40.9709 9.73688L39.4909 9.76688C39.2909 9.77021 39.2142 9.87021 39.2609 10.0669ZM39.7659 9.26688C39.9992 9.22688 40.2375 9.23354 40.4809 9.28688C40.8042 9.35688 40.9025 9.23854 40.7759 8.93187C40.5792 8.44854 40.2209 8.30188 39.7009 8.49188C39.5709 8.53854 39.4709 8.62188 39.4009 8.74188C39.1509 9.17854 39.2725 9.35354 39.7659 9.26688Z" fill="#F1F0F2"/>
<path d="M142.895 12.3052C142.895 12.4668 142.863 12.6267 142.8 12.7758C142.738 12.9249 142.648 13.0603 142.533 13.1743C142.419 13.2884 142.283 13.3787 142.134 13.4403C141.984 13.5018 141.824 13.5334 141.663 13.5331L140.273 13.5307C140.111 13.5304 139.951 13.4983 139.802 13.4362C139.653 13.3742 139.518 13.2833 139.404 13.1689C139.29 13.0545 139.199 12.9187 139.138 12.7694C139.076 12.6201 139.045 12.4601 139.045 12.2985L139.047 10.9285C139.048 10.767 139.08 10.6071 139.142 10.458C139.204 10.3089 139.295 10.1734 139.409 10.0594C139.524 9.94541 139.659 9.85504 139.809 9.79349C139.958 9.73194 140.118 9.7004 140.279 9.70069L141.669 9.70309C141.831 9.70337 141.991 9.73546 142.14 9.79754C142.289 9.85961 142.425 9.95045 142.539 10.0649C142.653 10.1793 142.743 10.315 142.805 10.4644C142.866 10.6137 142.898 10.7737 142.897 10.9352L142.895 12.3052ZM142.242 10.9641C142.242 10.8807 142.226 10.7981 142.194 10.721C142.163 10.644 142.116 10.5739 142.057 10.5148C141.998 10.4557 141.928 10.4088 141.851 10.3768C141.774 10.3447 141.692 10.3282 141.608 10.328L140.288 10.3257C140.205 10.3256 140.122 10.3419 140.045 10.3737C139.968 10.4054 139.898 10.4521 139.839 10.5109C139.78 10.5698 139.733 10.6397 139.701 10.7167C139.669 10.7937 139.652 10.8762 139.652 10.9596L139.65 12.2796C139.65 12.363 139.666 12.4456 139.698 12.5227C139.73 12.5998 139.776 12.6699 139.835 12.729C139.894 12.788 139.964 12.8349 140.041 12.867C140.118 12.899 140.2 12.9156 140.284 12.9157L141.604 12.918C141.687 12.9182 141.77 12.9019 141.847 12.8701C141.924 12.8383 141.994 12.7917 142.053 12.7328C142.112 12.674 142.159 12.604 142.191 12.5271C142.223 12.4501 142.24 12.3675 142.24 12.2841L142.242 10.9641Z" fill="#0AAFE1"/>
<path d="M147.401 12.327C147.401 12.6559 147.27 12.9713 147.038 13.2038C146.805 13.4364 146.49 13.567 146.161 13.567H144.781C144.618 13.567 144.457 13.5349 144.306 13.4726C144.156 13.4103 144.019 13.319 143.904 13.2038C143.789 13.0887 143.698 12.952 143.635 12.8015C143.573 12.6511 143.541 12.4899 143.541 12.327V10.927C143.541 10.7642 143.573 10.6029 143.635 10.4525C143.698 10.302 143.789 10.1653 143.904 10.0502C144.019 9.93505 144.156 9.84372 144.306 9.7814C144.457 9.71908 144.618 9.68701 144.781 9.68701H146.161C146.49 9.68701 146.805 9.81765 147.038 10.0502C147.27 10.2827 147.401 10.5981 147.401 10.927V12.327ZM146.74 10.9498C146.74 10.784 146.673 10.6252 146.556 10.5082C146.439 10.3912 146.28 10.3256 146.114 10.3259L144.784 10.3282C144.702 10.3283 144.62 10.3446 144.545 10.3761C144.469 10.4077 144.4 10.4538 144.342 10.512C144.284 10.5701 144.238 10.6391 144.207 10.715C144.176 10.7909 144.16 10.8722 144.16 10.9543L144.162 12.3043C144.163 12.47 144.229 12.6289 144.346 12.7459C144.463 12.8629 144.623 12.9284 144.788 12.9282L146.118 12.9259C146.2 12.9257 146.282 12.9094 146.357 12.8779C146.433 12.8463 146.502 12.8002 146.56 12.742C146.618 12.6839 146.664 12.6149 146.695 12.539C146.726 12.4631 146.742 12.3818 146.742 12.2998L146.74 10.9498Z" fill="#0AAFE1"/>
<path d="M142.9 16.8384C142.898 17.0078 142.864 17.1752 142.797 17.3312C142.731 17.4871 142.635 17.6285 142.514 17.7472C142.393 17.866 142.25 17.9598 142.093 18.0232C141.936 18.0867 141.768 18.1186 141.599 18.1171L140.319 18.1059C139.977 18.1029 139.65 17.9642 139.41 17.7201C139.17 17.4761 139.037 17.1468 139.04 16.8047L139.052 15.4648C139.053 15.2954 139.088 15.1279 139.154 14.972C139.22 14.816 139.317 14.6747 139.438 14.5559C139.558 14.4372 139.701 14.3434 139.858 14.28C140.016 14.2165 140.184 14.1846 140.353 14.1861L141.633 14.1972C141.975 14.2002 142.302 14.339 142.542 14.583C142.782 14.827 142.915 15.1563 142.912 15.4984L142.9 16.8384ZM142.273 15.5211C142.273 15.4292 142.256 15.3381 142.221 15.2531C142.186 15.168 142.134 15.0907 142.07 15.0254C142.005 14.9602 141.928 14.9084 141.843 14.8729C141.758 14.8374 141.667 14.819 141.575 14.8187L140.365 14.8145C140.274 14.8142 140.182 14.8319 140.097 14.8668C140.012 14.9017 139.935 14.953 139.87 15.0178C139.805 15.0825 139.753 15.1595 139.717 15.2443C139.682 15.3291 139.663 15.4201 139.663 15.512L139.659 16.762C139.658 16.854 139.676 16.945 139.711 17.0301C139.746 17.1152 139.797 17.1925 139.862 17.2577C139.927 17.323 140.004 17.3748 140.089 17.4103C140.173 17.4457 140.264 17.4642 140.356 17.4645L141.566 17.4687C141.658 17.469 141.749 17.4512 141.834 17.4163C141.919 17.3815 141.997 17.3302 142.062 17.2654C142.127 17.2006 142.179 17.1236 142.214 17.0388C142.25 16.954 142.268 16.8631 142.269 16.7711L142.273 15.5211Z" fill="#0AAFE1"/>
<path d="M143.895 15.1882C144.032 15.4278 144.316 15.5231 144.53 15.4009C144.743 15.2788 144.805 14.9855 144.667 14.7459C144.53 14.5063 144.246 14.411 144.033 14.5332C143.82 14.6553 143.758 14.9486 143.895 15.1882Z" fill="#0AAFE1"/>
<path d="M146.667 15.4468C146.932 15.4468 147.147 15.2319 147.147 14.9668C147.147 14.7017 146.932 14.4868 146.667 14.4868C146.401 14.4868 146.187 14.7017 146.187 14.9668C146.187 15.2319 146.401 15.4468 146.667 15.4468Z" fill="#0AAFE1"/>
<path d="M23.582 15.2168L23.542 15.217C23.357 15.218 23.2078 15.3687 23.2088 15.5537L23.2338 20.3237C23.2347 20.5087 23.3855 20.6579 23.5705 20.6569L23.6105 20.6567C23.7955 20.6557 23.9447 20.505 23.9438 20.32L23.9188 15.55C23.9178 15.365 23.767 15.2158 23.582 15.2168Z" fill="#0AAFE1"/>
<path d="M48.0507 20.4316C47.9974 20.5483 47.909 20.6083 47.7857 20.6116C47.5757 20.6216 47.4707 20.5216 47.4707 20.3116V15.5416C47.4705 15.4664 47.4989 15.3937 47.5506 15.3374C47.6023 15.2811 47.6735 15.2452 47.7507 15.2366L47.8857 15.2266C47.9135 15.2231 47.9418 15.2257 47.9686 15.2341C47.9955 15.2425 48.0203 15.2566 48.0415 15.2754C48.0627 15.2943 48.0798 15.3175 48.0918 15.3435C48.1037 15.3696 48.1101 15.3979 48.1107 15.4266L48.1507 16.7266C48.1574 17.0066 48.2857 17.0833 48.5357 16.9566L48.8257 16.8066C48.9766 16.728 49.1437 16.6901 49.3107 16.6966C52.2607 16.8216 50.8607 22.2416 48.4307 20.3366C48.264 20.2066 48.1374 20.2383 48.0507 20.4316ZM50.2266 18.2276C50.2256 18.1087 50.2011 17.9913 50.1547 17.8819C50.1083 17.7725 50.0407 17.6733 49.956 17.59C49.8712 17.5067 49.7709 17.4409 49.6607 17.3963C49.5505 17.3518 49.4326 17.3294 49.3138 17.3305L49.0438 17.3329C48.8037 17.335 48.5744 17.4323 48.4062 17.6035C48.238 17.7747 48.1446 18.0057 48.1467 18.2457L48.1548 19.1757C48.1558 19.2945 48.1803 19.412 48.2267 19.5214C48.2731 19.6308 48.3407 19.73 48.4254 19.8133C48.5102 19.8966 48.6105 19.9624 48.7207 20.0069C48.8309 20.0514 48.9488 20.0738 49.0677 20.0728L49.3377 20.0704C49.5777 20.0683 49.807 19.9709 49.9752 19.7997C50.1435 19.6285 50.2368 19.3975 50.2347 19.1575L50.2266 18.2276Z" fill="#0AAFE1"/>
<path d="M63.0807 17.0918C63.4841 16.7484 63.9491 16.6434 64.4757 16.7768C66.5607 17.3068 65.6907 21.9768 63.1357 20.3568C63.0024 20.2734 62.8807 20.2884 62.7707 20.4018C62.7007 20.4718 62.6224 20.5284 62.5358 20.5718C62.4964 20.5912 62.4527 20.6003 62.4088 20.5983C62.3649 20.5963 62.3222 20.5832 62.2848 20.5602C62.2473 20.5372 62.2163 20.5052 62.1946 20.467C62.1729 20.4288 62.1613 20.3857 62.1608 20.3418L62.1357 15.5768C62.1352 15.4852 62.1687 15.3967 62.2296 15.3283C62.2906 15.26 62.3747 15.2167 62.4658 15.2068L62.6207 15.1918C62.7274 15.1818 62.7807 15.2284 62.7807 15.3318L62.8058 16.9668C62.8091 17.2001 62.9007 17.2418 63.0807 17.0918ZM64.96 18.2799C64.9598 18.1538 64.9348 18.029 64.8863 17.9126C64.8379 17.7962 64.767 17.6905 64.6777 17.6015C64.5884 17.5125 64.4824 17.442 64.3659 17.394C64.2493 17.3459 64.1244 17.3213 63.9983 17.3216L63.7383 17.322C63.4837 17.3225 63.2398 17.424 63.06 17.6044C62.8803 17.7847 62.7796 18.0291 62.78 18.2837L62.7814 19.1037C62.7817 19.2297 62.8067 19.3545 62.8552 19.4709C62.9036 19.5873 62.9745 19.693 63.0638 19.782C63.1531 19.871 63.2591 19.9415 63.3756 19.9895C63.4922 20.0376 63.6171 20.0622 63.7431 20.062L64.0031 20.0615C64.2577 20.0611 64.5017 19.9595 64.6815 19.7791C64.8612 19.5988 64.9619 19.3545 64.9615 19.0999L64.96 18.2799Z" fill="#0AAFE1"/>
<path d="M19.4061 19.4619C19.4362 19.5091 19.4788 19.5471 19.5291 19.5718C19.5794 19.5964 19.6355 19.6067 19.6913 19.6016C19.7471 19.5964 19.8004 19.576 19.8453 19.5425C19.8903 19.509 19.9251 19.4639 19.9461 19.4119C20.8861 17.0669 19.3661 15.4469 17.0961 16.1169C15.5561 16.5719 15.2561 18.5419 15.9011 19.7869C16.5561 21.0519 17.7861 21.0219 19.0161 20.9219C19.2561 20.9052 19.3094 20.9952 19.1761 21.1919C19.1161 21.2786 19.0361 21.3319 18.9361 21.3519C16.2611 21.8669 14.4161 20.0519 15.1411 17.4719C16.0361 14.2719 21.3661 15.0219 20.7811 18.6619C20.6761 19.2919 20.1011 20.2169 19.3361 20.0169C19.1828 19.9769 19.0461 19.9036 18.9261 19.7969C18.7928 19.6702 18.6478 19.6536 18.4911 19.7469C16.7511 20.7569 15.9061 18.4769 16.9561 17.2919C17.0828 17.1486 17.2444 17.0652 17.4411 17.0419C17.8778 16.9952 18.3278 17.0269 18.7911 17.1369C18.8731 17.1554 18.9504 17.1904 19.0185 17.2398C19.0867 17.2892 19.1441 17.3519 19.1875 17.4242C19.231 17.4966 19.2594 17.5771 19.2712 17.6608C19.2829 17.7446 19.2778 17.83 19.2561 17.9119C19.0894 18.5386 19.1394 19.0552 19.4061 19.4619ZM17.8811 19.4364C17.9782 19.4334 18.0736 19.4057 18.1619 19.3549C18.2501 19.3041 18.3294 19.2312 18.3953 19.1404C18.4612 19.0496 18.5124 18.9427 18.5459 18.8257C18.5794 18.7087 18.5947 18.584 18.5907 18.4586C18.5868 18.3333 18.5638 18.2098 18.523 18.0951C18.4821 17.9805 18.4244 17.877 18.3529 17.7905C18.2814 17.704 18.1977 17.6363 18.1064 17.5911C18.0152 17.546 17.9182 17.5243 17.8211 17.5273C17.724 17.5304 17.6285 17.5581 17.5403 17.6089C17.4521 17.6597 17.3728 17.7326 17.3069 17.8234C17.241 17.9142 17.1898 18.0211 17.1563 18.1381C17.1227 18.2551 17.1075 18.3798 17.1114 18.5051C17.1154 18.6305 17.1384 18.754 17.1792 18.8687C17.22 18.9833 17.2778 19.0868 17.3493 19.1733C17.4208 19.2598 17.5045 19.3275 17.5957 19.3727C17.687 19.4178 17.784 19.4395 17.8811 19.4364Z" fill="#0AAFE1"/>
<path d="M21.9308 15.4518L21.9008 15.4518C21.7075 15.4514 21.5505 15.6079 21.5502 15.8012L21.5423 20.3212C21.5419 20.5145 21.6984 20.6714 21.8917 20.6718L21.9217 20.6718C22.115 20.6722 22.2719 20.5157 22.2723 20.3224L22.2802 15.8024C22.2805 15.6091 22.1241 15.4522 21.9308 15.4518Z" fill="#0AAFE1"/>
<path d="M39.6457 18.0168L39.8057 18.1168C39.9291 18.1902 40.0207 18.2902 40.0807 18.4168C40.5141 19.3102 40.3257 19.9735 39.5157 20.4068C38.8791 20.7468 37.9841 20.8052 36.8307 20.5818C36.6341 20.5418 36.5357 20.4235 36.5357 20.2268L36.5107 15.6918C36.5106 15.632 36.5333 15.5744 36.5742 15.5308C36.6151 15.4871 36.6711 15.4607 36.7307 15.4568C37.9007 15.3868 39.9407 15.0818 40.0157 16.8118C40.0203 16.9231 40.0007 17.0339 39.9584 17.1367C39.9161 17.2394 39.8521 17.3316 39.7707 17.4068L39.6007 17.5618C39.4141 17.7318 39.4291 17.8835 39.6457 18.0168ZM39.2783 16.4942C39.2791 16.3855 39.2366 16.2809 39.1602 16.2035C39.0839 16.1261 38.9799 16.0822 38.8712 16.0814L37.5712 16.0723C37.4625 16.0716 37.3579 16.114 37.2805 16.1904C37.203 16.2667 37.1591 16.3707 37.1583 16.4794L37.1532 17.2194C37.1524 17.3282 37.1949 17.4327 37.2712 17.5102C37.3476 17.5876 37.4516 17.6315 37.5603 17.6323L38.8603 17.6413C38.969 17.6421 39.0736 17.5996 39.151 17.5233C39.2285 17.4469 39.2724 17.343 39.2731 17.2342L39.2783 16.4942ZM37.1907 18.4668L37.1607 19.7868C37.1601 19.8203 37.166 19.8536 37.1782 19.8848C37.1904 19.916 37.2087 19.9445 37.2319 19.9686C37.2551 19.9928 37.2828 20.0121 37.3135 20.0255C37.3442 20.0389 37.3773 20.0462 37.4107 20.0468L38.4957 20.0718C38.6311 20.0746 38.7655 20.0562 38.8912 20.0177C39.017 19.9792 39.1317 19.9214 39.2288 19.8475C39.3258 19.7737 39.4033 19.6853 39.4569 19.5874C39.5104 19.4894 39.5389 19.3839 39.5407 19.2768L39.5457 19.0768C39.5496 18.8614 39.4455 18.6527 39.2562 18.4962C39.067 18.3397 38.8079 18.2483 38.5357 18.2418L37.4507 18.2168C37.4173 18.2162 37.384 18.2221 37.3528 18.2343C37.3216 18.2465 37.2931 18.2648 37.269 18.288C37.2448 18.3112 37.2255 18.3389 37.2121 18.3696C37.1986 18.4003 37.1914 18.4333 37.1907 18.4668Z" fill="#0AAFE1"/>
<path d="M71.3016 17.737L71.3316 19.597C71.333 19.6997 71.3675 19.7992 71.4297 19.8803C71.4919 19.9614 71.5785 20.0199 71.6766 20.047C71.7932 20.0803 71.8966 20.1437 71.9866 20.237C72.1666 20.4237 72.1316 20.5487 71.8816 20.612C71.2516 20.772 70.8666 20.5887 70.7266 20.062C70.6332 19.7087 70.5916 18.9987 70.6016 17.932C70.6049 17.762 70.5549 17.6087 70.4516 17.472L70.2566 17.202C70.1332 17.032 70.1416 16.8703 70.2816 16.717C70.4416 16.5403 70.5649 16.3387 70.6516 16.112C70.8949 15.5053 71.0916 15.5203 71.2416 16.157C71.3082 16.427 71.4749 16.6237 71.7416 16.747C72.1716 16.9437 72.1666 17.1287 71.7266 17.302L71.5416 17.377C71.3782 17.4403 71.2982 17.5603 71.3016 17.737Z" fill="#0AAFE1"/>
<path d="M145.491 16.607C145.751 16.607 145.961 16.3966 145.961 16.137C145.961 15.8774 145.751 15.667 145.491 15.667C145.232 15.667 145.021 15.8774 145.021 16.137C145.021 16.3966 145.232 16.607 145.491 16.607Z" fill="#0AAFE1"/>
<path d="M45.9314 16.8668L46.3764 16.6418C46.5864 16.5351 46.7431 16.5868 46.8464 16.7968C46.9097 16.9268 46.9297 17.0635 46.9064 17.2068C46.8764 17.3768 46.7764 17.4468 46.6064 17.4168C46.3364 17.3635 46.0847 17.4035 45.8514 17.5368C45.6947 17.6235 45.6131 17.7568 45.6064 17.9368L45.4814 20.4268C45.4747 20.5835 45.3931 20.6601 45.2364 20.6568H45.0414C44.9547 20.6568 44.9114 20.6135 44.9114 20.5268L44.8614 16.9568C44.8581 16.6101 44.9964 16.5368 45.2764 16.7368L45.4014 16.8268C45.5681 16.9468 45.7447 16.9601 45.9314 16.8668Z" fill="#0AAFE1"/>
<path d="M26.0162 19.072C26.2229 19.732 26.4295 19.732 26.6362 19.072L27.3112 16.927C27.3355 16.8521 27.3869 16.789 27.4554 16.7501C27.5239 16.7112 27.6044 16.6994 27.6812 16.717L27.8262 16.747C27.9595 16.7804 28.0045 16.862 27.9612 16.992C27.6045 18.0487 27.2112 19.1904 26.7812 20.417C26.5362 21.127 26.0012 22.137 25.1462 21.987C24.8729 21.9404 24.8412 21.8254 25.0512 21.642C25.1779 21.5287 25.3195 21.4387 25.4762 21.372C25.6526 21.2944 25.7931 21.1531 25.8692 20.9767C25.9453 20.8003 25.9514 20.602 25.8862 20.422L24.6512 16.957C24.6427 16.9358 24.6388 16.913 24.6398 16.8901C24.6408 16.8672 24.6468 16.8448 24.6572 16.8245C24.6676 16.8041 24.6823 16.7862 24.7003 16.7719C24.7182 16.7577 24.739 16.7475 24.7612 16.742L24.9162 16.697C25.1395 16.637 25.2845 16.717 25.3512 16.937L26.0162 19.072Z" fill="#0AAFE1"/>
<path d="M30.7111 17.8919C30.6378 17.5953 30.4461 17.4069 30.1361 17.3269C29.5911 17.1919 29.2261 17.5619 28.7511 17.7369C28.5311 17.8169 28.4511 17.7436 28.5111 17.5169C28.6411 17.0503 28.9961 16.7786 29.5761 16.7019C32.0211 16.3819 31.3461 18.9219 31.3911 20.2719C31.4011 20.5686 31.2728 20.6486 31.0061 20.5119L30.8661 20.4419C30.7295 20.3719 30.5945 20.3719 30.4611 20.4419C29.5245 20.9253 28.7878 20.7469 28.2511 19.9069C28.2179 19.8546 28.1955 19.7959 28.1852 19.7341C28.1749 19.6723 28.1769 19.6087 28.1911 19.5469C28.4078 18.6336 29.1195 18.2303 30.3261 18.3369C30.3838 18.3416 30.4418 18.3326 30.4953 18.3108C30.5488 18.289 30.5964 18.255 30.634 18.2115C30.6716 18.168 30.6982 18.1164 30.7116 18.0608C30.725 18.0052 30.7249 17.9474 30.7111 17.8919ZM30.7137 19.2155C30.6717 19.062 30.5384 18.9402 30.3432 18.877C30.148 18.8137 29.9069 18.8141 29.6728 18.8782C29.5569 18.9099 29.4462 18.9562 29.3471 19.0146C29.248 19.073 29.1624 19.1423 29.0951 19.2184C29.0279 19.2946 28.9803 19.3762 28.9552 19.4585C28.93 19.5409 28.9278 19.6224 28.9486 19.6984C28.9906 19.8519 29.1238 19.9736 29.319 20.0369C29.5142 20.1001 29.7554 20.0997 29.9894 20.0357C30.1053 20.004 30.216 19.9576 30.3151 19.8992C30.4143 19.8408 30.4999 19.7716 30.5671 19.6954C30.6344 19.6193 30.6819 19.5377 30.7071 19.4553C30.7322 19.373 30.7345 19.2915 30.7137 19.2155Z" fill="#0AAFE1"/>
<path d="M43.1466 20.3316C42.26 20.9149 41.5266 20.8299 40.9466 20.0766C40.8438 19.9449 40.7939 19.779 40.8066 19.6116C40.8866 18.6549 41.555 18.2332 42.8116 18.3466C43.1516 18.3766 43.2983 18.2216 43.2516 17.8816C43.1983 17.4816 42.955 17.2966 42.5216 17.3266C42.175 17.3466 41.8366 17.4582 41.5066 17.6616C41.0666 17.9282 40.9433 17.8232 41.1366 17.3466C41.6116 16.1866 44.0266 16.5366 43.9716 18.1116C43.9416 18.8882 43.9033 19.6549 43.8566 20.4116C43.8542 20.4539 43.8401 20.4947 43.8159 20.5295C43.7918 20.5643 43.7584 20.5918 43.7197 20.6089C43.6809 20.6259 43.6381 20.632 43.5961 20.6263C43.5541 20.6206 43.5145 20.6034 43.4816 20.5766C43.4316 20.5366 43.3983 20.4849 43.3816 20.4216C43.345 20.2816 43.2666 20.2516 43.1466 20.3316ZM43.3049 19.1615C43.2801 19.0853 43.2321 19.0175 43.1636 18.9619C43.0951 18.9064 43.0074 18.8641 42.9056 18.8377C42.8037 18.8112 42.6897 18.801 42.5701 18.8077C42.4504 18.8143 42.3274 18.8377 42.2081 18.8764C41.9673 18.9547 41.7561 19.0909 41.6211 19.255C41.4861 19.4192 41.4384 19.5978 41.4884 19.7517C41.5131 19.8279 41.5611 19.8957 41.6297 19.9512C41.6982 20.0068 41.7859 20.049 41.8877 20.0755C41.9895 20.1019 42.1035 20.1121 42.2232 20.1055C42.3429 20.0988 42.4659 20.0755 42.5851 20.0367C42.826 19.9585 43.0372 19.8223 43.1722 19.6581C43.3071 19.494 43.3549 19.3153 43.3049 19.1615Z" fill="#0AAFE1"/>
<path d="M52.4862 18.9268C52.2662 18.9301 52.1829 19.0385 52.2362 19.2518C52.4229 19.9718 52.8495 20.2201 53.5162 19.9968C53.7729 19.9101 54.0212 19.8168 54.2612 19.7168C54.7812 19.4968 54.8862 19.6218 54.5762 20.0918C54.2395 20.5951 53.6962 20.7885 52.9462 20.6718C51.1012 20.3868 51.0512 17.0818 52.8362 16.7168C54.0712 16.4668 54.8912 17.3118 54.9462 18.5318C54.9482 18.5773 54.9411 18.6227 54.9252 18.6654C54.9093 18.708 54.8851 18.7471 54.8538 18.7802C54.8226 18.8133 54.785 18.8398 54.7433 18.8581C54.7017 18.8764 54.6567 18.8862 54.6112 18.8868L52.4862 18.9268ZM52.3712 18.3418L54.0912 18.2918C54.1043 18.2912 54.1172 18.2879 54.1291 18.2823C54.141 18.2767 54.1517 18.2688 54.1605 18.259C54.1693 18.2493 54.1761 18.2379 54.1805 18.2255C54.185 18.2131 54.1869 18.1999 54.1862 18.1868V18.1468C54.1787 17.9246 54.0787 17.7146 53.9081 17.5628C53.7375 17.411 53.5103 17.3297 53.2762 17.3368H53.1262C53.0096 17.3402 52.8949 17.3654 52.7885 17.4111C52.6821 17.4567 52.5861 17.5218 52.5062 17.6026C52.4263 17.6835 52.364 17.7785 52.3228 17.8822C52.2816 17.9858 52.2624 18.0962 52.2662 18.2068V18.2468C52.2668 18.2599 52.2701 18.2728 52.2757 18.2847C52.2813 18.2966 52.2892 18.3073 52.299 18.3161C52.3087 18.3249 52.3202 18.3317 52.3325 18.3361C52.3449 18.3405 52.3581 18.3425 52.3712 18.3418Z" fill="#0AAFE1"/>
<path d="M56.3963 17.9418L56.3413 20.3268C56.3381 20.4073 56.308 20.4841 56.2561 20.5442C56.2041 20.6044 56.1336 20.6441 56.0563 20.6568L55.9113 20.6818C55.7913 20.7018 55.7296 20.6501 55.7263 20.5268L55.7013 17.0568C55.698 16.9201 55.7613 16.8335 55.8913 16.7968C56.038 16.7535 56.183 16.7685 56.3263 16.8418C56.4996 16.9285 56.6763 16.9301 56.8563 16.8468C57.0563 16.7535 57.2713 16.7018 57.5013 16.6918C57.658 16.6851 57.7346 16.7601 57.7313 16.9168V17.0718C57.7313 17.1951 57.673 17.2718 57.5563 17.3018L56.7163 17.5368C56.6267 17.5613 56.5473 17.6138 56.4897 17.6867C56.4322 17.7596 56.3994 17.849 56.3963 17.9418Z" fill="#0AAFE1"/>
<path d="M67.975 20.7467C67.7413 20.7471 67.5097 20.6944 67.2936 20.5915C67.0774 20.4886 66.8809 20.3376 66.7153 20.147C66.5497 19.9565 66.4182 19.7302 66.3283 19.481C66.2384 19.2318 66.1919 18.9647 66.1914 18.6948C66.1905 18.1498 66.3771 17.6268 66.7102 17.2408C67.0434 16.8548 67.4957 16.6375 67.9678 16.6367C68.2016 16.6363 68.4331 16.6891 68.6493 16.792C68.8654 16.8949 69.0619 17.0459 69.2275 17.2364C69.3932 17.427 69.5247 17.6533 69.6146 17.9024C69.7044 18.1516 69.7509 18.4188 69.7514 18.6886C69.7524 19.2336 69.5657 19.7567 69.2326 20.1426C68.8995 20.5286 68.4471 20.7459 67.975 20.7467ZM69.0222 18.2586C69.0224 18.1371 68.9987 18.0168 68.9524 17.9044C68.9061 17.7921 68.8382 17.69 68.7524 17.604C68.6667 17.5179 68.5648 17.4496 68.4527 17.4029C68.3405 17.3563 68.2203 17.3321 68.0988 17.3319L67.8488 17.3315C67.6035 17.3311 67.3681 17.4281 67.1943 17.6013C67.0205 17.7745 66.9227 18.0096 66.9222 18.2549L66.9206 19.1449C66.9204 19.2663 66.9441 19.3867 66.9904 19.499C67.0367 19.6113 67.1046 19.7134 67.1904 19.7994C67.2761 19.8855 67.378 19.9538 67.4901 20.0005C67.6023 20.0472 67.7225 20.0713 67.844 20.0715L68.094 20.0719C68.3393 20.0723 68.5748 19.9753 68.7485 19.8021C68.9223 19.629 69.0202 19.3939 69.0206 19.1486L69.0222 18.2586Z" fill="#0AAFE1"/>
<path d="M144.286 17.7869C144.543 17.7869 144.751 17.5787 144.751 17.3219C144.751 17.0651 144.543 16.8569 144.286 16.8569C144.029 16.8569 143.821 17.0651 143.821 17.3219C143.821 17.5787 144.029 17.7869 144.286 17.7869Z" fill="#0AAFE1"/>
<path d="M146.667 17.7818C146.932 17.7818 147.147 17.5669 147.147 17.3018C147.147 17.0367 146.932 16.8218 146.667 16.8218C146.401 16.8218 146.187 17.0367 146.187 17.3018C146.187 17.5669 146.401 17.7818 146.667 17.7818Z" fill="#0AAFE1"/>
<path d="M35.7302 20.9388L32.0402 20.9453C31.8745 20.9456 31.7405 21.0801 31.7408 21.2458L31.7408 21.2758C31.7411 21.4415 31.8756 21.5756 32.0413 21.5753L35.7313 21.5688C35.897 21.5685 36.0311 21.434 36.0308 21.2683L36.0308 21.2383C36.0305 21.0726 35.8959 20.9385 35.7302 20.9388Z" fill="#0AAFE1"/>
<path d="M61.366 20.9468H57.676C57.5103 20.9468 57.376 21.0811 57.376 21.2468V21.2768C57.376 21.4425 57.5103 21.5768 57.676 21.5768H61.366C61.5317 21.5768 61.666 21.4425 61.666 21.2768V21.2468C61.666 21.0811 61.5317 20.9468 61.366 20.9468Z" fill="#0AAFE1"/>
<path d="M22.8019 9.24698L22.1819 9.24198C21.9086 9.23865 21.8336 9.11365 21.9569 8.86698C22.1903 8.41032 22.5919 8.30698 23.1619 8.55698C23.2391 8.59023 23.3038 8.64723 23.3468 8.71992C23.3899 8.79261 23.4092 8.8773 23.4019 8.96198C23.3719 9.26198 23.2503 9.37198 23.0369 9.29198C22.9603 9.26531 22.8819 9.25032 22.8019 9.24698Z" fill="#161618"/>
<path d="M39.7665 9.26704C39.2732 9.35371 39.1515 9.17871 39.4015 8.74204C39.4715 8.62204 39.5715 8.53871 39.7015 8.49204C40.2215 8.30204 40.5798 8.44871 40.7765 8.93204C40.9032 9.23871 40.8048 9.35704 40.4815 9.28704C40.2382 9.23371 39.9998 9.22704 39.7665 9.26704Z" fill="#161618"/>
<path d="M32.2814 10.227C32.288 10.5103 32.1514 10.6736 31.8714 10.717C31.388 10.7936 31.0497 10.6753 30.8564 10.362C30.8383 10.3336 30.8262 10.3019 30.8207 10.2687C30.8152 10.2355 30.8165 10.2016 30.8244 10.1689C30.8324 10.1362 30.8468 10.1055 30.8669 10.0785C30.887 10.0516 30.9123 10.0289 30.9414 10.012C31.2814 9.81198 31.6564 9.71198 32.0664 9.71198C32.3264 9.70865 32.408 9.82865 32.3114 10.072C32.2914 10.122 32.2814 10.1736 32.2814 10.227Z" fill="#161618"/>
<path d="M141.609 10.3281L140.289 10.3258C139.939 10.3252 139.654 10.609 139.653 10.9597L139.651 12.2797C139.65 12.6304 139.934 12.9152 140.285 12.9158L141.605 12.9181C141.955 12.9187 142.24 12.6349 142.241 12.2842L142.243 10.9642C142.244 10.6135 141.96 10.3287 141.609 10.3281Z" fill="#161618"/>
<path d="M146.114 10.3257L144.784 10.328C144.439 10.3286 144.16 10.6089 144.16 10.9541L144.163 12.3041C144.163 12.6493 144.444 12.9286 144.789 12.928L146.119 12.9257C146.464 12.9251 146.743 12.6448 146.743 12.2996L146.74 10.9496C146.74 10.6044 146.459 10.3251 146.114 10.3257Z" fill="#161618"/>
<path d="M141.576 14.8192L140.366 14.8149C139.979 14.8136 139.665 15.1259 139.664 15.5125L139.659 16.7625C139.658 17.1491 139.97 17.4636 140.357 17.4649L141.567 17.4692C141.953 17.4705 142.268 17.1582 142.269 16.7716L142.274 15.5216C142.275 15.135 141.963 14.8205 141.576 14.8192Z" fill="#161618"/>
<path d="M38.8721 16.0818L37.5721 16.0727C37.3457 16.0711 37.1608 16.2534 37.1592 16.4798L37.1541 17.2198C37.1525 17.4462 37.3348 17.6311 37.5612 17.6326L38.8612 17.6417C39.0876 17.6433 39.2724 17.461 39.274 17.2346L39.2792 16.4946C39.2808 16.2682 39.0985 16.0833 38.8721 16.0818Z" fill="#161618"/>
<path d="M49.3146 17.3311L49.0446 17.3334C48.5448 17.3378 48.1432 17.7465 48.1475 18.2463L48.1557 19.1762C48.16 19.676 48.5687 20.0777 49.0685 20.0733L49.3385 20.071C49.8383 20.0666 50.2399 19.6579 50.2356 19.1581L50.2275 18.2281C50.2231 17.7283 49.8144 17.3267 49.3146 17.3311Z" fill="#161618"/>
<path d="M52.3721 18.3419C52.3589 18.3425 52.3458 18.3406 52.3334 18.3362C52.321 18.3318 52.3096 18.325 52.2999 18.3161C52.2901 18.3073 52.2822 18.2967 52.2766 18.2848C52.2709 18.2729 52.2677 18.26 52.2671 18.2469V18.2069C52.2632 18.0962 52.2825 17.9859 52.3236 17.8822C52.3648 17.7785 52.4272 17.6835 52.5071 17.6027C52.587 17.5218 52.6829 17.4567 52.7893 17.4111C52.8957 17.3655 53.0105 17.3403 53.1271 17.3369H53.2771C53.5112 17.3298 53.7384 17.411 53.909 17.5629C54.0795 17.7147 54.1796 17.9247 54.1871 18.1469V18.1869C54.1878 18.2 54.1858 18.2131 54.1814 18.2255C54.177 18.2379 54.1702 18.2493 54.1614 18.2591C54.1525 18.2688 54.1419 18.2767 54.13 18.2824C54.1181 18.288 54.1052 18.2912 54.0921 18.2919L52.3721 18.3419Z" fill="#161618"/>
<path d="M63.9993 17.3216L63.7393 17.3221C63.2091 17.323 62.78 17.7535 62.781 18.2837L62.7824 19.1037C62.7833 19.6339 63.2139 20.063 63.7441 20.0621L64.0041 20.0616C64.5343 20.0607 64.9633 19.6301 64.9624 19.0999L64.961 18.2799C64.96 17.7497 64.5295 17.3207 63.9993 17.3216Z" fill="#161618"/>
<path d="M68.0988 17.3321L67.8488 17.3317C67.338 17.3308 66.9231 17.7442 66.9222 18.2551L66.9207 19.1451C66.9198 19.6559 67.3332 20.0708 67.844 20.0717L68.094 20.0721C68.6049 20.073 69.0198 19.6596 69.0207 19.1487L69.0222 18.2587C69.0231 17.7479 68.6097 17.333 68.0988 17.3321Z" fill="#161618"/>
<path d="M17.1123 18.5054C17.1288 19.0326 17.4734 19.4495 17.8819 19.4367C18.2904 19.4239 18.6081 18.9861 18.5915 18.4589C18.575 17.9318 18.2304 17.5148 17.8219 17.5276C17.4134 17.5405 17.0957 17.9782 17.1123 18.5054Z" fill="#161618"/>
<path d="M37.1912 18.4668C37.1918 18.4334 37.1991 18.4003 37.2125 18.3696C37.2259 18.3389 37.2452 18.3112 37.2694 18.288C37.2935 18.2648 37.322 18.2465 37.3532 18.2343C37.3844 18.2221 37.4177 18.2162 37.4512 18.2168L38.5362 18.2418C38.8084 18.2483 39.0674 18.3398 39.2567 18.4962C39.4459 18.6527 39.55 18.8614 39.5462 19.0768L39.5412 19.2768C39.5393 19.3839 39.5108 19.4895 39.4573 19.5874C39.4038 19.6853 39.3263 19.7737 39.2292 19.8475C39.1322 19.9214 39.0175 19.9792 38.8917 20.0177C38.7659 20.0562 38.6315 20.0746 38.4962 20.0718L37.4112 20.0468C37.3777 20.0462 37.3447 20.039 37.314 20.0255C37.2833 20.0121 37.2555 19.9928 37.2323 19.9686C37.2091 19.9445 37.1909 19.916 37.1787 19.8848C37.1665 19.8536 37.1605 19.8203 37.1612 19.7868L37.1912 18.4668Z" fill="#161618"/>
<path d="M42.5851 20.0371C43.0867 19.8741 43.4089 19.4822 43.3048 19.1618C43.2007 18.8414 42.7097 18.7138 42.2081 18.8768C41.7064 19.0397 41.3842 19.4316 41.4883 19.752C41.5924 20.0724 42.0834 20.2 42.5851 20.0371Z" fill="#161618"/>
<path d="M29.9902 20.0357C30.4777 19.9023 30.8019 19.5351 30.7145 19.2155C30.627 18.8958 30.161 18.7448 29.6736 18.8782C29.1862 19.0115 28.8619 19.3787 28.9493 19.6984C29.0368 20.018 29.5028 20.169 29.9902 20.0357Z" fill="#161618"/>
</g>
<defs>
<clipPath id="clip0_1122_7474">
<rect width="159" height="28" fill="white" transform="translate(0.476562 0.0620117)"/>
</clipPath>
</defs>
</svg>
