<svg width="37" height="36" viewBox="0 0 37 36" fill="none" xmlns="http://www.w3.org/2000/svg">
<mask id="mask0_1029_1681" style="mask-type:alpha" maskUnits="userSpaceOnUse" x="1" y="1" width="35" height="34">
<path d="M33.6957 1.93359H3.30287C2.57196 1.93359 1.98145 2.50815 1.98145 3.21931V32.7907C1.98145 33.5019 2.57196 34.0765 3.30287 34.0765H33.6957C34.4266 34.0765 35.0172 33.5019 35.0172 32.7907V3.21931C35.0172 2.50815 34.4266 1.93359 33.6957 1.93359ZM32.0439 31.1836H4.95466V4.82645H32.0439V31.1836ZM17.6734 13.505H25.2716C25.4533 13.505 25.602 13.3604 25.602 13.1836V11.255C25.602 11.0782 25.4533 10.9336 25.2716 10.9336H17.6734C17.4917 10.9336 17.3431 11.0782 17.3431 11.255V13.1836C17.3431 13.3604 17.4917 13.505 17.6734 13.505ZM17.6734 19.2907H25.2716C25.4533 19.2907 25.602 19.1461 25.602 18.9693V17.0407C25.602 16.864 25.4533 16.7193 25.2716 16.7193H17.6734C17.4917 16.7193 17.3431 16.864 17.3431 17.0407V18.9693C17.3431 19.1461 17.4917 19.2907 17.6734 19.2907ZM17.6734 25.0765H25.2716C25.4533 25.0765 25.602 24.9318 25.602 24.755V22.8265C25.602 22.6497 25.4533 22.505 25.2716 22.505H17.6734C17.4917 22.505 17.3431 22.6497 17.3431 22.8265V24.755C17.3431 24.9318 17.4917 25.0765 17.6734 25.0765ZM11.3966 12.2193C11.3966 12.6455 11.5707 13.0543 11.8804 13.3557C12.1902 13.6571 12.6103 13.8265 13.0484 13.8265C13.4865 13.8265 13.9066 13.6571 14.2164 13.3557C14.5262 13.0543 14.7002 12.6455 14.7002 12.2193C14.7002 11.7931 14.5262 11.3843 14.2164 11.0829C13.9066 10.7815 13.4865 10.6122 13.0484 10.6122C12.6103 10.6122 12.1902 10.7815 11.8804 11.0829C11.5707 11.3843 11.3966 11.7931 11.3966 12.2193ZM11.3966 18.005C11.3966 18.4313 11.5707 18.84 11.8804 19.1414C12.1902 19.4428 12.6103 19.6122 13.0484 19.6122C13.4865 19.6122 13.9066 19.4428 14.2164 19.1414C14.5262 18.84 14.7002 18.4313 14.7002 18.005C14.7002 17.5788 14.5262 17.17 14.2164 16.8686C13.9066 16.5672 13.4865 16.3979 13.0484 16.3979C12.6103 16.3979 12.1902 16.5672 11.8804 16.8686C11.5707 17.17 11.3966 17.5788 11.3966 18.005ZM11.3966 23.7907C11.3966 24.217 11.5707 24.6258 11.8804 24.9272C12.1902 25.2286 12.6103 25.3979 13.0484 25.3979C13.4865 25.3979 13.9066 25.2286 14.2164 24.9272C14.5262 24.6258 14.7002 24.217 14.7002 23.7907C14.7002 23.3645 14.5262 22.9557 14.2164 22.6543C13.9066 22.3529 13.4865 22.1836 13.0484 22.1836C12.6103 22.1836 12.1902 22.3529 11.8804 22.6543C11.5707 22.9557 11.3966 23.3645 11.3966 23.7907Z" fill="white"/>
</mask>
<g mask="url(#mask0_1029_1681)">
<path d="M33.6957 1.93359H3.30287C2.57196 1.93359 1.98145 2.50815 1.98145 3.21931V32.7907C1.98145 33.5019 2.57196 34.0765 3.30287 34.0765H33.6957C34.4266 34.0765 35.0172 33.5019 35.0172 32.7907V3.21931C35.0172 2.50815 34.4266 1.93359 33.6957 1.93359ZM32.0439 31.1836H4.95466V4.82645H32.0439V31.1836ZM17.6734 13.505H25.2716C25.4533 13.505 25.602 13.3604 25.602 13.1836V11.255C25.602 11.0782 25.4533 10.9336 25.2716 10.9336H17.6734C17.4917 10.9336 17.3431 11.0782 17.3431 11.255V13.1836C17.3431 13.3604 17.4917 13.505 17.6734 13.505ZM17.6734 19.2907H25.2716C25.4533 19.2907 25.602 19.1461 25.602 18.9693V17.0407C25.602 16.864 25.4533 16.7193 25.2716 16.7193H17.6734C17.4917 16.7193 17.3431 16.864 17.3431 17.0407V18.9693C17.3431 19.1461 17.4917 19.2907 17.6734 19.2907ZM17.6734 25.0765H25.2716C25.4533 25.0765 25.602 24.9318 25.602 24.755V22.8265C25.602 22.6497 25.4533 22.505 25.2716 22.505H17.6734C17.4917 22.505 17.3431 22.6497 17.3431 22.8265V24.755C17.3431 24.9318 17.4917 25.0765 17.6734 25.0765ZM11.3966 12.2193C11.3966 12.6455 11.5707 13.0543 11.8804 13.3557C12.1902 13.6571 12.6103 13.8265 13.0484 13.8265C13.4865 13.8265 13.9066 13.6571 14.2164 13.3557C14.5262 13.0543 14.7002 12.6455 14.7002 12.2193C14.7002 11.7931 14.5262 11.3843 14.2164 11.0829C13.9066 10.7815 13.4865 10.6122 13.0484 10.6122C12.6103 10.6122 12.1902 10.7815 11.8804 11.0829C11.5707 11.3843 11.3966 11.7931 11.3966 12.2193ZM11.3966 18.005C11.3966 18.4313 11.5707 18.84 11.8804 19.1414C12.1902 19.4428 12.6103 19.6122 13.0484 19.6122C13.4865 19.6122 13.9066 19.4428 14.2164 19.1414C14.5262 18.84 14.7002 18.4313 14.7002 18.005C14.7002 17.5788 14.5262 17.17 14.2164 16.8686C13.9066 16.5672 13.4865 16.3979 13.0484 16.3979C12.6103 16.3979 12.1902 16.5672 11.8804 16.8686C11.5707 17.17 11.3966 17.5788 11.3966 18.005ZM11.3966 23.7907C11.3966 24.217 11.5707 24.6258 11.8804 24.9272C12.1902 25.2286 12.6103 25.3979 13.0484 25.3979C13.4865 25.3979 13.9066 25.2286 14.2164 24.9272C14.5262 24.6258 14.7002 24.217 14.7002 23.7907C14.7002 23.3645 14.5262 22.9557 14.2164 22.6543C13.9066 22.3529 13.4865 22.1836 13.0484 22.1836C12.6103 22.1836 12.1902 22.3529 11.8804 22.6543C11.5707 22.9557 11.3966 23.3645 11.3966 23.7907Z" fill="white"/>
</g>
</svg>
