<svg width="70" height="70" viewBox="0 0 70 70" fill="none" xmlns="http://www.w3.org/2000/svg">
<path d="M68.9694 42.2399L68.3694 40.6799C68.2427 40.3466 68.0027 40.1766 67.6494 40.1699C66.7694 40.1499 66.1694 39.7366 65.8494 38.9299C65.7361 38.6632 65.5361 38.5499 65.2494 38.5899C65.0961 38.6166 64.9561 38.5799 64.8294 38.4799C64.4627 38.1866 64.3761 37.8366 64.5694 37.4299C64.6827 37.1832 64.6194 36.9966 64.3794 36.8699C64.0261 36.6832 63.8994 36.4132 63.9994 36.0599C64.0394 35.8999 64.0394 35.7399 63.9994 35.5799L63.8294 34.8999C63.7427 34.5599 63.7527 34.2232 63.8594 33.8899C64.0061 33.4232 63.9294 33.0066 63.6294 32.6399C63.4094 32.3799 63.4061 32.1166 63.6194 31.8499C64.0994 31.2432 64.6361 30.7499 65.2294 30.3699C65.2892 30.3316 65.3399 30.2807 65.3781 30.2208C65.4163 30.1609 65.441 30.0934 65.4505 30.023C65.46 29.9526 65.4541 29.881 65.4332 29.8131C65.4123 29.7453 65.3769 29.6827 65.3294 29.6299C64.4627 28.6632 63.2994 28.1766 61.8394 28.1699C61.5727 28.1699 61.4261 28.0366 61.3994 27.7699L60.8994 22.7099C60.8775 22.4852 60.9081 22.2585 60.9886 22.0475C61.0692 21.8364 61.1976 21.6467 61.3639 21.4929C61.5303 21.3391 61.73 21.2255 61.9478 21.1608C62.1655 21.0961 62.3953 21.0821 62.6194 21.1199C63.6527 21.2999 64.6327 21.0999 65.5594 20.5199C65.9861 20.2532 66.0494 19.9199 65.7494 19.5199C65.1161 18.6732 64.1394 18.5232 62.8194 19.0699C62.5632 19.1778 62.2832 19.2162 62.0075 19.1812C61.7317 19.1462 61.4701 19.0392 61.249 18.8708C61.0279 18.7024 60.8551 18.4787 60.748 18.2222C60.641 17.9657 60.6035 17.6855 60.6394 17.4099C60.7594 16.4166 60.6761 15.4366 60.3894 14.4699C60.1027 13.4832 59.8261 13.4866 59.5594 14.4799C59.2527 15.6132 59.1227 16.8166 59.1694 18.0899C59.1745 18.2493 59.1432 18.4077 59.0779 18.5531C59.0127 18.6986 58.9151 18.8273 58.7927 18.9294C58.6703 19.0316 58.5263 19.1045 58.3715 19.1427C58.2167 19.1809 58.0553 19.1834 57.8994 19.1499C56.4461 18.8299 55.0061 19.0232 53.5794 19.7299C53.2394 19.9032 53.1794 20.1466 53.3994 20.4599C53.5127 20.6199 53.6327 20.7699 53.7594 20.9099C53.9927 21.1632 54.2794 21.2766 54.6194 21.2499L57.7494 20.9899C58.6494 20.9166 59.0527 21.3266 58.9594 22.2199L58.4594 27.0999C58.3661 28.0732 57.8294 28.5699 56.8494 28.5899C54.4494 28.6499 50.7594 29.0199 51.4094 25.2099C51.4347 25.0573 51.4253 24.9014 51.382 24.7541C51.3386 24.6068 51.2625 24.472 51.1594 24.3599C50.9861 24.1799 50.7794 24.0732 50.5394 24.0399C50.1861 23.9932 49.9327 24.1332 49.7794 24.4599C48.8327 26.5599 48.6727 28.7966 49.2994 31.1699C49.374 31.4521 49.3538 31.7513 49.2419 32.0221C49.13 32.2928 48.9325 32.5203 48.6794 32.6699C47.8461 33.1632 47.0627 33.1899 46.3294 32.7499C46.1294 32.6299 45.9127 32.5866 45.6794 32.6199C44.3994 32.7799 43.3394 32.2432 42.4994 31.0099C42.4327 30.9166 42.3394 30.8732 42.2194 30.8799C42.1127 30.8866 42.0127 30.8832 41.9194 30.8699C41.8036 30.8542 41.6944 30.8089 41.6031 30.7387C41.5117 30.6684 41.4414 30.5756 41.3994 30.4699C40.6394 28.5699 39.6027 27.4532 38.2894 27.1199L34.6994 18.6999C34.5199 18.2794 34.2436 17.9073 33.8929 17.614C33.5422 17.3207 33.1272 17.1144 32.6816 17.012C32.236 16.9096 31.7725 16.914 31.329 17.0249C30.8854 17.1358 30.4744 17.3499 30.1294 17.6499L18.7294 27.5199C18.6143 27.621 18.4643 27.6734 18.3113 27.6659C18.1583 27.6585 18.0141 27.5917 17.9094 27.4799L1.11939 9.20991C0.50939 4.74991 2.70939 0.989906 7.29939 0.989906C24.6727 0.983239 43.1527 0.986572 62.7394 0.999906C65.9294 0.999906 68.9494 3.34991 68.9694 6.74991C69.0294 18.5566 69.0294 30.3866 68.9694 42.2399Z" fill="#E7E9E7" fill-opacity="0.949"/>
<path d="M1.12078 9.20996L17.9108 27.48C18.0155 27.5918 18.1596 27.6585 18.3127 27.666C18.4657 27.6734 18.6157 27.6211 18.7308 27.52L30.1308 17.65C30.4758 17.35 30.8868 17.1358 31.3304 17.025C31.7739 16.9141 32.2374 16.9097 32.683 17.0121C33.1285 17.1144 33.5436 17.3207 33.8943 17.614C34.245 17.9074 34.5213 18.2795 34.7008 18.7L38.2908 27.12L43.6008 39.74C43.7274 40.0466 43.9508 40.15 44.2708 40.05L53.3908 37.09C53.8754 36.932 54.3956 36.9188 54.8876 37.052C55.3796 37.1852 55.8221 37.459 56.1608 37.84L68.9008 52.2L68.8708 61.16L53.7108 44.1C53.5549 43.9257 53.3532 43.7986 53.1287 43.7332C52.9042 43.6678 52.6659 43.6667 52.4408 43.73L40.3808 47.14L30.9808 25.35C30.9635 25.307 30.9362 25.2688 30.9011 25.2386C30.866 25.2083 30.8242 25.1869 30.7792 25.1762C30.7342 25.1654 30.6872 25.1656 30.6422 25.1767C30.5973 25.1878 30.5556 25.2095 30.5208 25.24L19.8308 34.49C19.2969 34.9505 18.6043 35.1849 17.8991 35.1439C17.194 35.1028 16.5313 34.7895 16.0508 34.27L1.05078 17.96L1.12078 9.20996Z" fill="#197AC6" fill-opacity="0.949"/>
<path d="M68.971 42.2399L68.901 52.1999L56.161 37.8399C55.8223 37.459 55.3798 37.1852 54.8878 37.052C54.3958 36.9187 53.8756 36.9319 53.391 37.0899L44.271 40.0499C43.951 40.1499 43.7277 40.0466 43.601 39.7399L38.291 27.1199C39.6043 27.4533 40.641 28.5699 41.401 30.4699C41.443 30.5756 41.5133 30.6684 41.6047 30.7387C41.6961 30.809 41.8052 30.8543 41.921 30.8699C42.0143 30.8833 42.1143 30.8866 42.221 30.8799C42.341 30.8733 42.4343 30.9166 42.501 31.0099C43.341 32.2433 44.401 32.7799 45.681 32.6199C45.9143 32.5866 46.131 32.6299 46.331 32.7499C47.0644 33.1899 47.8477 33.1633 48.681 32.6699C48.9341 32.5203 49.1316 32.2929 49.2435 32.0221C49.3554 31.7514 49.3756 31.4521 49.301 31.1699C48.6743 28.7966 48.8343 26.5599 49.781 24.4599C49.9343 24.1333 50.1877 23.9933 50.541 24.0399C50.781 24.0733 50.9877 24.1799 51.161 24.3599C51.2642 24.472 51.3403 24.6068 51.3836 24.7541C51.4269 24.9014 51.4363 25.0573 51.411 25.2099C50.761 29.0199 54.451 28.6499 56.851 28.5899C57.831 28.5699 58.3677 28.0733 58.461 27.0999L58.961 22.2199C59.0543 21.3266 58.651 20.9166 57.751 20.9899L54.621 21.2499C54.281 21.2766 53.9943 21.1633 53.761 20.9099C53.6343 20.7699 53.5143 20.6199 53.401 20.4599C53.181 20.1466 53.241 19.9033 53.581 19.7299C55.0077 19.0233 56.4477 18.8299 57.901 19.1499C58.0569 19.1834 58.2183 19.181 58.3731 19.1428C58.5279 19.1046 58.672 19.0316 58.7944 18.9295C58.9168 18.8273 59.0143 18.6986 59.0796 18.5532C59.1448 18.4077 59.1761 18.2493 59.171 18.0899C59.1243 16.8166 59.2543 15.6133 59.561 14.4799C59.8277 13.4866 60.1043 13.4833 60.391 14.4699C60.6777 15.4366 60.761 16.4166 60.641 17.4099C60.6052 17.6855 60.6426 17.9657 60.7497 18.2222C60.8567 18.4787 61.0295 18.7024 61.2506 18.8708C61.4717 19.0392 61.7334 19.1463 62.0091 19.1812C62.2848 19.2162 62.5649 19.1778 62.821 19.0699C64.141 18.5233 65.1177 18.6733 65.751 19.5199C66.051 19.9199 65.9877 20.2533 65.561 20.5199C64.6343 21.0999 63.6544 21.2999 62.621 21.1199C62.3969 21.0822 62.1671 21.0962 61.9494 21.1608C61.7317 21.2255 61.5319 21.3392 61.3656 21.4929C61.1992 21.6467 61.0708 21.8364 60.9902 22.0475C60.9097 22.2585 60.8791 22.4852 60.901 22.7099L61.401 27.7699C61.4277 28.0366 61.5743 28.1699 61.841 28.1699C63.301 28.1766 64.4643 28.6633 65.331 29.6299C65.3785 29.6828 65.4139 29.7453 65.4348 29.8132C65.4557 29.881 65.4616 29.9527 65.4521 30.0231C65.4426 30.0934 65.4179 30.1609 65.3797 30.2208C65.3416 30.2807 65.2908 30.3316 65.231 30.3699C64.6377 30.7499 64.101 31.2433 63.621 31.8499C63.4077 32.1166 63.411 32.3799 63.631 32.6399C63.931 33.0066 64.0077 33.4233 63.861 33.8899C63.7543 34.2233 63.7444 34.5599 63.831 34.8999L64.001 35.5799C64.041 35.7399 64.041 35.8999 64.001 36.0599C63.901 36.4133 64.0277 36.6833 64.381 36.8699C64.621 36.9966 64.6843 37.1833 64.571 37.4299C64.3777 37.8366 64.4643 38.1866 64.831 38.4799C64.9577 38.5799 65.0977 38.6166 65.251 38.5899C65.5377 38.5499 65.7377 38.6633 65.851 38.9299C66.171 39.7366 66.771 40.1499 67.651 40.1699C68.0043 40.1766 68.2444 40.3466 68.371 40.6799L68.971 42.2399Z" fill="#D7E2D7" fill-opacity="0.949"/>
<path d="M1.05102 17.96L16.051 34.27C16.5315 34.7895 17.1942 35.1028 17.8994 35.1439C18.6045 35.1849 19.2971 34.9505 19.831 34.49L30.521 25.24C30.5559 25.2095 30.5975 25.1878 30.6425 25.1767C30.6874 25.1656 30.7344 25.1654 30.7794 25.1762C30.8245 25.1869 30.8663 25.2083 30.9013 25.2386C30.9364 25.2688 30.9637 25.307 30.981 25.35L40.381 47.14C39.5943 47.8333 38.5577 49.0033 37.271 50.65C36.6377 51.4633 35.711 52.2133 34.491 52.9C32.371 54.09 29.681 53.59 27.381 53.63C27.1077 53.6366 26.8477 53.7033 26.601 53.83C26.181 54.0566 25.8343 54.3566 25.561 54.73C25.5398 54.7577 25.5129 54.7808 25.4822 54.7975C25.4515 54.8143 25.4176 54.8244 25.3827 54.8272C25.3478 54.83 25.3127 54.8255 25.2797 54.8139C25.2467 54.8023 25.2165 54.784 25.191 54.76C24.9177 54.52 24.601 54.3433 24.241 54.23C23.9077 54.13 23.581 54.1366 23.261 54.25C22.6077 54.47 21.9677 54.47 21.341 54.25C21.2677 54.23 21.2143 54.2533 21.181 54.32C21.161 54.3466 21.151 54.3766 21.151 54.41C21.1644 54.69 21.151 54.6933 21.111 54.42C21.0643 54.12 20.6677 54.04 19.921 54.18C19.7153 54.2173 19.5279 54.3221 19.3885 54.4778C19.249 54.6336 19.1655 54.8314 19.151 55.04C18.9643 57.7 17.4577 58.8166 14.631 58.39C14.1043 58.31 13.801 58.0266 13.721 57.54C13.7091 57.478 13.6848 57.419 13.6496 57.3668C13.6144 57.3146 13.5692 57.2702 13.5167 57.2364C13.4641 57.2026 13.4054 57.1802 13.3443 57.1705C13.2831 57.1608 13.2207 57.164 13.161 57.18C13.041 57.2133 12.9377 57.2766 12.851 57.37C12.7777 57.45 12.7377 57.5433 12.731 57.65C12.731 57.77 12.8143 57.81 12.981 57.77C13.2143 57.7233 13.2543 57.7933 13.101 57.98C12.9477 58.1733 12.7643 58.2933 12.551 58.34C12.231 58.4 11.9943 58.2866 11.841 58C11.4277 57.2133 11.1943 56.3133 11.141 55.3C11.061 53.7333 10.6743 53.6533 9.98102 55.06C9.62768 55.78 9.42768 56.5366 9.38101 57.33C9.36101 57.6566 9.19768 57.8766 8.89102 57.99C7.83102 58.4033 6.71768 58.5233 5.55102 58.35C5.08437 58.2775 4.61145 58.3152 4.17102 58.46C3.31102 58.7466 2.62102 58.4933 2.10102 57.7C1.89435 57.3866 1.67102 57.37 1.43102 57.65C1.30435 57.8033 1.17435 57.9133 1.04102 57.98L1.05102 17.96Z" fill="#D7E2D7" fill-opacity="0.949"/>
<path d="M68.8704 61.16C69.2637 64.4867 68.3404 66.7767 66.1004 68.03C64.887 68.7033 63.377 69.0367 61.5704 69.03C42.637 68.9767 24.4637 68.9733 7.05036 69.02C0.950361 69.04 0.750362 62.87 1.04036 57.98C1.1737 57.9133 1.3037 57.8033 1.43036 57.65C1.67036 57.37 1.8937 57.3867 2.10036 57.7C2.62036 58.4933 3.31036 58.7467 4.17036 58.46C4.61079 58.3152 5.08372 58.2775 5.55036 58.35C6.71703 58.5233 7.83036 58.4033 8.89036 57.99C9.19703 57.8767 9.36036 57.6567 9.38036 57.33C9.42703 56.5367 9.62703 55.78 9.98036 55.06C10.6737 53.6533 11.0604 53.7333 11.1404 55.3C11.1937 56.3133 11.427 57.2133 11.8404 58C11.9937 58.2867 12.2304 58.4 12.5504 58.34C12.7637 58.2933 12.947 58.1733 13.1004 57.98C13.2537 57.7933 13.2137 57.7233 12.9804 57.77C12.8137 57.81 12.7304 57.77 12.7304 57.65C12.737 57.5433 12.777 57.45 12.8504 57.37C12.937 57.2767 13.0404 57.2133 13.1604 57.18C13.22 57.164 13.2824 57.1608 13.3436 57.1705C13.4048 57.1802 13.4635 57.2027 13.516 57.2365C13.5685 57.2702 13.6138 57.3146 13.6489 57.3668C13.6841 57.4191 13.7084 57.478 13.7204 57.54C13.8004 58.0267 14.1037 58.31 14.6304 58.39C17.457 58.8167 18.9637 57.7 19.1504 55.04C19.1648 54.8314 19.2484 54.6336 19.3878 54.4779C19.5273 54.3221 19.7147 54.2173 19.9204 54.18C20.667 54.04 21.0637 54.12 21.1104 54.42C21.1504 54.6933 21.1637 54.69 21.1504 54.41C21.1504 54.3767 21.1604 54.3467 21.1804 54.32C21.2137 54.2533 21.267 54.23 21.3404 54.25C21.967 54.47 22.607 54.47 23.2604 54.25C23.5804 54.1367 23.907 54.13 24.2404 54.23C24.6004 54.3433 24.917 54.52 25.1904 54.76C25.2158 54.784 25.246 54.8024 25.2791 54.814C25.3121 54.8256 25.3472 54.8301 25.382 54.8273C25.4169 54.8244 25.4508 54.8143 25.4815 54.7976C25.5122 54.7808 25.5391 54.7578 25.5604 54.73C25.8337 54.3567 26.1804 54.0567 26.6004 53.83C26.847 53.7033 27.107 53.6367 27.3804 53.63C29.6804 53.59 32.3704 54.09 34.4904 52.9C35.7104 52.2133 36.637 51.4633 37.2704 50.65C38.557 49.0033 39.5937 47.8333 40.3804 47.14L52.4404 43.73C52.6655 43.6667 52.9038 43.6678 53.1283 43.7332C53.3528 43.7987 53.5545 43.9257 53.7104 44.1L68.8704 61.16Z" fill="#C6D5C6" fill-opacity="0.949"/>
</svg>
