<svg width="69" height="69" viewBox="0 0 69 69" fill="none" xmlns="http://www.w3.org/2000/svg">
<path d="M63.4095 1.02994C63.6762 1.88327 64.6362 2.47327 66.2895 2.79994C67.7362 4.47994 68.2729 6.50327 67.8995 8.86994L57.2095 19.5099L50.5895 19.1999C50.4414 19.1939 50.2964 19.156 50.1641 19.0887C50.0319 19.0214 49.9154 18.9264 49.8226 18.8099C49.7298 18.6934 49.6628 18.5582 49.6261 18.4134C49.5893 18.2685 49.5837 18.1173 49.6095 17.9699C49.9029 16.2833 49.9062 14.4899 49.6195 12.5899C49.5662 12.2366 49.3795 12.1433 49.0595 12.3099L48.6395 12.5399C48.3129 12.7133 48.1462 12.9866 48.1395 13.3599L48.1095 17.6299C48.1029 19.3033 47.2795 19.9799 45.6395 19.6599L40.0095 18.5699C37.8962 21.4966 36.3329 25.0833 35.3195 29.3299C34.2129 28.7899 32.9829 28.7599 31.6295 29.2399C31.4026 29.322 31.1595 29.3488 30.92 29.3182C30.6805 29.2877 30.4515 29.2006 30.2516 29.0641C30.0517 28.9276 29.8866 28.7455 29.7698 28.5328C29.653 28.32 29.5878 28.0826 29.5795 27.8399L29.3995 22.7599C29.3662 21.6199 29.9062 20.9233 31.0195 20.6699C32.1929 20.4099 33.3795 20.4499 34.5795 20.7899C35.3262 21.0033 36.0495 20.9499 36.7495 20.6299C37.2962 20.3766 37.2929 20.1366 36.7395 19.9099C36.4195 19.7766 36.1229 19.6033 35.8495 19.3899C35.5495 19.1499 35.2095 19.0533 34.8295 19.0999L31.1195 19.5499C30.9227 19.5728 30.7232 19.5517 30.5354 19.4881C30.3477 19.4246 30.1764 19.3202 30.0339 19.1824C29.8914 19.0447 29.7812 18.877 29.7113 18.6916C29.6413 18.5061 29.6134 18.3075 29.6295 18.1099L29.9795 14.2599C30.0329 13.6999 29.7829 13.3866 29.2295 13.3199L28.7195 13.2499C28.3062 13.1966 28.1095 13.3766 28.1295 13.7899L28.2795 18.1099C28.2849 18.2799 28.2538 18.4491 28.1883 18.6059C28.1228 18.7627 28.0244 18.9034 27.9 19.0183C27.7756 19.1333 27.628 19.2197 27.4674 19.2718C27.3068 19.3238 27.137 19.3403 26.9695 19.3199C25.3962 19.1333 23.7929 19.2399 22.1595 19.6399C20.8729 19.9533 20.8829 20.2266 22.1895 20.4599C23.7029 20.7333 25.2595 20.8133 26.8595 20.6999C27.9529 20.6199 28.4729 21.1266 28.4195 22.2199L28.1395 28.2999C28.1062 29.0266 27.7262 29.3466 26.9995 29.2599C25.6929 29.0933 24.2762 29.1266 22.7495 29.3599C21.0762 29.6199 21.0595 29.9533 22.6995 30.3599C24.2529 30.7399 25.7495 30.8866 27.1895 30.7999C27.9629 30.7599 28.3329 31.1266 28.2995 31.8999L28.0595 37.6599C28.0508 37.8733 27.9991 38.0827 27.9076 38.2756C27.8162 38.4686 27.6868 38.6411 27.5272 38.783C27.3676 38.9248 27.1811 39.0331 26.9788 39.1013C26.7764 39.1695 26.5624 39.1962 26.3495 39.1799L21.6995 38.8199C21.4195 38.7999 21.1729 38.6999 20.9595 38.5199C19.7262 37.5066 18.4929 36.9899 17.2595 36.9699C15.4695 36.4399 14.3695 38.2899 13.1995 39.2699C12.6529 39.1033 12.2895 39.1099 12.1095 39.2899C11.9684 39.4313 11.7961 39.5374 11.6057 39.6C11.4154 39.6626 11.2121 39.6801 11.0114 39.6511C10.8107 39.6222 10.6179 39.5476 10.4477 39.433C10.2776 39.3184 10.1345 39.1668 10.0295 38.9899C9.64287 38.3366 9.5562 37.7066 9.76953 37.0999C9.86953 36.8333 9.89287 36.5599 9.83953 36.2799C9.53953 34.4733 9.53953 32.7099 9.83953 30.9899C9.8862 30.7099 10.0529 30.5666 10.3395 30.5599L18.3895 30.4299C18.8095 30.4233 19.0595 30.2133 19.1395 29.7999C19.6395 27.1866 19.7095 24.4333 19.3495 21.5399C19.3362 21.4066 19.2595 21.3433 19.1195 21.3499L18.8595 21.3599C18.7129 21.3666 18.6295 21.4399 18.6095 21.5799C18.2429 24.0266 18.1929 26.3499 18.4595 28.5499C18.5062 28.9366 18.3362 29.1466 17.9495 29.1799C16.0029 29.3599 14.0429 29.3433 12.0695 29.1299C11.5029 29.0633 10.9862 29.1833 10.5195 29.4899C10.4301 29.5477 10.3268 29.5801 10.2204 29.5839C10.1141 29.5877 10.0087 29.5626 9.9154 29.5114C9.82213 29.4601 9.74446 29.3846 9.69061 29.2928C9.63677 29.201 9.60875 29.0964 9.60953 28.9899L9.62953 21.8099C9.63021 21.597 9.67777 21.3869 9.76883 21.1944C9.85988 21.002 9.9922 20.832 10.1564 20.6964C10.3206 20.5609 10.5126 20.4631 10.7188 20.4102C10.925 20.3572 11.1404 20.3503 11.3495 20.3899C13.3829 20.7766 14.8262 20.9166 15.6795 20.8099C19.5329 20.3433 19.5395 19.8066 15.6995 19.1999C14.3395 18.9799 12.5529 19.0199 10.3395 19.3199C10.2456 19.3329 10.15 19.3254 10.0593 19.2981C9.96848 19.2708 9.88465 19.2242 9.81349 19.1616C9.74232 19.099 9.68548 19.0217 9.64684 18.9352C9.60819 18.8486 9.58865 18.7547 9.58953 18.6599L9.63953 14.6999C9.6462 14.4799 9.53953 14.3666 9.31953 14.3599L8.61953 14.3399C8.41287 14.3333 8.31286 14.4333 8.31953 14.6399L8.41953 18.5699C8.4262 18.9099 8.26287 19.0833 7.92953 19.0899L2.26953 19.2299C1.68287 19.2499 1.31286 19.5433 1.15953 20.1099L1.06953 20.4599C1.05389 20.5188 1.05223 20.5804 1.0647 20.64C1.07716 20.6996 1.10339 20.7554 1.14129 20.803C1.17919 20.8506 1.22772 20.8887 1.28298 20.9142C1.33824 20.9398 1.3987 20.952 1.45953 20.9499L7.09953 20.8299C7.79286 20.8166 8.14286 21.1566 8.14953 21.8499L8.22953 28.1099C8.24286 29.0033 7.79953 29.4033 6.89953 29.3099L1.99953 28.7799C1.21953 28.6933 0.842865 29.0399 0.869531 29.8199C0.869531 29.9799 0.889532 30.1366 0.929532 30.2899C1.0762 30.8699 1.4462 31.1466 2.03953 31.1199L7.05953 30.8499C7.91953 30.8033 8.32953 31.2099 8.28953 32.0699L8.01953 38.1699C7.97287 39.2099 7.44286 39.6166 6.42953 39.3899C4.9162 39.0566 3.2862 38.9533 1.53953 39.0799C1.21953 39.1066 1.01286 39.2733 0.919531 39.5799C0.719531 40.2599 0.916198 40.8233 1.50953 41.2699C1.62953 41.3566 1.7562 41.3699 1.88953 41.3099C2.12286 41.2099 2.1762 41.0566 2.04953 40.8499C2.04539 40.8415 2.0432 40.832 2.04324 40.8226C2.04327 40.8132 2.04553 40.8043 2.04973 40.797C2.05394 40.7896 2.05992 40.7841 2.06697 40.7811C2.07403 40.778 2.08185 40.7777 2.08953 40.7799C3.88286 40.9866 5.66953 40.9533 7.44953 40.6799C7.8362 40.6266 8.03953 40.7933 8.05953 41.1799L8.23953 44.1599C6.5462 46.0933 4.6862 47.9299 2.65953 49.6699C2.21286 50.0499 1.7162 50.7133 1.16953 51.6599C0.942865 52.0533 0.572865 52.2466 0.0595318 52.2399C0.0195318 36.9133 0.00953107 21.5833 0.0295311 6.24994C0.0361977 4.6366 0.769531 3.2766 2.22953 2.16994C3.20286 1.42327 4.5662 1.0466 6.31953 1.03994C25.3929 0.97327 44.4229 0.969936 63.4095 1.02994Z" fill="#DFE5DF" fill-opacity="0.949"/>
<path d="M63.4102 1.03003C64.4968 1.21003 65.4568 1.80003 66.2902 2.80003C64.6368 2.47336 63.6768 1.88336 63.4102 1.03003Z" fill="#C5D3C4" fill-opacity="0.949"/>
<path d="M67.8988 8.86987L67.9587 17.1599C63.0321 22.1932 58.1354 27.1499 53.2687 32.0299C52.5821 32.7165 51.7221 33.0332 50.6888 32.9799C49.8288 32.4399 49.0354 32.1132 48.3088 31.9999C47.2821 30.6065 46.0254 29.5332 44.5387 28.7799C44.2254 28.6199 43.9588 28.3999 43.7388 28.1199L43.1087 27.2999C42.7487 26.8332 42.4721 26.8799 42.2787 27.4399L38.9587 36.9799L38.4688 37.8299C37.7021 37.9899 37.1387 38.5699 36.7787 39.5699C36.5654 40.1632 36.3387 40.1732 36.0987 39.5999C36.0521 39.4865 35.9687 39.4665 35.8487 39.5399C35.3754 39.8399 34.9954 39.7432 34.7087 39.2499C34.5954 39.0499 34.4254 38.9265 34.1987 38.8799C34.0521 38.8465 33.9187 38.8699 33.7987 38.9499C33.7587 38.9765 33.7388 39.0132 33.7388 39.0599C33.7454 39.3865 33.5687 39.5699 33.2087 39.6099C32.3621 39.7165 31.6154 40.4199 30.9688 41.7199L35.3187 29.3299C36.3321 25.0832 37.8954 21.4965 40.0087 18.5699C44.1554 20.7699 47.6121 23.1732 50.3787 25.7799C50.6254 26.0065 50.8621 25.9999 51.0887 25.7599L57.2087 19.5099L67.8988 8.86987Z" fill="#D74F46" fill-opacity="0.949"/>
<path d="M57.2098 19.5099L51.0898 25.7599C50.8631 25.9999 50.6264 26.0065 50.3798 25.7799C47.6131 23.1732 44.1564 20.7699 40.0098 18.5699L45.6398 19.6599C47.2798 19.9799 48.1031 19.3032 48.1098 17.6299L48.1398 13.3599C48.1464 12.9865 48.3131 12.7132 48.6398 12.5399L49.0598 12.3099C49.3798 12.1432 49.5664 12.2365 49.6198 12.5899C49.9064 14.4899 49.9031 16.2832 49.6098 17.9699C49.5839 18.1172 49.5895 18.2684 49.6263 18.4133C49.6631 18.5582 49.7301 18.6934 49.8229 18.8098C49.9157 18.9263 50.0321 19.0214 50.1644 19.0886C50.2966 19.1559 50.4417 19.1938 50.5898 19.1999L57.2098 19.5099Z" fill="#C5D3C4" fill-opacity="0.949"/>
<path d="M35.3198 29.3299L30.9698 41.7199L29.7398 44.7799C29.7115 44.847 29.669 44.9072 29.6151 44.9561C29.5613 45.005 29.4976 45.0412 29.4286 45.0623C29.3596 45.0834 29.2871 45.0887 29.2164 45.0779C29.1457 45.0671 29.0785 45.0405 29.0198 44.9999L17.2598 36.9699C18.4931 36.9899 19.7264 37.5065 20.9598 38.5199C21.1731 38.6999 21.4198 38.7999 21.6998 38.8199L26.3498 39.1799C26.5627 39.1962 26.7767 39.1694 26.979 39.1012C27.1813 39.033 27.3679 38.9247 27.5274 38.7829C27.687 38.641 27.8164 38.4685 27.9079 38.2755C27.9993 38.0826 28.051 37.8732 28.0598 37.6599L28.2998 31.8999C28.3331 31.1265 27.9631 30.7599 27.1898 30.7999C25.7498 30.8865 24.2531 30.7399 22.6998 30.3599C21.0598 29.9532 21.0764 29.6199 22.7498 29.3599C24.2764 29.1265 25.6931 29.0932 26.9998 29.2599C27.7264 29.3465 28.1064 29.0265 28.1398 28.2999L28.4198 22.2199C28.4731 21.1265 27.9531 20.6199 26.8598 20.6999C25.2598 20.8132 23.7031 20.7332 22.1898 20.4599C20.8831 20.2265 20.8731 19.9532 22.1598 19.6399C23.7931 19.2399 25.3964 19.1332 26.9698 19.3199C27.1372 19.3402 27.3071 19.3238 27.4677 19.2717C27.6283 19.2196 27.7758 19.1332 27.9003 19.0183C28.0247 18.9033 28.123 18.7627 28.1885 18.6059C28.254 18.4491 28.2851 18.2799 28.2798 18.1099L28.1298 13.7899C28.1098 13.3765 28.3064 13.1965 28.7198 13.2499L29.2298 13.3199C29.7831 13.3865 30.0331 13.6999 29.9798 14.2599L29.6298 18.1099C29.6137 18.3074 29.6416 18.5061 29.7115 18.6915C29.7814 18.877 29.8916 19.0446 30.0341 19.1823C30.1766 19.3201 30.3479 19.4245 30.5357 19.488C30.7234 19.5516 30.9229 19.5727 31.1198 19.5499L34.8298 19.0999C35.2098 19.0532 35.5498 19.1499 35.8498 19.3899C36.1231 19.6032 36.4198 19.7765 36.7398 19.9099C37.2931 20.1365 37.2964 20.3765 36.7498 20.6299C36.0498 20.9499 35.3264 21.0032 34.5798 20.7899C33.3798 20.4499 32.1931 20.4099 31.0198 20.6699C29.9064 20.9232 29.3664 21.6199 29.3998 22.7599L29.5798 27.8399C29.588 28.0825 29.6532 28.3199 29.77 28.5327C29.8868 28.7454 30.0519 28.9275 30.2518 29.064C30.4517 29.2005 30.6807 29.2876 30.9202 29.3182C31.1597 29.3487 31.4028 29.3219 31.6298 29.2399C32.9831 28.7599 34.2131 28.7899 35.3198 29.3299Z" fill="#C5D3C4" fill-opacity="0.949"/>
<path d="M13.1994 39.2699L8.23938 44.1599L8.05938 41.1799C8.03938 40.7932 7.83605 40.6266 7.44938 40.6799C5.66938 40.9532 3.88271 40.9866 2.08938 40.7799C2.0817 40.7776 2.07387 40.778 2.06682 40.781C2.05977 40.7841 2.05379 40.7896 2.04958 40.7969C2.04538 40.8043 2.04312 40.8132 2.04309 40.8226C2.04305 40.832 2.04523 40.8414 2.04938 40.8499C2.17605 41.0566 2.12271 41.2099 1.88938 41.3099C1.75605 41.3699 1.62938 41.3566 1.50938 41.2699C0.916047 40.8232 0.71938 40.2599 0.91938 39.5799C1.01271 39.2732 1.21938 39.1066 1.53938 39.0799C3.28605 38.9532 4.91605 39.0566 6.42938 39.3899C7.44271 39.6166 7.97271 39.2099 8.01938 38.1699L8.28938 32.0699C8.32938 31.2099 7.91938 30.8032 7.05938 30.8499L2.03938 31.1199C1.44605 31.1466 1.07605 30.8699 0.92938 30.2899C0.88938 30.1366 0.86938 29.9799 0.86938 29.8199C0.842713 29.0399 1.21938 28.6932 1.99938 28.7799L6.89938 29.3099C7.79938 29.4032 8.24271 29.0032 8.22938 28.1099L8.14938 21.8499C8.14271 21.1566 7.79271 20.8166 7.09938 20.8299L1.45938 20.9499C1.39855 20.952 1.33809 20.9397 1.28282 20.9142C1.22756 20.8887 1.17904 20.8506 1.14114 20.803C1.10323 20.7554 1.077 20.6995 1.06454 20.64C1.05208 20.5804 1.05374 20.5187 1.06938 20.4599L1.15938 20.1099C1.31271 19.5432 1.68271 19.2499 2.26938 19.2299L7.92938 19.0899C8.26271 19.0832 8.42605 18.9099 8.41938 18.5699L8.31938 14.6399C8.31271 14.4332 8.41271 14.3332 8.61938 14.3399L9.31938 14.3599C9.53938 14.3666 9.64605 14.4799 9.63938 14.6999L9.58938 18.6599C9.58849 18.7547 9.60804 18.8486 9.64668 18.9351C9.68533 19.0217 9.74217 19.0989 9.81334 19.1616C9.8845 19.2242 9.96833 19.2707 10.0591 19.2981C10.1499 19.3254 10.2455 19.3328 10.3394 19.3199C12.5527 19.0199 14.3394 18.9799 15.6994 19.1999C19.5394 19.8066 19.5327 20.3432 15.6794 20.8099C14.826 20.9166 13.3827 20.7766 11.3494 20.3899C11.1402 20.3503 10.9249 20.3572 10.7186 20.4101C10.5124 20.4631 10.3204 20.5608 10.1562 20.6964C9.99205 20.8319 9.85973 21.002 9.76867 21.1944C9.67762 21.3869 9.63006 21.597 9.62938 21.8099L9.60938 28.9899C9.6086 29.0963 9.63662 29.201 9.69046 29.2928C9.74431 29.3846 9.82198 29.4601 9.91525 29.5113C10.0085 29.5626 10.1139 29.5876 10.2203 29.5839C10.3266 29.5801 10.43 29.5476 10.5194 29.4899C10.986 29.1832 11.5027 29.0632 12.0694 29.1299C14.0427 29.3432 16.0027 29.3599 17.9494 29.1799C18.336 29.1466 18.506 28.9366 18.4594 28.5499C18.1927 26.3499 18.2427 24.0266 18.6094 21.5799C18.6294 21.4399 18.7127 21.3666 18.8594 21.3599L19.1194 21.3499C19.2594 21.3432 19.336 21.4066 19.3494 21.5399C19.7094 24.4332 19.6394 27.1866 19.1394 29.7999C19.0594 30.2132 18.8094 30.4232 18.3894 30.4299L10.3394 30.5599C10.0527 30.5666 9.88605 30.7099 9.83938 30.9899C9.53938 32.7099 9.53938 34.4732 9.83938 36.2799C9.89271 36.5599 9.86938 36.8332 9.76938 37.0999C9.55605 37.7066 9.64271 38.3366 10.0294 38.9899C10.1344 39.1668 10.2774 39.3184 10.4476 39.433C10.6178 39.5476 10.8106 39.6222 11.0113 39.6511C11.212 39.6801 11.4153 39.6626 11.6056 39.6C11.7959 39.5374 11.9682 39.4313 12.1094 39.2899C12.2894 39.1099 12.6527 39.1032 13.1994 39.2699Z" fill="#C5D3C4" fill-opacity="0.949"/>
<path d="M67.9593 17.1599L67.9793 39.0499L60.6993 38.7899C60.366 38.7766 60.1527 38.6132 60.0593 38.2999C59.8527 37.6199 59.446 36.9999 58.8393 36.4399C58.5727 36.2066 58.3893 36.2566 58.2893 36.5899C58.1693 36.9832 58.116 37.3666 58.1293 37.7399C58.132 37.8463 58.1137 37.9522 58.0754 38.0514C58.0371 38.1507 57.9797 38.2415 57.9063 38.3186C57.8329 38.3957 57.7451 38.4575 57.6478 38.5007C57.5505 38.5438 57.4457 38.5673 57.3393 38.5699L50.4693 38.7599C50.0027 38.7666 49.7727 38.5399 49.7793 38.0799C49.786 37.2466 49.766 36.2599 49.7193 35.1199C49.6793 34.1799 50.1193 33.6099 50.6893 32.9799C51.7227 33.0332 52.5827 32.7166 53.2693 32.0299C58.136 27.1499 63.0327 22.1932 67.9593 17.1599Z" fill="#DFE5DF" fill-opacity="0.949"/>
<path d="M48.309 31.9999C48.5157 33.6999 48.3257 35.3432 47.739 36.9299C47.6457 37.1965 47.6223 37.4665 47.669 37.7399C47.729 38.1065 47.6257 38.3999 47.359 38.6199C46.979 38.9199 46.5423 39.0265 46.049 38.9399C44.1623 38.6265 42.3257 38.4965 40.539 38.5499C40.2181 38.5568 39.9063 38.4385 39.669 38.2199C39.249 37.8332 39.0123 37.4199 38.959 36.9799L42.279 27.4399C42.4723 26.8799 42.749 26.8332 43.109 27.2999L43.739 28.1199C43.959 28.3999 44.2257 28.6199 44.539 28.7799C46.0257 29.5332 47.2823 30.6065 48.309 31.9999Z" fill="#DFE5DF" fill-opacity="0.949"/>
<path d="M48.3092 32C49.0359 32.1133 49.8292 32.44 50.6892 32.98C50.1192 33.61 49.6792 34.18 49.7192 35.12C49.7659 36.26 49.7859 37.2467 49.7792 38.08C49.7725 38.54 50.0025 38.7667 50.4692 38.76L57.3392 38.57C57.4456 38.5674 57.5504 38.5439 57.6477 38.5008C57.745 38.4576 57.8328 38.3958 57.9062 38.3187C57.9796 38.2416 58.037 38.1508 58.0753 38.0515C58.1135 37.9522 58.1319 37.8464 58.1292 37.74C58.1159 37.3667 58.1692 36.9833 58.2892 36.59C58.3892 36.2567 58.5725 36.2067 58.8392 36.44C59.4459 37 59.8525 37.62 60.0592 38.3C60.1525 38.6133 60.3659 38.7767 60.6992 38.79L67.9792 39.05C68.0192 47.09 67.9959 54.9867 67.9092 62.74C67.8692 66.47 65.6392 69.02 61.9492 69.01C42.8159 68.99 23.9092 68.9867 5.22921 69C4.17588 69 3.19255 68.59 2.27921 67.77C0.46588 66.15 -0.260787 64.0033 0.0992135 61.33L17.1192 44.23C17.5125 43.8367 17.8092 43.9 18.0092 44.42C18.0892 44.6333 18.3959 44.9267 18.9292 45.3C21.8159 47.2867 24.6759 49.32 27.5092 51.4C28.2292 51.93 29.0992 51.98 29.6292 52.56C29.8759 52.8267 30.1792 52.95 30.5392 52.93C32.2659 52.8233 33.3225 52.2467 33.7092 51.2C35.3025 46.8667 36.8892 42.41 38.4692 37.83L38.9592 36.98C39.0125 37.42 39.2492 37.8333 39.6692 38.22C39.9066 38.4387 40.2184 38.5569 40.5392 38.55C42.3259 38.4967 44.1625 38.6267 46.0492 38.94C46.5425 39.0267 46.9792 38.92 47.3592 38.62C47.6259 38.4 47.7292 38.1067 47.6692 37.74C47.6225 37.4667 47.6459 37.1967 47.7392 36.93C48.3259 35.3433 48.5159 33.7 48.3092 32Z" fill="#C5D3C4" fill-opacity="0.949"/>
<path d="M17.2586 36.9698L29.0186 44.9998C29.0773 45.0404 29.1445 45.0671 29.2152 45.0779C29.286 45.0887 29.3585 45.0834 29.4274 45.0623C29.4964 45.0412 29.5601 45.0049 29.6139 44.9561C29.6678 44.9072 29.7104 44.847 29.7386 44.7798L30.9686 41.7198C31.6153 40.4198 32.3619 39.7165 33.2086 39.6098C33.5686 39.5698 33.7453 39.3865 33.7386 39.0598C33.7386 39.0132 33.7586 38.9765 33.7986 38.9498C33.9186 38.8698 34.0519 38.8465 34.1986 38.8798C34.4253 38.9265 34.5953 39.0498 34.7086 39.2498C34.9953 39.7432 35.3753 39.8398 35.8486 39.5398C35.9686 39.4665 36.0519 39.4865 36.0986 39.5998C36.3386 40.1732 36.5653 40.1632 36.7786 39.5698C37.1386 38.5698 37.7019 37.9898 38.4686 37.8298C36.8886 42.4098 35.3019 46.8665 33.7086 51.1998C33.3219 52.2465 32.2653 52.8232 30.5386 52.9298C30.1786 52.9498 29.8753 52.8265 29.6286 52.5598C29.0986 51.9798 28.2286 51.9298 27.5086 51.3998C24.6753 49.3198 21.8153 47.2865 18.9286 45.2998C18.3953 44.9265 18.0886 44.6332 18.0086 44.4198C17.8086 43.8998 17.5119 43.8365 17.1186 44.2298L0.0985937 61.3298L0.0585938 52.2398C0.571927 52.2465 0.941927 52.0532 1.16859 51.6598C1.71526 50.7132 2.21193 50.0498 2.65859 49.6698C4.68526 47.9298 6.54526 46.0932 8.23859 44.1598L13.1986 39.2698C14.3686 38.2898 15.4686 36.4398 17.2586 36.9698Z" fill="#CC4239" fill-opacity="0.949"/>
</svg>
