<svg width="26" height="26" viewBox="0 0 26 26" fill="none" xmlns="http://www.w3.org/2000/svg">
<path fill-rule="evenodd" clip-rule="evenodd" d="M1 13C1 6.37187 6.37187 1 13 1C19.6281 1 25 6.37187 25 13C25 19.6281 19.6281 25 13 25C6.37187 25 1 19.6281 1 13ZM17.0125 22.5016C18.2406 21.9836 19.3445 21.2383 20.2914 20.2914C21.2406 19.3445 21.9836 18.2406 22.5039 17.0125C23.0406 15.7422 23.3125 14.3922 23.3125 13C23.3125 11.6078 23.0406 10.2578 22.5016 8.98516C21.9836 7.75703 21.2383 6.65312 20.2914 5.70625C19.3422 4.75938 18.2406 4.01641 17.0125 3.49609C15.7422 2.95938 14.3922 2.6875 13 2.6875C11.6078 2.6875 10.2578 2.95938 8.98516 3.49844C7.75703 4.01641 6.65312 4.76172 5.70625 5.70859C4.75938 6.65781 4.01641 7.75938 3.49609 8.9875C2.95938 10.2578 2.6875 11.6078 2.6875 13C2.6875 14.3922 2.95938 15.7422 3.49844 17.0148C4.01641 18.243 4.76172 19.3469 5.70859 20.2938C6.65781 21.2406 7.75938 21.9836 8.9875 22.5039C10.2578 23.0406 11.6078 23.3125 13 23.3125C14.3922 23.3125 15.7422 23.0406 17.0125 22.5016ZM15.7703 17.5375H13.7734V9.33203C13.7734 8.86562 13.3961 8.48828 12.9297 8.48828H12.0859H10.6797C10.2133 8.48828 9.83594 8.86562 9.83594 9.33203C9.83594 9.79844 10.2133 10.1758 10.6797 10.1758H12.0859V17.5375H10.0891C9.62266 17.5375 9.24531 17.9148 9.24531 18.3813C9.24531 18.8477 9.62266 19.225 10.0891 19.225H12.0859H13.7734H15.7703C16.2367 19.225 16.6141 18.8477 16.6141 18.3813C16.6141 17.9148 16.2367 17.5375 15.7703 17.5375ZM12.9297 7.01172C12.4637 7.01172 12.0859 6.63396 12.0859 6.16797C12.0859 5.70198 12.4637 5.32422 12.9297 5.32422C13.3957 5.32422 13.7734 5.70198 13.7734 6.16797C13.7734 6.63396 13.3957 7.01172 12.9297 7.01172Z" fill="white"/>
<path d="M20.2914 20.2914L20.2561 20.256L20.2561 20.2561L20.2914 20.2914ZM17.0125 22.5016L16.9931 22.4555L16.993 22.4555L17.0125 22.5016ZM22.5039 17.0125L22.5499 17.032L22.55 17.032L22.5039 17.0125ZM22.5016 8.98516L22.4555 9.00459L22.4555 9.00466L22.5016 8.98516ZM20.2914 5.70625L20.3268 5.67089L20.3267 5.67085L20.2914 5.70625ZM17.0125 3.49609L17.032 3.45006L17.032 3.45004L17.0125 3.49609ZM8.98516 3.49844L9.00459 3.54451L9.00466 3.54448L8.98516 3.49844ZM5.70625 5.70859L5.67089 5.67324L5.67085 5.67328L5.70625 5.70859ZM3.49609 8.9875L3.45006 8.968L3.45004 8.96804L3.49609 8.9875ZM3.49844 17.0148L3.54451 16.9954L3.54448 16.9953L3.49844 17.0148ZM5.70859 20.2938L5.67324 20.3291L5.67328 20.3291L5.70859 20.2938ZM8.9875 22.5039L8.968 22.5499L8.96804 22.55L8.9875 22.5039ZM13.7734 17.5375H13.7234V17.5875H13.7734V17.5375ZM12.0859 10.1758H12.1359V10.1258H12.0859V10.1758ZM12.0859 17.5375V17.5875H12.1359V17.5375H12.0859ZM13 0.95C6.34426 0.95 0.95 6.34426 0.95 13H1.05C1.05 6.39949 6.39949 1.05 13 1.05V0.95ZM25.05 13C25.05 6.34426 19.6557 0.95 13 0.95V1.05C19.6005 1.05 24.95 6.39949 24.95 13H25.05ZM13 25.05C19.6557 25.05 25.05 19.6557 25.05 13H24.95C24.95 19.6005 19.6005 24.95 13 24.95V25.05ZM0.95 13C0.95 19.6557 6.34426 25.05 13 25.05V24.95C6.39949 24.95 1.05 19.6005 1.05 13H0.95ZM20.2561 20.2561C19.3137 21.1984 18.2152 21.9401 16.9931 22.4555L17.0319 22.5476C18.2661 22.0271 19.3754 21.2782 20.3268 20.3268L20.2561 20.2561ZM22.4579 16.993C21.9401 18.2152 21.2007 19.3137 20.2561 20.256L20.3267 20.3268C21.2805 19.3754 22.0271 18.266 22.5499 17.032L22.4579 16.993ZM23.2625 13C23.2625 14.3856 22.9919 15.729 22.4578 16.993L22.55 17.032C23.0893 15.7554 23.3625 14.3988 23.3625 13H23.2625ZM22.4555 9.00466C22.9919 10.2711 23.2625 11.6144 23.2625 13H23.3625C23.3625 11.6012 23.0893 10.2446 22.5476 8.96565L22.4555 9.00466ZM20.2561 5.74161C21.1984 6.68396 21.9401 7.78248 22.4555 9.00459L22.5476 8.96573C22.0271 7.73159 21.2782 6.62229 20.3268 5.67089L20.2561 5.74161ZM16.993 3.54213C18.2152 4.05993 19.3114 4.79927 20.2561 5.74165L20.3267 5.67085C19.373 4.71948 18.2661 3.97289 17.032 3.45006L16.993 3.54213ZM13 2.7375C14.3856 2.7375 15.729 3.00806 16.993 3.54215L17.032 3.45004C15.7554 2.91069 14.3988 2.6375 13 2.6375V2.7375ZM9.00466 3.54448C10.2711 3.00806 11.6144 2.7375 13 2.7375V2.6375C11.6012 2.6375 10.2446 2.91069 8.96565 3.4524L9.00466 3.54448ZM5.74161 5.74395C6.68396 4.80159 7.78248 4.05994 9.00459 3.54451L8.96573 3.45237C7.73159 3.97287 6.62229 4.72185 5.67089 5.67324L5.74161 5.74395ZM3.54213 9.007C4.05993 7.78483 4.79927 6.68862 5.74165 5.74391L5.67085 5.67328C4.71948 6.627 3.97289 7.73392 3.45006 8.968L3.54213 9.007ZM2.7375 13C2.7375 11.6144 3.00806 10.271 3.54215 9.00696L3.45004 8.96804C2.91069 10.2446 2.6375 11.6012 2.6375 13H2.7375ZM3.54448 16.9953C3.00806 15.7289 2.7375 14.3856 2.7375 13H2.6375C2.6375 14.3988 2.91069 15.7554 3.4524 17.0343L3.54448 16.9953ZM5.74395 20.2584C4.80159 19.316 4.05994 18.2175 3.54451 16.9954L3.45237 17.0343C3.97287 18.2684 4.72185 19.3777 5.67324 20.3291L5.74395 20.2584ZM9.007 22.4579C7.78483 21.9401 6.68862 21.2007 5.74391 20.2584L5.67328 20.3291C6.627 21.2805 7.73392 22.0271 8.968 22.5499L9.007 22.4579ZM13 23.2625C11.6144 23.2625 10.271 22.9919 9.00696 22.4578L8.96804 22.55C10.2446 23.0893 11.6012 23.3625 13 23.3625V23.2625ZM16.993 22.4555C15.7289 22.9919 14.3856 23.2625 13 23.2625V23.3625C14.3988 23.3625 15.7555 23.0893 17.032 22.5476L16.993 22.4555ZM13.7734 17.5875H15.7703V17.4875H13.7734V17.5875ZM13.7234 9.33203V17.5375H13.8234V9.33203H13.7234ZM12.9297 8.53828C13.3685 8.53828 13.7234 8.89324 13.7234 9.33203H13.8234C13.8234 8.83801 13.4237 8.43828 12.9297 8.43828V8.53828ZM12.0859 8.53828H12.9297V8.43828H12.0859V8.53828ZM10.6797 8.53828H12.0859V8.43828H10.6797V8.53828ZM9.88594 9.33203C9.88594 8.89324 10.2409 8.53828 10.6797 8.53828V8.43828C10.1857 8.43828 9.78594 8.83801 9.78594 9.33203H9.88594ZM10.6797 10.1258C10.2409 10.1258 9.88594 9.77082 9.88594 9.33203H9.78594C9.78594 9.82605 10.1857 10.2258 10.6797 10.2258V10.1258ZM12.0859 10.1258H10.6797V10.2258H12.0859V10.1258ZM12.1359 17.5375V10.1758H12.0359V17.5375H12.1359ZM10.0891 17.5875H12.0859V17.4875H10.0891V17.5875ZM9.29531 18.3813C9.29531 17.9425 9.65027 17.5875 10.0891 17.5875V17.4875C9.59504 17.4875 9.19531 17.8872 9.19531 18.3813H9.29531ZM10.0891 19.175C9.65027 19.175 9.29531 18.82 9.29531 18.3813H9.19531C9.19531 18.8753 9.59504 19.275 10.0891 19.275V19.175ZM12.0859 19.175H10.0891V19.275H12.0859V19.175ZM13.7734 19.175H12.0859V19.275H13.7734V19.175ZM15.7703 19.175H13.7734V19.275H15.7703V19.175ZM16.5641 18.3813C16.5641 18.82 16.2091 19.175 15.7703 19.175V19.275C16.2643 19.275 16.6641 18.8753 16.6641 18.3813H16.5641ZM15.7703 17.5875C16.2091 17.5875 16.5641 17.9425 16.5641 18.3813H16.6641C16.6641 17.8872 16.2643 17.4875 15.7703 17.4875V17.5875ZM12.0359 6.16797C12.0359 6.66157 12.4361 7.06172 12.9297 7.06172V6.96172C12.4913 6.96172 12.1359 6.60634 12.1359 6.16797H12.0359ZM12.9297 5.27422C12.4361 5.27422 12.0359 5.67436 12.0359 6.16797H12.1359C12.1359 5.72959 12.4913 5.37422 12.9297 5.37422V5.27422ZM13.8234 6.16797C13.8234 5.67436 13.4233 5.27422 12.9297 5.27422V5.37422C13.3681 5.37422 13.7234 5.72959 13.7234 6.16797H13.8234ZM12.9297 7.06172C13.4233 7.06172 13.8234 6.66157 13.8234 6.16797H13.7234C13.7234 6.60634 13.3681 6.96172 12.9297 6.96172V7.06172Z" fill="white"/>
</svg>
