<svg width="40" height="35" viewBox="0 0 40 35" fill="none" xmlns="http://www.w3.org/2000/svg">
<path d="M27.1275 12.9023C27.1233 11.7009 26.642 10.5504 25.7895 9.70384C24.9371 8.85728 23.7832 8.38404 22.5818 8.38821L15.7818 8.41191C15.1869 8.41398 14.5983 8.53321 14.0494 8.76278C13.5006 8.99235 13.0024 9.32776 12.5832 9.74988C12.164 10.172 11.8321 10.6725 11.6064 11.2229C11.3806 11.7733 11.2655 12.3628 11.2676 12.9577L11.2931 20.2377C11.2973 21.4391 11.7786 22.5896 12.6311 23.4362C13.4836 24.2827 14.6374 24.756 15.8388 24.7518L22.6388 24.7281C23.2337 24.726 23.8224 24.6068 24.3712 24.3772C24.92 24.1477 25.4182 23.8123 25.8374 23.3901C26.2566 22.968 26.5885 22.4675 26.8142 21.9171C27.04 21.3667 27.1551 20.7772 27.153 20.1823L27.1275 12.9023Z" stroke="#808080" stroke-width="2"/>
<path d="M25.6561 13.1115C25.6576 12.2575 25.3197 11.4379 24.7169 10.833C24.1142 10.2281 23.2957 9.88743 22.4418 9.88592L15.9018 9.87452C15.4789 9.87377 15.06 9.95632 14.6691 10.1175C14.2781 10.2786 13.9227 10.5152 13.6232 10.8136C13.3236 11.1121 13.0858 11.4667 12.9233 11.8571C12.7608 12.2475 12.6768 12.6661 12.6761 13.0889L12.6641 20.0089C12.6626 20.8629 13.0004 21.6825 13.6032 22.2874C14.206 22.8923 15.0244 23.233 15.8784 23.2345L22.4184 23.2459C22.8412 23.2467 23.2601 23.1641 23.6511 23.003C24.042 22.8418 24.3974 22.6053 24.697 22.3068C24.9965 22.0083 25.2343 21.6537 25.3968 21.2634C25.5593 20.873 25.6433 20.4544 25.6441 20.0315L25.6561 13.1115Z" stroke="#808080" stroke-width="2"/>
<path d="M23.7809 13.15C24.1743 12.9767 24.3676 12.6867 24.3609 12.28C24.3476 11.8667 24.1576 11.5434 23.7909 11.31C23.6923 11.2482 23.5807 11.2101 23.4649 11.1988C23.349 11.1876 23.2321 11.2034 23.1235 11.2451C23.0148 11.2869 22.9174 11.3533 22.8388 11.4392C22.7603 11.5251 22.7028 11.6281 22.6709 11.74C22.5776 12.08 22.5976 12.41 22.7309 12.73C22.7712 12.8274 22.8306 12.9157 22.9056 12.9898C22.9806 13.0638 23.0696 13.1221 23.1674 13.1613C23.2653 13.2004 23.37 13.2196 23.4753 13.2177C23.5807 13.2157 23.6846 13.1927 23.7809 13.15Z" stroke="#808080" stroke-width="2"/>
<path d="M23.3712 16.5802C23.3712 15.4742 22.9319 14.4135 22.1499 13.6315C21.3679 12.8495 20.3072 12.4102 19.2012 12.4102C18.0953 12.4102 17.0346 12.8495 16.2526 13.6315C15.4706 14.4135 15.0313 15.4742 15.0312 16.5802C15.0312 17.1278 15.1391 17.67 15.3487 18.1759C15.5582 18.6819 15.8654 19.1416 16.2526 19.5288C17.0346 20.3108 18.0953 20.7502 19.2012 20.7502C19.7489 20.7502 20.2911 20.6423 20.797 20.4327C21.303 20.2232 21.7627 19.916 22.1499 19.5288C22.5371 19.1416 22.8443 18.6819 23.0538 18.1759C23.2634 17.67 23.3712 17.1278 23.3712 16.5802Z" stroke="#808080" stroke-width="2"/>
<path d="M21.8712 16.5802C21.8712 15.872 21.5899 15.1929 21.0892 14.6922C20.5885 14.1915 19.9094 13.9102 19.2012 13.9102C18.4931 13.9102 17.814 14.1915 17.3133 14.6922C16.8126 15.1929 16.5312 15.872 16.5312 16.5802C16.5312 16.9308 16.6003 17.278 16.7345 17.6019C16.8687 17.9259 17.0653 18.2202 17.3133 18.4681C17.5612 18.7161 17.8555 18.9127 18.1795 19.0469C18.5034 19.1811 18.8506 19.2502 19.2012 19.2502C19.5519 19.2502 19.8991 19.1811 20.223 19.0469C20.547 18.9127 20.8413 18.7161 21.0892 18.4681C21.3372 18.2202 21.5338 17.9259 21.668 17.6019C21.8022 17.278 21.8712 16.9308 21.8712 16.5802Z" stroke="#808080" stroke-width="2"/>
<path d="M19.2568 32.6999C15.0876 32.7144 11.0832 31.03 8.12463 28.0173C5.16602 25.0045 3.4955 20.9101 3.48057 16.6349C3.46564 12.3596 5.10752 8.25365 8.04501 5.22029C10.9825 2.18692 14.975 0.474617 19.1442 0.460055C23.3133 0.445494 27.3177 2.12987 30.2763 5.14264C33.2349 8.15542 34.9054 12.2498 34.9204 16.5251C34.9353 20.8003 33.2934 24.9063 30.3559 27.9396C27.4184 30.973 23.4259 32.6853 19.2568 32.6999ZM27.1277 12.9023C27.1235 11.7009 26.6422 10.5503 25.7897 9.70378C24.9372 8.85723 23.7834 8.38398 22.582 8.38815L15.782 8.41185C15.1871 8.41393 14.5984 8.53315 14.0496 8.76272C13.5008 8.99229 13.0026 9.32771 12.5834 9.74982C12.1642 10.1719 11.8323 10.6725 11.6065 11.2229C11.3808 11.7733 11.2657 12.3628 11.2678 12.9577L11.2933 20.2377C11.2975 21.4391 11.7788 22.5896 12.6312 23.4361C13.4837 24.2827 14.6376 24.7559 15.839 24.7518L22.639 24.7281C23.2339 24.726 23.8225 24.6068 24.3713 24.3772C24.9201 24.1476 25.4184 23.8122 25.8375 23.3901C26.2567 22.968 26.5887 22.4674 26.8144 21.917C27.0401 21.3666 27.1552 20.7771 27.1532 20.1823L27.1277 12.9023Z" fill="white"/>
<path d="M27.153 20.1823C27.1551 20.7772 27.04 21.3667 26.8142 21.9171C26.5885 22.4675 26.2566 22.968 25.8374 23.3901C25.4182 23.8123 24.92 24.1477 24.3712 24.3772C23.8224 24.6068 23.2337 24.726 22.6388 24.7281L15.8388 24.7518C14.6374 24.756 13.4836 24.2827 12.6311 23.4362C11.7786 22.5896 11.2973 21.4391 11.2931 20.2377L11.2676 12.9577C11.2655 12.3628 11.3806 11.7733 11.6064 11.2229C11.8321 10.6725 12.164 10.172 12.5832 9.74988C13.0024 9.32776 13.5006 8.99235 14.0494 8.76278C14.5983 8.53321 15.1869 8.41398 15.7818 8.41191L22.5818 8.38821C23.7832 8.38404 24.9371 8.85728 25.7895 9.70384C26.642 10.5504 27.1233 11.7009 27.1275 12.9023L27.153 20.1823ZM25.6563 13.1113C25.6578 12.2573 25.32 11.4377 24.7172 10.8328C24.1144 10.2279 23.296 9.88722 22.442 9.88571L15.902 9.87431C15.4791 9.87356 15.0603 9.95611 14.6693 10.1172C14.2783 10.2784 13.923 10.5149 13.6234 10.8134C13.3239 11.1119 13.0861 11.4665 12.9236 11.8569C12.7611 12.2473 12.677 12.6658 12.6763 13.0887L12.6643 20.0087C12.6628 20.8627 13.0006 21.6823 13.6034 22.2872C14.2062 22.8921 15.0246 23.2328 15.8786 23.2343L22.4186 23.2457C22.8415 23.2465 23.2603 23.1639 23.6513 23.0028C24.0423 22.8416 24.3977 22.6051 24.6972 22.3066C24.9967 22.0081 25.2345 21.6535 25.397 21.2631C25.5596 20.8728 25.6436 20.4542 25.6443 20.0313L25.6563 13.1113Z" fill="#010101"/>
<path d="M25.6441 20.0315C25.6433 20.4544 25.5593 20.873 25.3968 21.2634C25.2343 21.6537 24.9965 22.0083 24.697 22.3068C24.3974 22.6053 24.042 22.8418 23.6511 23.003C23.2601 23.1641 22.8412 23.2467 22.4184 23.2459L15.8784 23.2345C15.0244 23.233 14.206 22.8923 13.6032 22.2874C13.0004 21.6825 12.6626 20.8629 12.6641 20.0089L12.6761 13.0889C12.6768 12.6661 12.7608 12.2475 12.9233 11.8571C13.0858 11.4667 13.3236 11.1121 13.6232 10.8136C13.9227 10.5152 14.2781 10.2786 14.6691 10.1175C15.06 9.95632 15.4789 9.87377 15.9018 9.87452L22.4418 9.88592C23.2957 9.88743 24.1142 10.2281 24.7169 10.833C25.3197 11.4379 25.6576 12.2575 25.6561 13.1115L25.6441 20.0315ZM23.7801 13.1502C24.1734 12.9769 24.3667 12.6869 24.3601 12.2802C24.3467 11.8669 24.1567 11.5436 23.7901 11.3102C23.6915 11.2484 23.5798 11.2103 23.464 11.199C23.3481 11.1878 23.2313 11.2036 23.1226 11.2453C23.014 11.287 22.9165 11.3535 22.8379 11.4394C22.7594 11.5253 22.7019 11.6283 22.6701 11.7402C22.5767 12.0802 22.5967 12.4102 22.7301 12.7302C22.7704 12.8276 22.8298 12.9159 22.9047 12.99C22.9797 13.064 23.0687 13.1223 23.1666 13.1615C23.2644 13.2006 23.3691 13.2198 23.4745 13.2178C23.5798 13.2159 23.6837 13.1929 23.7801 13.1502ZM23.3701 16.5802C23.3701 15.4743 22.9307 14.4136 22.1487 13.6316C21.3667 12.8496 20.306 12.4102 19.2001 12.4102C18.0941 12.4102 17.0335 12.8496 16.2514 13.6316C15.4694 14.4136 15.0301 15.4743 15.0301 16.5802C15.0301 17.1278 15.1379 17.6701 15.3475 18.176C15.5571 18.6819 15.8642 19.1416 16.2514 19.5289C17.0335 20.3109 18.0941 20.7502 19.2001 20.7502C19.7477 20.7502 20.2899 20.6424 20.7959 20.4328C21.3018 20.2232 21.7615 19.9161 22.1487 19.5289C22.5359 19.1416 22.8431 18.6819 23.0526 18.176C23.2622 17.6701 23.3701 17.1278 23.3701 16.5802Z" fill="white"/>
<path d="M23.7809 13.15C23.6846 13.1927 23.5807 13.2157 23.4753 13.2177C23.37 13.2196 23.2653 13.2004 23.1674 13.1613C23.0696 13.1221 22.9806 13.0638 22.9056 12.9898C22.8306 12.9157 22.7712 12.8274 22.7309 12.73C22.5976 12.41 22.5776 12.08 22.6709 11.74C22.7028 11.6281 22.7603 11.5251 22.8388 11.4392C22.9174 11.3533 23.0148 11.2869 23.1235 11.2451C23.2321 11.2034 23.349 11.1876 23.4649 11.1988C23.5807 11.2101 23.6923 11.2482 23.7909 11.31C24.1576 11.5434 24.3476 11.8667 24.3609 12.28C24.3676 12.6867 24.1743 12.9767 23.7809 13.15Z" fill="#010101"/>
<path d="M23.3712 16.5802C23.3712 17.1278 23.2634 17.67 23.0538 18.1759C22.8443 18.6819 22.5371 19.1416 22.1499 19.5288C21.7627 19.916 21.303 20.2232 20.797 20.4327C20.2911 20.6423 19.7489 20.7502 19.2012 20.7502C18.0953 20.7502 17.0346 20.3108 16.2526 19.5288C15.4706 18.7468 15.0312 17.6861 15.0312 16.5802C15.0313 15.4742 15.4706 14.4135 16.2526 13.6315C17.0346 12.8495 18.0953 12.4102 19.2012 12.4102C20.3072 12.4102 21.3679 12.8495 22.1499 13.6315C22.9319 14.4135 23.3712 15.4742 23.3712 16.5802ZM21.8712 16.5802C21.8712 15.872 21.5899 15.1929 21.0892 14.6922C20.5885 14.1915 19.9094 13.9102 19.2012 13.9102C18.4931 13.9102 17.814 14.1915 17.3133 14.6922C16.8126 15.1929 16.5312 15.872 16.5312 16.5802C16.5312 16.9308 16.6003 17.278 16.7345 17.6019C16.8687 17.9259 17.0653 18.2202 17.3133 18.4681C17.5612 18.7161 17.8555 18.9127 18.1795 19.0469C18.5034 19.1811 18.8506 19.2502 19.2012 19.2502C19.5519 19.2502 19.8991 19.1811 20.223 19.0469C20.547 18.9127 20.8413 18.7161 21.0892 18.4681C21.3372 18.2202 21.5338 17.9259 21.668 17.6019C21.8022 17.278 21.8712 16.9308 21.8712 16.5802Z" fill="#010101"/>
<path d="M19.2012 19.2502C20.6758 19.2502 21.8712 18.0548 21.8712 16.5802C21.8712 15.1056 20.6758 13.9102 19.2012 13.9102C17.7266 13.9102 16.5312 15.1056 16.5312 16.5802C16.5312 18.0548 17.7266 19.2502 19.2012 19.2502Z" fill="white"/>
</svg>
