<svg width="40" height="35" viewBox="0 0 40 35" fill="none" xmlns="http://www.w3.org/2000/svg">
<g clip-path="url(#clip0_1122_7819)">
<path d="M26.8267 12.9026C26.8225 11.7012 26.3412 10.5506 25.4888 9.70408C24.6363 8.85753 23.4824 8.38428 22.281 8.38846L15.481 8.41215C14.8861 8.41423 14.2975 8.53345 13.7487 8.76302C13.1999 8.99259 12.7016 9.32801 12.2825 9.75013C11.8633 10.1722 11.5313 10.6728 11.3056 11.2232C11.0799 11.7736 10.9647 12.3631 10.9668 12.958L10.9923 20.238C10.9965 21.4394 11.4778 22.5899 12.3303 23.4364C13.1828 24.283 14.3366 24.7562 15.538 24.7521L22.338 24.7284C22.9329 24.7263 23.5216 24.6071 24.0704 24.3775C24.6192 24.1479 25.1174 23.8125 25.5366 23.3904C25.9558 22.9683 26.2877 22.4677 26.5135 21.9173C26.7392 21.3669 26.8543 20.7774 26.8522 20.1826L26.8267 12.9026Z" stroke="#808080" stroke-width="2"/>
<path d="M25.3553 13.1115C25.3568 12.2575 25.019 11.4379 24.4162 10.833C23.8134 10.2281 22.995 9.88743 22.141 9.88592L15.601 9.87452C15.1781 9.87377 14.7592 9.95632 14.3683 10.1175C13.9773 10.2786 13.6219 10.5152 13.3224 10.8136C13.0229 11.1121 12.7851 11.4667 12.6225 11.8571C12.46 12.2475 12.376 12.6661 12.3753 13.0889L12.3633 20.0089C12.3618 20.8629 12.6996 21.6825 13.3024 22.2874C13.9052 22.8923 14.7236 23.233 15.5776 23.2345L22.1176 23.2459C22.5405 23.2467 22.9593 23.1641 23.3503 23.003C23.7412 22.8418 24.0966 22.6053 24.3962 22.3068C24.6957 22.0083 24.9335 21.6537 25.096 21.2634C25.2585 20.873 25.3426 20.4544 25.3433 20.0315L25.3553 13.1115Z" stroke="#808080" stroke-width="2"/>
<path d="M23.4792 13.1503C23.8725 12.9769 24.0658 12.6869 24.0592 12.2803C24.0458 11.8669 23.8558 11.5436 23.4892 11.3103C23.3906 11.2484 23.2789 11.2103 23.1631 11.1991C23.0473 11.1878 22.9304 11.2037 22.8217 11.2454C22.7131 11.2871 22.6156 11.3535 22.537 11.4394C22.4585 11.5253 22.401 11.6283 22.3692 11.7403C22.2758 12.0803 22.2958 12.4103 22.4292 12.7303C22.4695 12.8276 22.5289 12.9159 22.6038 12.99C22.6788 13.0641 22.7678 13.1224 22.8657 13.1615C22.9635 13.2007 23.0682 13.2198 23.1736 13.2179C23.2789 13.216 23.3828 13.193 23.4792 13.1503Z" stroke="#808080" stroke-width="2"/>
<path d="M23.0695 16.5802C23.0695 15.4742 22.6302 14.4135 21.8481 13.6315C21.0661 12.8495 20.0054 12.4102 18.8995 12.4102C17.7935 12.4102 16.7329 12.8495 15.9509 13.6315C15.1688 14.4135 14.7295 15.4742 14.7295 16.5802C14.7295 17.1278 14.8374 17.67 15.0469 18.1759C15.2565 18.6819 15.5636 19.1416 15.9509 19.5288C16.7329 20.3108 17.7935 20.7502 18.8995 20.7502C19.4471 20.7502 19.9894 20.6423 20.4953 20.4327C21.0012 20.2232 21.4609 19.916 21.8481 19.5288C22.2353 19.1416 22.5425 18.6819 22.7521 18.1759C22.9616 17.67 23.0695 17.1278 23.0695 16.5802Z" stroke="#808080" stroke-width="2"/>
<path d="M21.5695 16.5802C21.5695 15.872 21.2882 15.1929 20.7875 14.6922C20.2867 14.1915 19.6076 13.9102 18.8995 13.9102C18.1914 13.9102 17.5122 14.1915 17.0115 14.6922C16.5108 15.1929 16.2295 15.872 16.2295 16.5802C16.2295 16.9308 16.2986 17.278 16.4327 17.6019C16.5669 17.9259 16.7636 18.2202 17.0115 18.4681C17.2594 18.7161 17.5538 18.9127 17.8777 19.0469C18.2017 19.1811 18.5489 19.2502 18.8995 19.2502C19.2501 19.2502 19.5973 19.1811 19.9213 19.0469C20.2452 18.9127 20.5395 18.7161 20.7875 18.4681C21.0354 18.2202 21.2321 17.9259 21.3663 17.6019C21.5004 17.278 21.5695 16.9308 21.5695 16.5802Z" stroke="#808080" stroke-width="2"/>
<path d="M18.956 32.7001C14.7868 32.7147 10.7825 31.0303 7.82385 28.0175C4.86524 25.0047 3.19472 20.9104 3.17979 16.6351C3.16486 12.3598 4.80674 8.25389 7.74423 5.22053C10.6817 2.18717 14.6742 0.474861 18.8434 0.460299C23.0126 0.445738 27.0169 2.13012 29.9755 5.14289C32.9341 8.15566 34.6047 12.25 34.6196 16.5253C34.6345 20.8006 32.9926 24.9065 30.0551 27.9399C27.1176 30.9732 23.1252 32.6855 18.956 32.7001ZM26.8269 12.9025C26.8227 11.7011 26.3414 10.5506 25.4889 9.70402C24.6364 8.85747 23.4826 8.38423 22.2812 8.3884L15.4812 8.4121C14.8863 8.41417 14.2976 8.53339 13.7488 8.76296C13.2 8.99253 12.7018 9.32795 12.2826 9.75007C11.8634 10.1722 11.5315 10.6727 11.3058 11.2231C11.08 11.7735 10.9649 12.363 10.967 12.9579L10.9925 20.2379C10.9967 21.4393 11.478 22.5898 12.3305 23.4364C13.1829 24.2829 14.3368 24.7562 15.5382 24.752L22.3382 24.7283C22.9331 24.7262 23.5217 24.607 24.0705 24.3774C24.6194 24.1479 25.1176 23.8124 25.5368 23.3903C25.9559 22.9682 26.2879 22.4677 26.5136 21.9173C26.7394 21.3669 26.8545 20.7774 26.8524 20.1825L26.8269 12.9025Z" fill="black"/>
<path d="M26.8522 20.1826C26.8543 20.7774 26.7392 21.3669 26.5135 21.9173C26.2877 22.4677 25.9558 22.9683 25.5366 23.3904C25.1174 23.8125 24.6192 24.1479 24.0704 24.3775C23.5216 24.6071 22.9329 24.7263 22.338 24.7284L15.538 24.7521C14.3366 24.7562 13.1828 24.283 12.3303 23.4364C11.4778 22.5899 10.9965 21.4394 10.9923 20.238L10.9668 12.958C10.9647 12.3631 11.0799 11.7736 11.3056 11.2232C11.5313 10.6728 11.8633 10.1722 12.2825 9.75013C12.7016 9.32801 13.1999 8.99259 13.7487 8.76302C14.2975 8.53345 14.8861 8.41423 15.481 8.41215L22.281 8.38846C23.4824 8.38428 24.6363 8.85753 25.4888 9.70408C26.3412 10.5506 26.8225 11.7012 26.8267 12.9026L26.8522 20.1826ZM25.3555 13.1116C25.357 12.2576 25.0192 11.438 24.4164 10.8331C23.8136 10.2282 22.9952 9.88747 22.1412 9.88596L15.6012 9.87456C15.1784 9.87381 14.7595 9.95636 14.3685 10.1175C13.9776 10.2786 13.6222 10.5152 13.3226 10.8137C13.0231 11.1122 12.7853 11.4667 12.6228 11.8571C12.4603 12.2475 12.3763 12.6661 12.3755 13.089L12.3635 20.009C12.362 20.8629 12.6998 21.6825 13.3026 22.2874C13.9054 22.8924 14.7238 23.233 15.5778 23.2346L22.1178 23.246C22.5407 23.2467 22.9596 23.1642 23.3505 23.003C23.7415 22.8419 24.0969 22.6053 24.3964 22.3068C24.696 22.0083 24.9338 21.6538 25.0963 21.2634C25.2588 20.873 25.3428 20.4544 25.3435 20.0316L25.3555 13.1116Z" fill="white"/>
<path d="M25.3433 20.0315C25.3426 20.4544 25.2585 20.873 25.096 21.2634C24.9335 21.6537 24.6957 22.0083 24.3962 22.3068C24.0966 22.6053 23.7412 22.8418 23.3503 23.003C22.9593 23.1641 22.5405 23.2467 22.1176 23.2459L15.5776 23.2345C14.7236 23.233 13.9052 22.8923 13.3024 22.2874C12.6996 21.6825 12.3618 20.8629 12.3633 20.0089L12.3753 13.0889C12.376 12.6661 12.46 12.2475 12.6225 11.8571C12.7851 11.4667 13.0229 11.1121 13.3224 10.8136C13.6219 10.5152 13.9773 10.2786 14.3683 10.1175C14.7592 9.95632 15.1781 9.87377 15.601 9.87452L22.141 9.88592C22.995 9.88743 23.8134 10.2281 24.4162 10.833C25.019 11.4379 25.3568 12.2575 25.3553 13.1115L25.3433 20.0315ZM23.4793 13.1502C23.8726 12.9769 24.066 12.6869 24.0593 12.2802C24.046 11.8669 23.856 11.5436 23.4893 11.3102C23.3907 11.2484 23.2791 11.2103 23.1632 11.199C23.0474 11.1878 22.9305 11.2036 22.8218 11.2453C22.7132 11.287 22.6157 11.3535 22.5372 11.4394C22.4586 11.5253 22.4011 11.6283 22.3693 11.7402C22.276 12.0802 22.296 12.4102 22.4293 12.7302C22.4696 12.8276 22.529 12.9159 22.604 12.99C22.6789 13.064 22.7679 13.1223 22.8658 13.1615C22.9636 13.2006 23.0683 13.2198 23.1737 13.2178C23.279 13.2159 23.3829 13.1929 23.4793 13.1502ZM23.0693 16.5802C23.0693 15.4743 22.6299 14.4136 21.8479 13.6316C21.0659 12.8496 20.0052 12.4102 18.8993 12.4102C17.7933 12.4102 16.7327 12.8496 15.9507 13.6316C15.1686 14.4136 14.7293 15.4743 14.7293 16.5802C14.7293 17.1278 14.8371 17.6701 15.0467 18.176C15.2563 18.6819 15.5634 19.1416 15.9507 19.5289C16.7327 20.3109 17.7933 20.7502 18.8993 20.7502C19.4469 20.7502 19.9891 20.6424 20.4951 20.4328C21.001 20.2232 21.4607 19.9161 21.8479 19.5289C22.2351 19.1416 22.5423 18.6819 22.7519 18.176C22.9614 17.6701 23.0693 17.1278 23.0693 16.5802Z" fill="white"/>
<path d="M23.4792 13.1503C23.3828 13.193 23.2789 13.216 23.1736 13.2179C23.0682 13.2198 22.9635 13.2007 22.8657 13.1615C22.7678 13.1224 22.6788 13.0641 22.6038 12.99C22.5289 12.9159 22.4695 12.8276 22.4292 12.7303C22.2958 12.4103 22.2758 12.0803 22.3692 11.7403C22.401 11.6283 22.4585 11.5253 22.537 11.4394C22.6156 11.3535 22.7131 11.2871 22.8217 11.2454C22.9304 11.2037 23.0473 11.1878 23.1631 11.1991C23.2789 11.2103 23.3906 11.2484 23.4892 11.3103C23.8558 11.5436 24.0458 11.8669 24.0592 12.2803C24.0658 12.6869 23.8725 12.9769 23.4792 13.1503Z" fill="#010101"/>
<path d="M23.0695 16.5802C23.0695 17.1278 22.9616 17.67 22.7521 18.1759C22.5425 18.6819 22.2353 19.1416 21.8481 19.5288C21.4609 19.916 21.0012 20.2232 20.4953 20.4327C19.9894 20.6423 19.4471 20.7502 18.8995 20.7502C17.7935 20.7502 16.7329 20.3108 15.9509 19.5288C15.1688 18.7468 14.7295 17.6861 14.7295 16.5802C14.7295 15.4742 15.1688 14.4135 15.9509 13.6315C16.7329 12.8495 17.7935 12.4102 18.8995 12.4102C20.0054 12.4102 21.0661 12.8495 21.8481 13.6315C22.6302 14.4135 23.0695 15.4742 23.0695 16.5802ZM21.5695 16.5802C21.5695 15.872 21.2882 15.1929 20.7875 14.6922C20.2867 14.1915 19.6076 13.9102 18.8995 13.9102C18.1914 13.9102 17.5122 14.1915 17.0115 14.6922C16.5108 15.1929 16.2295 15.872 16.2295 16.5802C16.2295 16.9308 16.2986 17.278 16.4327 17.6019C16.5669 17.9259 16.7636 18.2202 17.0115 18.4681C17.2594 18.7161 17.5538 18.9127 17.8777 19.0469C18.2017 19.1811 18.5489 19.2502 18.8995 19.2502C19.2501 19.2502 19.5973 19.1811 19.9213 19.0469C20.2452 18.9127 20.5395 18.7161 20.7875 18.4681C21.0354 18.2202 21.2321 17.9259 21.3663 17.6019C21.5004 17.278 21.5695 16.9308 21.5695 16.5802Z" fill="#010101"/>
<path d="M18.8995 19.2502C20.3741 19.2502 21.5695 18.0548 21.5695 16.5802C21.5695 15.1056 20.3741 13.9102 18.8995 13.9102C17.4249 13.9102 16.2295 15.1056 16.2295 16.5802C16.2295 18.0548 17.4249 19.2502 18.8995 19.2502Z" fill="black"/>
</g>
<defs>
<clipPath id="clip0_1122_7819">
<rect width="39" height="35" fill="white" transform="translate(0.599609 0.000244141)"/>
</clipPath>
</defs>
</svg>
