<svg width="258" height="44" viewBox="0 0 258 44" fill="none" xmlns="http://www.w3.org/2000/svg">
<path d="M15.1896 36.1269C16.6087 36.1269 17.7256 36.0733 18.5403 35.9662C19.3637 35.8502 19.9813 35.7073 20.393 35.5377C20.796 35.3681 21.0544 35.1762 21.1683 34.9619C21.2821 34.7566 21.3391 34.5379 21.3391 34.3058C21.3391 33.4399 20.8266 32.9088 19.8017 32.7124C18.7768 32.5249 17.1475 32.3955 14.9137 32.3241C14.1691 32.3241 13.2844 32.2839 12.2595 32.2036C11.2345 32.1322 10.1746 31.9983 9.07962 31.8019C7.98463 31.6144 6.89402 31.3332 5.8078 30.9583C4.73033 30.5745 3.77552 30.0433 2.94333 29.3649C2.10238 28.6775 1.41911 27.8206 0.893518 26.794C0.376685 25.7763 0.118274 24.5266 0.118274 23.0448V22.469C0.118274 21.2192 0.350409 20.0364 0.814682 18.9206C1.27896 17.7958 2.08923 16.8005 3.24554 15.9346C4.40184 15.0598 5.93921 14.3635 7.85763 13.8458C9.76728 13.3369 12.1762 13.0825 15.0845 13.0825H16.6482C18.768 13.0825 20.8354 13.2075 22.8502 13.4574C24.8562 13.6985 26.8096 14.0466 28.7105 14.5019V22.4154C26.4767 21.8887 24.2605 21.4826 22.0618 21.1969C19.863 20.9113 17.5942 20.7684 15.2553 20.7684C13.8012 20.7684 12.6624 20.8265 11.839 20.9425C11.0243 21.0496 10.4111 21.2014 9.9994 21.3978C9.58769 21.5852 9.32928 21.7816 9.22416 21.9869C9.11028 22.2012 9.05333 22.4199 9.05333 22.6431C9.05333 23.4375 9.55704 23.9419 10.5644 24.1561C11.5631 24.3614 13.2011 24.5043 15.4787 24.5846C16.1795 24.6203 17.0424 24.656 18.0673 24.6917C19.0922 24.7274 20.1565 24.8524 21.2602 25.0667C22.3552 25.272 23.4414 25.5666 24.5189 25.9504C25.5964 26.3253 26.5643 26.8565 27.4228 27.5438C28.2813 28.2223 28.9689 29.0748 29.4858 30.1013C30.0113 31.1279 30.2742 32.3777 30.2742 33.8506V34.4263C30.2742 35.6761 30.042 36.8589 29.5777 37.9747C29.1135 39.0995 28.3032 40.0993 27.1469 40.9741C25.9906 41.84 24.4532 42.5318 22.5348 43.0496C20.6164 43.5584 18.2074 43.8128 15.3079 43.8128H13.7443C11.3265 43.8128 8.97888 43.6878 6.70132 43.4379C4.43251 43.1969 2.19873 42.8487 0 42.3934V34.4799C2.46153 35.0155 5.00629 35.4217 7.63425 35.6984C10.2535 35.9841 12.7719 36.1269 15.1896 36.1269Z" fill="white"/>
<path d="M39.9321 14.2203H37.6984V42.6742H46.6334V18.2105L39.9321 14.2203ZM37.1465 4.94095V4.25805C37.1465 3.08865 37.4794 2.08439 38.1451 1.24528C38.8196 0.415094 40.0854 0 41.9425 0H42.3893C44.2551 0 45.5209 0.415094 46.1867 1.24528C46.8612 2.08439 47.1984 3.08865 47.1984 4.25805V4.94095C47.1984 6.11927 46.8612 7.128 46.1867 7.96711C45.5209 8.79729 44.2551 9.21239 42.3893 9.21239H41.9425C40.0854 9.21239 38.8196 8.79729 38.1451 7.96711C37.4794 7.128 37.1465 6.11927 37.1465 4.94095Z" fill="white"/>
<path d="M87.5081 3.97686V42.6743H85.2744L82.2654 40.9068C80.4783 41.8976 78.5774 42.6296 76.5627 43.1027C74.5567 43.5759 72.3229 43.8124 69.8614 43.8124C66.7341 43.8124 64.1455 43.442 62.0957 42.701C60.0547 41.9601 58.4166 40.9469 57.1814 39.6615C55.9551 38.3671 55.101 36.8585 54.6192 35.1356C54.1374 33.4128 53.8965 31.5649 53.8965 29.5921V27.3158C53.8965 25.343 54.1374 23.4907 54.6192 21.7589C55.101 20.0361 55.9551 18.5274 57.1814 17.2331C58.4166 15.9476 60.0547 14.9344 62.0957 14.1935C64.1455 13.4526 66.7341 13.0821 69.8614 13.0821C71.4995 13.0821 73.0368 13.1982 74.4734 13.4303C75.9013 13.6534 77.2678 13.9748 78.5731 14.3944V0H80.8068L87.5081 3.97686ZM70.3607 35.5641C73.304 35.5641 76.0415 35.1669 78.5731 34.3724V22.5891C77.3116 22.1695 76.0108 21.8571 74.6705 21.6518C73.3303 21.4376 71.8937 21.3304 70.3607 21.3304C68.4685 21.3304 67.0188 21.5313 66.0114 21.933C65.004 22.3347 64.2594 22.8569 63.7776 23.4996C63.2958 24.1424 63.0155 24.9011 62.9367 25.7759C62.8666 26.6508 62.8316 27.5434 62.8316 28.454C62.8316 29.3645 62.8666 30.2527 62.9367 31.1186C63.0155 31.9934 63.2958 32.7522 63.7776 33.3949C64.2594 34.0466 65.004 34.5688 66.0114 34.9616C67.0188 35.3633 68.4685 35.5641 70.3607 35.5641Z" fill="white"/>
<path d="M111.242 43.8128H110.191C107.064 43.8128 104.475 43.4423 102.425 42.7014C100.375 41.9605 98.7374 40.9473 97.511 39.6619C96.2846 38.3675 95.4261 36.8589 94.9356 35.136C94.4538 33.4132 94.2129 31.5653 94.2129 29.5925V27.3162C94.2129 25.3434 94.4538 23.4911 94.9356 21.7593C95.4261 20.0364 96.2846 18.5278 97.511 17.2334C98.7374 15.948 100.375 14.9348 102.425 14.1939C104.475 13.453 107.064 13.0825 110.191 13.0825H111.755C114.917 13.0825 117.501 13.3191 119.507 13.7922C121.522 14.2653 123.085 14.9214 124.198 15.7605C125.319 16.5907 126.086 17.5593 126.497 18.6662C126.9 19.7642 127.102 20.938 127.102 22.1878V22.7636C127.102 23.8973 126.966 24.9774 126.695 26.004C126.414 27.0305 125.753 27.9411 124.71 28.7355C123.668 29.53 122.131 30.1549 120.098 30.6102C118.066 31.0654 115.302 31.2931 111.807 31.2931C110.134 31.2931 108.588 31.2172 107.169 31.0654C105.758 30.9137 104.418 30.6503 103.148 30.2754C103.183 31.0699 103.314 31.7974 103.542 32.458C103.761 33.1275 104.182 33.6899 104.804 34.1451C105.417 34.6004 106.28 34.9486 107.392 35.1896C108.513 35.4395 110.003 35.5645 111.86 35.5645C112.753 35.5645 113.752 35.5243 114.856 35.444C115.951 35.3726 117.085 35.2699 118.259 35.136C119.433 35.0021 120.585 34.8325 121.715 34.6272C122.853 34.413 123.904 34.1541 124.868 33.8506V42.3934C123.904 42.6166 122.853 42.813 121.715 42.9826C120.585 43.1611 119.415 43.3129 118.206 43.4379C116.989 43.5718 115.784 43.67 114.593 43.7325C113.401 43.786 112.285 43.8128 111.242 43.8128ZM111.807 20.1927C110.318 20.1927 109.07 20.2775 108.062 20.4471C107.055 20.6256 106.236 20.8845 105.605 21.2237C104.974 21.5629 104.493 21.978 104.16 22.469C103.818 22.9689 103.573 23.5402 103.424 24.1829C104.51 24.4864 105.675 24.7051 106.919 24.839C108.163 24.9729 109.604 25.0399 111.242 25.0399C112.88 25.0399 114.168 24.9729 115.105 24.839C116.034 24.7051 116.721 24.5311 117.168 24.3168C117.615 24.1115 117.895 23.8839 118.009 23.6339C118.114 23.3929 118.167 23.1385 118.167 22.8707C118.167 22.6029 118.123 22.3083 118.035 21.9869C117.939 21.6656 117.676 21.371 117.247 21.1032C116.818 20.8443 116.178 20.6256 115.329 20.4471C114.47 20.2775 113.296 20.1927 111.807 20.1927Z" fill="white"/>
<path d="M166.808 42.6742H158.215L151.96 32.6585H143.025V42.6742H134.09V0H136.324L143.025 3.97686V24.2361H151.96L158.215 14.2203H166.808V16.4966L159.384 28.454L166.808 40.3979V42.6742Z" fill="white"/>
<path d="M175.075 14.2203H172.841V42.6742H181.776V18.2105L175.075 14.2203ZM172.289 4.94095V4.25805C172.289 3.08865 172.622 2.08439 173.288 1.24528C173.962 0.415094 175.228 0 177.085 0H177.532C179.398 0 180.664 0.415094 181.329 1.24528C182.004 2.08439 182.341 3.08865 182.341 4.25805V4.94095C182.341 6.11927 182.004 7.128 181.329 7.96711C180.664 8.79729 179.398 9.21239 177.532 9.21239H177.085C175.228 9.21239 173.962 8.79729 173.288 7.96711C172.622 7.128 172.289 6.11927 172.289 4.94095Z" fill="white"/>
<path d="M189.043 29.5925V27.3162C189.043 25.3434 189.284 23.4911 189.766 21.7593C190.247 20.0364 191.102 18.5278 192.328 17.2334C193.563 15.948 195.201 14.9348 197.242 14.1939C199.292 13.453 201.881 13.0825 205.008 13.0825H206.571C208.586 13.0825 210.553 13.2075 212.471 13.4574C214.381 13.6985 216.251 14.0466 218.082 14.5019V22.9912C215.997 22.3842 213.912 21.9557 211.827 21.7057C209.743 21.4558 207.916 21.3308 206.348 21.3308C204.263 21.3308 202.656 21.5138 201.526 21.8798C200.387 22.2369 199.555 22.7279 199.029 23.3527C198.512 23.9776 198.206 24.7274 198.109 25.6023C198.022 26.4771 197.978 27.4278 197.978 28.4544C197.978 29.472 198.022 30.4182 198.109 31.2931C198.206 32.1679 198.512 32.9177 199.029 33.5426C199.555 34.1675 200.387 34.6584 201.526 35.0155C202.656 35.3815 204.263 35.5645 206.348 35.5645C207.916 35.5645 209.743 35.4395 211.827 35.1896C213.912 34.9486 215.997 34.5245 218.082 33.9175V42.3934C216.251 42.8487 214.381 43.1969 212.471 43.4379C210.553 43.6878 208.586 43.8128 206.571 43.8128H205.008C201.881 43.8128 199.292 43.4423 197.242 42.7014C195.201 41.9605 193.563 40.9473 192.328 39.6619C191.102 38.3675 190.247 36.8589 189.766 35.136C189.284 33.4132 189.043 31.5653 189.043 29.5925Z" fill="white"/>
<path d="M257.999 42.6742H249.406L243.151 32.6585H234.216V42.6742H225.281V0H227.515L234.216 3.97686V24.2361H243.151L249.406 14.2203H257.999V16.4966L250.575 28.454L257.999 40.3979V42.6742Z" fill="white"/>
</svg>
