<svg width="241" height="41" viewBox="0 0 241 41" fill="none" xmlns="http://www.w3.org/2000/svg">
<path d="M110.512 22.0165C109.282 22.6505 108.267 22.4322 107.47 21.3617C107.349 21.2006 107.172 21.0925 106.974 21.0599C106.245 20.946 106.025 21.2725 106.313 22.0393C106.403 22.2813 106.557 22.4924 106.758 22.6486C108.267 23.8388 111.333 24.1235 112.278 22.0222C113.532 19.2433 110.467 18.7365 108.672 18.3208C108.125 18.1956 107.766 17.7685 107.772 17.2047C107.776 16.734 108.002 16.4284 108.45 16.2879C109.517 15.9614 110.269 16.1152 110.706 16.7492C110.96 17.1174 111.31 17.3091 111.754 17.3243C112.062 17.3357 112.147 16.9561 112.011 16.1854C111.988 16.0506 111.934 15.9227 111.854 15.8113C111.774 15.6998 111.67 15.6077 111.549 15.542C109.885 14.646 108.402 14.6935 107.099 15.6843C105.647 16.7833 106.091 18.8618 107.795 19.454C108.661 19.7577 109.532 20.0235 110.41 20.2513C110.949 20.3917 111.169 20.7277 111.071 21.2592C111.04 21.4191 110.974 21.5702 110.878 21.7013C110.781 21.8324 110.656 21.9401 110.512 22.0165Z" stroke="#7DDBF6" stroke-width="2"/>
<path d="M115.56 16.6922L115.412 15.8608C115.374 15.633 115.239 15.5286 115.008 15.5476L114.387 15.6045C114.105 15.6273 113.98 15.7792 114.011 16.0601C114.075 16.6561 113.838 17.0737 113.298 17.3129C113.224 17.3466 113.159 17.3996 113.11 17.4666C112.951 17.6944 112.93 17.8671 113.048 17.9848C113.287 18.2297 113.543 18.1784 113.84 18.2525C114.014 18.2942 114.102 18.4043 114.102 18.5827C114.13 19.9039 113.39 23.9982 116.096 23.4743C117.099 23.2807 117.178 22.8953 116.335 22.3183C116.16 22.1968 115.986 22.0829 115.811 21.9766C115.594 21.84 115.486 21.6445 115.486 21.3901V18.5087C115.486 18.243 115.615 18.1405 115.874 18.2012C116.219 18.2809 116.521 18.2297 116.779 18.0475C116.958 17.9222 116.998 17.7627 116.899 17.5691C116.705 17.1819 116.396 16.9997 115.97 17.0225C115.874 17.0266 115.78 16.9955 115.705 16.9348C115.629 16.8741 115.578 16.788 115.56 16.6922Z" stroke="#7DDBF6" stroke-width="2"/>
<path d="M129.342 16.5727C129.329 16.694 129.288 16.8107 129.223 16.914C129.158 17.0173 129.07 17.1046 128.967 17.1692C128.863 17.2339 128.746 17.2742 128.625 17.2873C128.503 17.3004 128.38 17.2858 128.265 17.2446C127.57 16.9978 126.908 17.0206 126.277 17.3129C126.049 17.4192 125.825 17.4116 125.605 17.2902C125.339 17.1459 125.058 17.0776 124.762 17.0852C124.48 17.0928 124.34 17.237 124.34 17.5179V23.0757C124.336 23.3756 124.484 23.5161 124.784 23.4971L125.308 23.4629C125.578 23.4478 125.715 23.3035 125.719 23.0302L125.787 19.5224C125.792 19.2523 125.89 18.9918 126.065 18.7845C126.24 18.5771 126.482 18.4356 126.75 18.3835L128.448 18.0646C129.017 17.9583 129.314 18.1956 129.337 18.7764C129.399 20.6613 128.55 23.6566 131.65 23.4402C131.745 23.435 131.836 23.4048 131.916 23.3527C131.995 23.3007 132.058 23.2287 132.1 23.1441C132.18 22.9846 132.172 22.8252 132.077 22.6657C131.644 21.9425 130.641 22.2842 130.761 21.02C130.835 20.1886 130.749 19.3402 130.852 18.5031C130.875 18.3019 130.989 18.2108 131.194 18.2297C131.486 18.2525 131.747 18.1842 131.974 18.0247C132.048 17.9736 132.105 17.9013 132.138 17.8175C132.17 17.7336 132.177 17.6421 132.156 17.555C132.136 17.468 132.09 17.3895 132.024 17.33C131.957 17.2705 131.875 17.2328 131.786 17.2218C131.16 17.1383 130.822 16.772 130.772 16.1228C130.763 15.9966 130.712 15.8771 130.629 15.7825C130.546 15.6879 130.434 15.6235 130.311 15.5989L129.804 15.4964C129.583 15.4509 129.46 15.5401 129.433 15.7641L129.342 16.5727Z" stroke="#7DDBF6" stroke-width="2"/>
<path d="M120.961 19.6307C119.326 19.7844 117.514 19.7787 117.691 21.9711C117.805 23.3434 119.537 23.8218 120.608 23.2808C121.177 22.9923 121.749 23.0359 122.323 23.4118C122.38 23.4495 122.446 23.4714 122.515 23.4752C122.583 23.4791 122.651 23.4648 122.713 23.4337C122.775 23.4026 122.827 23.3559 122.866 23.2981C122.904 23.2403 122.927 23.1735 122.932 23.1043C123.02 21.7224 123.016 20.2627 122.921 18.7252C122.813 16.9372 120.682 16.8745 119.337 17.1023C119.15 17.1344 118.972 17.207 118.815 17.3152C118.659 17.4234 118.528 17.5645 118.431 17.7287L118.055 18.3779C118.018 18.4375 118.002 18.5078 118.008 18.5778C118.015 18.6477 118.045 18.7135 118.093 18.7648C118.141 18.8161 118.205 18.8501 118.274 18.8615C118.344 18.8729 118.415 18.861 118.477 18.8277C120.038 18.0533 121.026 17.9982 121.44 18.6626C121.804 19.2434 121.645 19.5661 120.961 19.6307Z" stroke="#7DDBF6" stroke-width="2"/>
<path d="M121.585 21.134C121.559 21.0265 121.5 20.928 121.411 20.8444C121.322 20.7608 121.204 20.6935 121.066 20.6466C120.927 20.5996 120.769 20.5738 120.602 20.5706C120.435 20.5675 120.261 20.587 120.091 20.6282C119.747 20.7113 119.439 20.8773 119.233 21.0897C119.027 21.302 118.941 21.5434 118.994 21.7606C119.02 21.8682 119.079 21.9666 119.168 22.0503C119.257 22.1339 119.375 22.2011 119.513 22.2481C119.652 22.2951 119.81 22.3209 119.977 22.324C120.144 22.3272 120.318 22.3076 120.488 22.2665C120.831 22.1834 121.14 22.0174 121.346 21.805C121.552 21.5926 121.638 21.3513 121.585 21.134Z" stroke="#7DDBF6" stroke-width="2"/>
<path d="M7.29818 35.7175C6.19858 35.4897 5.7086 34.7323 4.91097 34.0718C4.57292 33.7908 4.30514 33.4587 4.10763 33.0752C3.41255 31.7276 3.05741 30.3096 3.04222 28.8215C2.97765 22.2311 2.98714 15.6332 3.07071 9.0276C3.10489 6.2601 4.89387 3.77733 7.45201 2.6783C8.43956 2.25311 9.36633 2.04052 10.2323 2.04052C82.9198 2.03293 155.516 2.02723 228.021 2.02344C231.804 2.02344 234.955 2.84913 236.579 6.48219C237.053 7.55274 237.283 8.86436 237.268 10.417C237.207 16.9087 237.183 23.2808 237.194 29.5333C237.194 30.452 236.932 31.3954 236.408 32.3634C235.697 33.6732 234.687 34.7418 233.377 35.5694C232.685 36.006 231.888 36.2546 230.984 36.3154C230.103 36.3723 229.225 36.4008 228.352 36.4008C155.968 36.4198 84.9879 36.4179 15.4113 36.3951C13.1171 36.3913 10.7945 36.3439 8.44335 36.2527C8.05593 36.2357 7.75967 35.8143 7.29818 35.7175ZM111.122 22.0166C109.891 22.6506 108.877 22.4323 108.079 21.3618C107.959 21.2007 107.781 21.0926 107.584 21.06C106.855 20.9461 106.634 21.2726 106.923 22.0394C107.012 22.2814 107.166 22.4925 107.367 22.6487C108.877 23.8389 111.942 24.1236 112.888 22.0223C114.142 19.2434 111.076 18.7366 109.282 18.3209C108.735 18.1957 108.376 17.7686 108.381 17.2048C108.385 16.7341 108.611 16.4285 109.059 16.288C110.127 15.9615 110.879 16.1153 111.316 16.7493C111.57 17.1175 111.92 17.3092 112.364 17.3244C112.672 17.3358 112.757 16.9562 112.62 16.1855C112.597 16.0507 112.544 15.9228 112.464 15.8113C112.384 15.6999 112.28 15.6078 112.159 15.5421C110.495 14.6461 109.012 14.6936 107.709 15.6844C106.256 16.7834 106.701 18.8619 108.404 19.4541C109.27 19.7578 110.142 20.0236 111.019 20.2514C111.559 20.3918 111.779 20.7278 111.68 21.2593C111.65 21.4192 111.584 21.5703 111.487 21.7014C111.391 21.8325 111.266 21.9402 111.122 22.0166ZM116.17 16.6923L116.022 15.8609C115.984 15.6332 115.849 15.5288 115.617 15.5477L114.996 15.6047C114.715 15.6275 114.59 15.7793 114.62 16.0602C114.685 16.6563 114.447 17.0739 113.908 17.313C113.833 17.3467 113.769 17.3997 113.72 17.4668C113.56 17.6945 113.539 17.8673 113.657 17.985C113.897 18.2298 114.153 18.1786 114.449 18.2526C114.624 18.2944 114.711 18.4045 114.711 18.5829C114.74 19.904 113.999 23.9983 116.705 23.4744C117.708 23.2808 117.788 22.8955 116.945 22.3184C116.77 22.197 116.595 22.0831 116.42 21.9768C116.204 21.8401 116.096 21.6446 116.096 21.3902V18.5089C116.096 18.2431 116.225 18.1406 116.483 18.2014C116.829 18.2811 117.131 18.2298 117.389 18.0476C117.568 17.9223 117.607 17.7629 117.509 17.5693C117.315 17.182 117.005 16.9998 116.58 17.0226C116.484 17.0267 116.39 16.9956 116.314 16.9349C116.239 16.8742 116.188 16.7881 116.17 16.6923ZM129.952 16.5727C129.938 16.6941 129.897 16.8108 129.832 16.9141C129.767 17.0174 129.68 17.1047 129.576 17.1693C129.473 17.234 129.356 17.2743 129.234 17.2874C129.113 17.3004 128.99 17.2858 128.875 17.2447C128.18 16.9979 127.517 17.0207 126.887 17.313C126.659 17.4193 126.435 17.4117 126.214 17.2902C125.948 17.146 125.667 17.0777 125.371 17.0852C125.09 17.0928 124.949 17.2371 124.949 17.518V23.0758C124.946 23.3757 125.094 23.5162 125.394 23.4972L125.918 23.463C126.188 23.4478 126.324 23.3036 126.328 23.0302L126.397 19.5225C126.401 19.2524 126.499 18.9918 126.675 18.7845C126.85 18.5772 127.092 18.4357 127.359 18.3836L129.057 18.0647C129.627 17.9584 129.923 18.1957 129.946 18.7765C130.009 20.6614 129.16 23.6566 132.259 23.4402C132.354 23.4351 132.446 23.4049 132.525 23.3528C132.604 23.3008 132.668 23.2287 132.709 23.1441C132.789 22.9847 132.782 22.8252 132.687 22.6658C132.254 21.9426 131.251 22.2843 131.37 21.0201C131.445 20.1887 131.359 19.3402 131.462 18.5032C131.484 18.302 131.598 18.2108 131.803 18.2298C132.096 18.2526 132.356 18.1843 132.584 18.0248C132.658 17.9737 132.715 17.9014 132.747 17.8175C132.78 17.7337 132.786 17.6421 132.766 17.5551C132.745 17.468 132.699 17.3896 132.633 17.3301C132.567 17.2706 132.484 17.2329 132.396 17.2219C131.769 17.1384 131.431 16.772 131.382 16.1229C131.372 15.9967 131.322 15.8772 131.238 15.7826C131.155 15.688 131.043 15.6235 130.92 15.599L130.413 15.4965C130.193 15.4509 130.07 15.5402 130.043 15.7641L129.952 16.5727ZM121.571 19.6307C119.936 19.7844 118.124 19.7787 118.301 21.9711C118.415 23.3434 120.147 23.8218 121.218 23.2808C121.787 22.9923 122.359 23.0359 122.933 23.4118C122.99 23.4495 123.056 23.4714 123.124 23.4752C123.193 23.4791 123.261 23.4648 123.323 23.4337C123.385 23.4026 123.437 23.3559 123.476 23.2981C123.514 23.2403 123.537 23.1735 123.542 23.1043C123.63 21.7224 123.626 20.2627 123.531 18.7252C123.423 16.9372 121.292 16.8745 119.947 17.1023C119.76 17.1344 119.582 17.207 119.425 17.3152C119.269 17.4234 119.138 17.5645 119.041 17.7287L118.665 18.3779C118.628 18.4375 118.611 18.5078 118.618 18.5778C118.625 18.6478 118.655 18.7135 118.703 18.7648C118.751 18.8162 118.815 18.8501 118.884 18.8615C118.954 18.8729 119.025 18.861 119.087 18.8277C120.648 18.0533 121.635 17.9983 122.049 18.6626C122.414 19.2434 122.255 19.5661 121.571 19.6307Z" fill="#00B8F1"/>
<path d="M110.512 22.0165C110.656 21.9401 110.781 21.8324 110.878 21.7013C110.974 21.5702 111.04 21.4191 111.071 21.2592C111.169 20.7277 110.949 20.3917 110.41 20.2513C109.532 20.0235 108.661 19.7577 107.795 19.454C106.091 18.8618 105.647 16.7833 107.099 15.6843C108.402 14.6935 109.885 14.646 111.549 15.542C111.67 15.6077 111.774 15.6998 111.854 15.8113C111.934 15.9227 111.988 16.0506 112.011 16.1854C112.147 16.9561 112.062 17.3357 111.754 17.3243C111.31 17.3091 110.96 17.1174 110.706 16.7492C110.269 16.1152 109.517 15.9614 108.45 16.2879C108.002 16.4284 107.776 16.734 107.772 17.2047C107.766 17.7685 108.125 18.1956 108.672 18.3208C110.467 18.7365 113.532 19.2433 112.278 22.0222C111.333 24.1235 108.267 23.8388 106.758 22.6486C106.557 22.4924 106.403 22.2813 106.313 22.0393C106.025 21.2725 106.245 20.946 106.974 21.0599C107.172 21.0925 107.349 21.2006 107.47 21.3617C108.267 22.4322 109.282 22.6505 110.512 22.0165Z" fill="#F9FDFB"/>
<path d="M115.97 17.0225C116.396 16.9997 116.705 17.1819 116.899 17.5691C116.998 17.7627 116.958 17.9222 116.779 18.0475C116.521 18.2297 116.219 18.2809 115.874 18.2012C115.615 18.1405 115.486 18.243 115.486 18.5087V21.3901C115.486 21.6445 115.594 21.84 115.811 21.9766C115.986 22.0829 116.16 22.1968 116.335 22.3183C117.178 22.8953 117.099 23.2807 116.096 23.4743C113.39 23.9982 114.13 19.9039 114.102 18.5827C114.102 18.4043 114.014 18.2942 113.84 18.2525C113.543 18.1784 113.287 18.2297 113.048 17.9848C112.93 17.8671 112.951 17.6944 113.11 17.4666C113.159 17.3996 113.224 17.3466 113.298 17.3129C113.838 17.0737 114.075 16.6561 114.011 16.0601C113.98 15.7792 114.105 15.6273 114.387 15.6045L115.008 15.5476C115.239 15.5286 115.374 15.633 115.412 15.8608L115.56 16.6922C115.578 16.788 115.629 16.8741 115.705 16.9348C115.78 16.9955 115.874 17.0266 115.97 17.0225Z" fill="#F9FDFB"/>
<path d="M129.342 16.5727L129.433 15.7641C129.46 15.5401 129.583 15.4509 129.804 15.4964L130.311 15.5989C130.434 15.6235 130.546 15.6879 130.629 15.7825C130.712 15.8771 130.763 15.9966 130.772 16.1228C130.822 16.772 131.16 17.1383 131.786 17.2218C131.875 17.2328 131.957 17.2705 132.024 17.33C132.09 17.3895 132.136 17.468 132.156 17.555C132.177 17.6421 132.17 17.7336 132.138 17.8175C132.105 17.9013 132.048 17.9736 131.974 18.0247C131.747 18.1842 131.486 18.2525 131.194 18.2297C130.989 18.2108 130.875 18.3019 130.852 18.5031C130.749 19.3402 130.835 20.1886 130.761 21.02C130.641 22.2842 131.644 21.9425 132.077 22.6657C132.172 22.8252 132.18 22.9846 132.1 23.1441C132.058 23.2287 131.995 23.3007 131.916 23.3527C131.836 23.4048 131.745 23.435 131.65 23.4402C128.55 23.6566 129.399 20.6613 129.337 18.7764C129.314 18.1956 129.017 17.9583 128.448 18.0646L126.75 18.3835C126.482 18.4356 126.24 18.5771 126.065 18.7845C125.89 18.9918 125.792 19.2523 125.787 19.5224L125.719 23.0302C125.715 23.3035 125.578 23.4478 125.308 23.4629L124.784 23.4971C124.484 23.5161 124.336 23.3756 124.34 23.0757V17.5179C124.34 17.237 124.48 17.0928 124.762 17.0852C125.058 17.0776 125.339 17.1459 125.605 17.2902C125.825 17.4116 126.049 17.4192 126.277 17.3129C126.908 17.0206 127.57 16.9978 128.265 17.2446C128.38 17.2858 128.503 17.3004 128.625 17.2873C128.746 17.2742 128.863 17.2339 128.967 17.1692C129.07 17.1046 129.158 17.0173 129.223 16.914C129.288 16.8107 129.329 16.694 129.342 16.5727Z" fill="#F9FDFB"/>
<path d="M120.961 19.6307C121.645 19.5661 121.804 19.2434 121.44 18.6626C121.026 17.9982 120.038 18.0533 118.477 18.8277C118.415 18.861 118.344 18.8729 118.274 18.8615C118.205 18.8501 118.141 18.8161 118.093 18.7648C118.045 18.7135 118.015 18.6477 118.008 18.5778C118.002 18.5078 118.018 18.4375 118.055 18.3779L118.431 17.7287C118.528 17.5645 118.659 17.4234 118.815 17.3152C118.972 17.207 119.15 17.1344 119.337 17.1023C120.682 16.8745 122.813 16.9372 122.921 18.7252C123.016 20.2627 123.02 21.7224 122.932 23.1043C122.927 23.1735 122.904 23.2403 122.866 23.2981C122.827 23.3559 122.775 23.4026 122.713 23.4337C122.651 23.4648 122.583 23.4791 122.515 23.4752C122.446 23.4714 122.38 23.4495 122.323 23.4118C121.749 23.0359 121.177 22.9923 120.608 23.2808C119.537 23.8218 117.805 23.3434 117.691 21.9711C117.514 19.7787 119.326 19.7844 120.961 19.6307ZM121.585 21.1339C121.558 21.0263 121.499 20.9279 121.41 20.8442C121.321 20.7606 121.204 20.6934 121.065 20.6464C120.926 20.5994 120.769 20.5736 120.601 20.5705C120.434 20.5673 120.261 20.5869 120.09 20.628C119.747 20.7111 119.438 20.8771 119.232 21.0895C119.026 21.3019 118.94 21.5432 118.993 21.7605C119.019 21.8681 119.078 21.9665 119.167 22.0501C119.257 22.1338 119.374 22.201 119.513 22.248C119.651 22.2949 119.809 22.3207 119.976 22.3239C120.143 22.327 120.317 22.3075 120.487 22.2663C120.831 22.1832 121.139 22.0172 121.345 21.8049C121.551 21.5925 121.637 21.3511 121.585 21.1339Z" fill="#F9FDFB"/>
<path d="M120.487 22.2664C121.203 22.0933 121.694 21.5863 121.585 21.1339C121.475 20.6815 120.806 20.455 120.091 20.6281C119.375 20.8011 118.884 21.3082 118.993 21.7606C119.103 22.213 119.772 22.4394 120.487 22.2664Z" fill="#00B8F1"/>
</svg>
