<svg width="36" height="35" viewBox="0 0 36 35" fill="none" xmlns="http://www.w3.org/2000/svg">
<path d="M15.2402 19.3004C12.4402 17.7404 11.8002 14.8404 11.5702 11.8704C11.5569 11.6771 11.4569 11.5838 11.2702 11.5904L8.79024 11.6604C8.59691 11.6604 8.49691 11.7604 8.49024 11.9604C8.32024 17.9604 11.8502 23.0004 18.3202 23.0404C18.4608 23.0404 18.5956 22.9846 18.695 22.8852C18.7944 22.7858 18.8502 22.651 18.8502 22.5104V19.5104C18.8497 19.4329 18.8675 19.3564 18.9023 19.2871C18.937 19.2179 18.9877 19.1578 19.0502 19.112C19.1127 19.0661 19.1851 19.0357 19.2616 19.0232C19.3381 19.0108 19.4165 19.0167 19.4902 19.0404C21.4236 19.6204 22.7969 20.8738 23.6102 22.8004C23.6636 22.9404 23.7669 23.0104 23.9202 23.0104L26.7202 23.0004C26.743 22.9997 26.7652 22.9939 26.7854 22.9833C26.8055 22.9728 26.823 22.9578 26.8365 22.9395C26.8499 22.9212 26.8591 22.9 26.8632 22.8777C26.8673 22.8553 26.8663 22.8323 26.8602 22.8104C26.1802 20.4704 24.8102 18.7404 22.7502 17.6204C22.3769 17.4204 22.3669 17.2038 22.7202 16.9704C24.5536 15.7504 25.7102 14.0438 26.1902 11.8504C26.2236 11.6771 26.1536 11.5904 25.9802 11.5904L23.4802 11.6304C23.4122 11.6307 23.3459 11.6519 23.2904 11.6913C23.2349 11.7307 23.1929 11.7863 23.1702 11.8504C22.4436 13.8371 21.2402 15.2104 19.5602 15.9704C19.0736 16.1904 18.8302 16.0338 18.8302 15.5004L18.8502 12.0704C18.8569 11.7838 18.7136 11.6371 18.4202 11.6304L16.2902 11.6204C15.9969 11.6138 15.8502 11.7604 15.8502 12.0604V18.9504C15.8502 19.4104 15.6469 19.5271 15.2402 19.3004Z" stroke="#808080" stroke-width="2"/>
<path d="M15.4896 1.00024H20.2796C26.8129 2.34691 31.0729 5.67024 33.0596 10.9702C36.8796 21.1802 30.6396 31.7102 19.8496 33.0802C10.8796 34.2202 3.35961 28.0702 1.59961 19.3102V14.7602C3.29961 7.27358 7.92961 2.68691 15.4896 1.00024ZM15.2396 19.3002C12.4396 17.7402 11.7996 14.8402 11.5696 11.8702C11.5563 11.6769 11.4563 11.5836 11.2696 11.5902L8.78961 11.6602C8.59628 11.6602 8.49628 11.7602 8.48961 11.9602C8.31961 17.9602 11.8496 23.0002 18.3196 23.0402C18.4602 23.0402 18.595 22.9844 18.6944 22.885C18.7938 22.7856 18.8496 22.6508 18.8496 22.5102V19.5102C18.8491 19.4327 18.8669 19.3562 18.9016 19.287C18.9364 19.2177 18.9871 19.1576 19.0496 19.1118C19.112 19.0659 19.1845 19.0355 19.261 19.0231C19.3375 19.0106 19.4158 19.0165 19.4896 19.0402C21.4229 19.6202 22.7963 20.8736 23.6096 22.8002C23.6629 22.9402 23.7663 23.0102 23.9196 23.0102L26.7196 23.0002C26.7423 22.9996 26.7646 22.9937 26.7847 22.9832C26.8049 22.9726 26.8223 22.9576 26.8358 22.9393C26.8493 22.921 26.8585 22.8999 26.8626 22.8775C26.8667 22.8552 26.8657 22.8322 26.8596 22.8102C26.1796 20.4702 24.8096 18.7402 22.7496 17.6202C22.3763 17.4202 22.3663 17.2036 22.7196 16.9702C24.5529 15.7502 25.7096 14.0436 26.1896 11.8502C26.2229 11.6769 26.1529 11.5902 25.9796 11.5902L23.4796 11.6302C23.4116 11.6305 23.3452 11.6517 23.2898 11.6911C23.2343 11.7305 23.1923 11.7861 23.1696 11.8502C22.4429 13.8369 21.2396 15.2102 19.5596 15.9702C19.0729 16.1902 18.8296 16.0336 18.8296 15.5002L18.8496 12.0702C18.8563 11.7836 18.7129 11.6369 18.4196 11.6302L16.2896 11.6202C15.9963 11.6136 15.8496 11.7602 15.8496 12.0602V18.9502C15.8496 19.4102 15.6463 19.5269 15.2396 19.3002Z" fill="black"/>
<path d="M15.8502 18.9504V12.0604C15.8502 11.7604 15.9969 11.6138 16.2902 11.6204L18.4202 11.6304C18.7136 11.6371 18.8569 11.7838 18.8502 12.0704L18.8302 15.5004C18.8302 16.0338 19.0736 16.1904 19.5602 15.9704C21.2402 15.2104 22.4436 13.8371 23.1702 11.8504C23.1929 11.7863 23.2349 11.7307 23.2904 11.6913C23.3459 11.6519 23.4122 11.6307 23.4802 11.6304L25.9802 11.5904C26.1536 11.5904 26.2236 11.6771 26.1902 11.8504C25.7102 14.0438 24.5536 15.7504 22.7202 16.9704C22.3669 17.2038 22.3769 17.4204 22.7502 17.6204C24.8102 18.7404 26.1802 20.4704 26.8602 22.8104C26.8663 22.8323 26.8673 22.8553 26.8632 22.8777C26.8591 22.9 26.8499 22.9212 26.8365 22.9395C26.823 22.9578 26.8055 22.9728 26.7854 22.9833C26.7652 22.9939 26.743 22.9997 26.7202 23.0004L23.9202 23.0104C23.7669 23.0104 23.6636 22.9404 23.6102 22.8004C22.7969 20.8738 21.4236 19.6204 19.4902 19.0404C19.4165 19.0167 19.3381 19.0108 19.2616 19.0232C19.1851 19.0357 19.1127 19.0661 19.0502 19.112C18.9877 19.1578 18.937 19.2179 18.9023 19.2871C18.8675 19.3564 18.8497 19.4329 18.8502 19.5104V22.5104C18.8502 22.651 18.7944 22.7858 18.695 22.8852C18.5956 22.9846 18.4608 23.0404 18.3202 23.0404C11.8502 23.0004 8.32024 17.9604 8.49024 11.9604C8.49691 11.7604 8.59691 11.6604 8.79024 11.6604L11.2702 11.5904C11.4569 11.5838 11.5569 11.6771 11.5702 11.8704C11.8002 14.8404 12.4402 17.7404 15.2402 19.3004C15.6469 19.5271 15.8502 19.4104 15.8502 18.9504Z" fill="white"/>
</svg>
