<svg width="36" height="35" viewBox="0 0 36 35" fill="none" xmlns="http://www.w3.org/2000/svg">
<path d="M15.541 19.3002C12.741 17.7402 12.101 14.8402 11.871 11.8702C11.8577 11.6768 11.7577 11.5835 11.571 11.5902L9.09102 11.6602C8.89769 11.6602 8.79769 11.7602 8.79102 11.9602C8.62102 17.9602 12.151 23.0002 18.621 23.0402C18.7616 23.0402 18.8964 22.9843 18.9958 22.8849C19.0952 22.7856 19.151 22.6507 19.151 22.5102V19.5102C19.1505 19.4327 19.1683 19.3562 19.2031 19.2869C19.2378 19.2176 19.2885 19.1576 19.351 19.1117C19.4134 19.0658 19.4859 19.0354 19.5624 19.023C19.6389 19.0106 19.7172 19.0165 19.791 19.0402C21.7244 19.6202 23.0977 20.8735 23.911 22.8002C23.9644 22.9402 24.0677 23.0102 24.221 23.0102L27.021 23.0002C27.0437 22.9995 27.066 22.9936 27.0861 22.9831C27.1063 22.9725 27.1237 22.9575 27.1372 22.9392C27.1507 22.9209 27.1599 22.8998 27.164 22.8774C27.1681 22.8551 27.1671 22.8321 27.161 22.8102C26.481 20.4702 25.111 18.7402 23.051 17.6202C22.6777 17.4202 22.6677 17.2035 23.021 16.9702C24.8544 15.7502 26.011 14.0435 26.491 11.8502C26.5244 11.6768 26.4544 11.5902 26.281 11.5902L23.781 11.6302C23.713 11.6304 23.6467 11.6517 23.5912 11.6911C23.5357 11.7304 23.4937 11.786 23.471 11.8502C22.7444 13.8368 21.541 15.2102 19.861 15.9702C19.3744 16.1902 19.131 16.0335 19.131 15.5002L19.151 12.0702C19.1577 11.7835 19.0144 11.6368 18.721 11.6302L16.591 11.6202C16.2977 11.6135 16.151 11.7602 16.151 12.0602V18.9502C16.151 19.4102 15.9477 19.5268 15.541 19.3002Z" stroke="#808080" stroke-width="2"/>
<path d="M15.7904 1H20.5804C27.1137 2.34667 31.3737 5.67 33.3604 10.97C37.1804 21.18 30.9404 31.71 20.1504 33.08C11.1804 34.22 3.66039 28.07 1.90039 19.31V14.76C3.60039 7.27333 8.23039 2.68667 15.7904 1ZM15.5404 19.3C12.7404 17.74 12.1004 14.84 11.8704 11.87C11.8571 11.6767 11.7571 11.5833 11.5704 11.59L9.09039 11.66C8.89706 11.66 8.79706 11.76 8.79039 11.96C8.62039 17.96 12.1504 23 18.6204 23.04C18.761 23.04 18.8958 22.9842 18.9952 22.8848C19.0946 22.7854 19.1504 22.6506 19.1504 22.51V19.51C19.1498 19.4325 19.1677 19.356 19.2024 19.2867C19.2372 19.2174 19.2879 19.1574 19.3503 19.1115C19.4128 19.0657 19.4853 19.0353 19.5618 19.0228C19.6383 19.0104 19.7166 19.0163 19.7904 19.04C21.7237 19.62 23.0971 20.8733 23.9104 22.8C23.9637 22.94 24.0671 23.01 24.2204 23.01L27.0204 23C27.0431 22.9993 27.0654 22.9935 27.0855 22.9829C27.1056 22.9723 27.1231 22.9573 27.1366 22.939C27.1501 22.9207 27.1592 22.8996 27.1634 22.8773C27.1675 22.8549 27.1665 22.8319 27.1604 22.81C26.4804 20.47 25.1104 18.74 23.0504 17.62C22.6771 17.42 22.6671 17.2033 23.0204 16.97C24.8537 15.75 26.0104 14.0433 26.4904 11.85C26.5237 11.6767 26.4537 11.59 26.2804 11.59L23.7804 11.63C23.7123 11.6302 23.646 11.6515 23.5905 11.6909C23.535 11.7303 23.4931 11.7858 23.4704 11.85C22.7437 13.8367 21.5404 15.21 19.8604 15.97C19.3737 16.19 19.1304 16.0333 19.1304 15.5L19.1504 12.07C19.1571 11.7833 19.0137 11.6367 18.7204 11.63L16.5904 11.62C16.2971 11.6133 16.1504 11.76 16.1504 12.06V18.95C16.1504 19.41 15.9471 19.5267 15.5404 19.3Z" fill="white"/>
<path d="M16.151 18.9502V12.0602C16.151 11.7602 16.2977 11.6135 16.591 11.6202L18.721 11.6302C19.0144 11.6368 19.1577 11.7835 19.151 12.0702L19.131 15.5002C19.131 16.0335 19.3744 16.1902 19.861 15.9702C21.541 15.2102 22.7444 13.8368 23.471 11.8502C23.4937 11.786 23.5357 11.7304 23.5912 11.6911C23.6467 11.6517 23.713 11.6304 23.781 11.6302L26.281 11.5902C26.4544 11.5902 26.5244 11.6768 26.491 11.8502C26.011 14.0435 24.8544 15.7502 23.021 16.9702C22.6677 17.2035 22.6777 17.4202 23.051 17.6202C25.111 18.7402 26.481 20.4702 27.161 22.8102C27.1671 22.8321 27.1681 22.8551 27.164 22.8774C27.1599 22.8998 27.1507 22.9209 27.1372 22.9392C27.1237 22.9575 27.1063 22.9725 27.0861 22.9831C27.066 22.9936 27.0437 22.9995 27.021 23.0002L24.221 23.0102C24.0677 23.0102 23.9644 22.9402 23.911 22.8002C23.0977 20.8735 21.7244 19.6202 19.791 19.0402C19.7172 19.0165 19.6389 19.0106 19.5624 19.023C19.4859 19.0354 19.4134 19.0658 19.351 19.1117C19.2885 19.1576 19.2378 19.2176 19.2031 19.2869C19.1683 19.3562 19.1505 19.4327 19.151 19.5102V22.5102C19.151 22.6507 19.0952 22.7856 18.9958 22.8849C18.8964 22.9843 18.7616 23.0402 18.621 23.0402C12.151 23.0002 8.62102 17.9602 8.79102 11.9602C8.79769 11.7602 8.89769 11.6602 9.09102 11.6602L11.571 11.5902C11.7577 11.5835 11.8577 11.6768 11.871 11.8702C12.101 14.8402 12.741 17.7402 15.541 19.3002C15.9477 19.5268 16.151 19.4102 16.151 18.9502Z" fill="black"/>
</svg>
