<svg width="36" height="35" viewBox="0 0 36 35" fill="none" xmlns="http://www.w3.org/2000/svg">
<path d="M11.7097 21.8299L11.0397 24.5699C10.9064 25.0899 11.0964 25.2799 11.6097 25.1399L14.4797 24.3599C14.7597 24.2799 15.0364 24.2966 15.3097 24.4099C24.4597 28.2299 30.8697 16.0199 23.0397 10.5799C21.2064 9.30657 19.2197 8.90657 17.0797 9.3799C11.8197 10.5499 9.70969 15.9199 11.6397 20.7799C11.7797 21.1199 11.803 21.4699 11.7097 21.8299Z" stroke="#808080" stroke-width="2"/>
<path d="M13.1897 21.6699L12.8897 22.9599C12.7763 23.4333 12.9297 23.5433 13.3497 23.2899C13.7163 23.0766 14.1197 22.9333 14.5597 22.8599C14.8983 22.8012 15.25 22.8465 15.5697 22.9899C25.0897 27.3299 29.0797 12.5499 19.9297 10.7399C14.3897 9.64993 10.5997 15.4499 13.0397 20.3299C13.253 20.7566 13.303 21.2033 13.1897 21.6699Z" stroke="#808080" stroke-width="2"/>
<path d="M16.9898 16.3397C17.3698 15.6064 17.3398 14.8464 16.8998 14.0597C16.8204 13.9185 16.7079 13.7987 16.5719 13.7106C16.4359 13.6225 16.2806 13.5687 16.1192 13.554C15.9579 13.5392 15.7953 13.5639 15.6456 13.6258C15.4959 13.6878 15.3635 13.7852 15.2598 13.9097C12.5398 17.1997 21.2398 23.7597 22.5698 19.7797C22.6831 19.4464 22.6098 19.1597 22.3498 18.9197C21.4765 18.1264 20.6331 18.1231 19.8198 18.9097C19.5131 19.2097 19.1998 19.2131 18.8798 18.9197L17.1598 17.3097C16.8531 17.0297 16.7965 16.7064 16.9898 16.3397Z" stroke="#808080" stroke-width="2"/>
<path d="M18.334 33.3887C16.2685 33.3634 14.2282 32.9218 12.3298 32.0889C10.4314 31.2561 8.71198 30.0483 7.2697 28.5346C5.82742 27.0209 4.69054 25.2309 3.92397 23.2669C3.1574 21.3028 2.77616 19.2031 2.80201 17.0877C2.85422 12.8154 4.56142 8.73829 7.54804 5.75335C10.5347 2.76841 14.5561 1.12011 18.7276 1.17107C20.7932 1.19631 22.8334 1.63796 24.7318 2.47083C26.6302 3.30369 28.3496 4.51144 29.7919 6.02513C31.2342 7.53882 32.3711 9.3288 33.1377 11.2929C33.9042 13.2569 34.2855 15.3566 34.2596 17.4721C34.2074 21.7444 32.5002 25.8215 29.5136 28.8064C26.527 31.7913 22.5055 33.4396 18.334 33.3887ZM11.7108 21.8299L11.0408 24.5699C10.9075 25.0899 11.0975 25.2799 11.6108 25.1399L14.4808 24.3599C14.7608 24.2799 15.0375 24.2965 15.3108 24.4099C24.4608 28.2299 30.8708 16.0199 23.0408 10.5799C21.2075 9.30654 19.2208 8.90654 17.0808 9.37987C11.8208 10.5499 9.71081 15.9199 11.6408 20.7799C11.7808 21.1199 11.8041 21.4699 11.7108 21.8299Z" fill="white"/>
<path d="M11.6397 20.7799C9.70969 15.9199 11.8197 10.5499 17.0797 9.3799C19.2197 8.90657 21.2064 9.30657 23.0397 10.5799C30.8697 16.0199 24.4597 28.2299 15.3097 24.4099C15.0364 24.2966 14.7597 24.2799 14.4797 24.3599L11.6097 25.1399C11.0964 25.2799 10.9064 25.0899 11.0397 24.5699L11.7097 21.8299C11.803 21.4699 11.7797 21.1199 11.6397 20.7799ZM13.1897 21.6699L12.8897 22.9599C12.7764 23.4332 12.9297 23.5432 13.3497 23.2899C13.7164 23.0766 14.1197 22.9332 14.5597 22.8599C14.8983 22.8012 15.25 22.8464 15.5697 22.9899C25.0897 27.3299 29.0797 12.5499 19.9297 10.7399C14.3897 9.6499 10.5997 15.4499 13.0397 20.3299C13.253 20.7566 13.303 21.2032 13.1897 21.6699Z" fill="#010100"/>
<path d="M13.0397 20.3299C10.5997 15.4499 14.3897 9.64993 19.9297 10.7399C29.0797 12.5499 25.0897 27.3299 15.5697 22.9899C15.25 22.8465 14.8983 22.8012 14.5597 22.8599C14.1197 22.9333 13.7163 23.0766 13.3497 23.2899C12.9297 23.5433 12.7763 23.4333 12.8897 22.9599L13.1897 21.6699C13.303 21.2033 13.253 20.7566 13.0397 20.3299ZM16.9897 16.3399C17.3697 15.6066 17.3397 14.8466 16.8997 14.0599C16.8203 13.9187 16.7077 13.7989 16.5718 13.7108C16.4358 13.6227 16.2804 13.5689 16.1191 13.5542C15.9577 13.5394 15.7952 13.5641 15.6455 13.626C15.4958 13.688 15.3634 13.7854 15.2597 13.9099C12.5397 17.1999 21.2397 23.7599 22.5697 19.7799C22.683 19.4466 22.6097 19.1599 22.3497 18.9199C21.4763 18.1266 20.633 18.1233 19.8197 18.9099C19.513 19.2099 19.1997 19.2133 18.8797 18.9199L17.1597 17.3099C16.853 17.0299 16.7963 16.7066 16.9897 16.3399Z" fill="white"/>
<path d="M17.1598 17.3102L18.8798 18.9202C19.1998 19.2136 19.5131 19.2102 19.8198 18.9102C20.6331 18.1236 21.4765 18.1269 22.3498 18.9202C22.6098 19.1602 22.6831 19.4469 22.5698 19.7802C21.2398 23.7602 12.5398 17.2002 15.2598 13.9102C15.3635 13.7857 15.4959 13.6883 15.6456 13.6263C15.7953 13.5644 15.9579 13.5397 16.1192 13.5544C16.2806 13.5692 16.4359 13.623 16.5719 13.7111C16.7079 13.7992 16.8204 13.919 16.8998 14.0602C17.3398 14.8469 17.3698 15.6069 16.9898 16.3402C16.7965 16.7069 16.8531 17.0302 17.1598 17.3102Z" fill="#010100"/>
</svg>
