<svg width="36" height="35" viewBox="0 0 36 35" fill="none" xmlns="http://www.w3.org/2000/svg">
<path d="M11.4089 21.8301L10.7389 24.5701C10.6056 25.0901 10.7956 25.2801 11.3089 25.1401L14.1789 24.3601C14.4589 24.2801 14.7356 24.2968 15.0089 24.4101C24.1589 28.2301 30.5689 16.0201 22.7389 10.5801C20.9056 9.30682 18.9189 8.90682 16.7789 9.38015C11.5189 10.5501 9.4089 15.9201 11.3389 20.7801C11.4789 21.1201 11.5022 21.4701 11.4089 21.8301Z" stroke="#808080" stroke-width="2"/>
<path d="M12.8889 21.6702L12.5889 22.9602C12.4756 23.4335 12.6289 23.5435 13.0489 23.2902C13.4156 23.0768 13.8189 22.9335 14.2589 22.8602C14.5975 22.8014 14.9492 22.8467 15.2689 22.9902C24.7889 27.3302 28.7789 12.5502 19.6289 10.7402C14.0889 9.65017 10.2989 15.4502 12.7389 20.3302C12.9522 20.7568 13.0022 21.2035 12.8889 21.6702Z" stroke="#808080" stroke-width="2"/>
<path d="M16.689 16.3402C17.069 15.6069 17.039 14.8469 16.599 14.0602C16.5196 13.919 16.4071 13.7992 16.2711 13.7111C16.1351 13.623 15.9798 13.5692 15.8184 13.5544C15.6571 13.5397 15.4945 13.5644 15.3448 13.6263C15.1951 13.6883 15.0627 13.7857 14.959 13.9102C12.239 17.2002 20.939 23.7602 22.269 19.7802C22.3824 19.4469 22.309 19.1602 22.049 18.9202C21.1757 18.1269 20.3324 18.1236 19.519 18.9102C19.2124 19.2102 18.899 19.2136 18.579 18.9202L16.859 17.3102C16.5524 17.0302 16.4957 16.7069 16.689 16.3402Z" stroke="#808080" stroke-width="2"/>
<path d="M18.0332 33.3889C15.9677 33.3637 13.9275 32.922 12.029 32.0892C10.1306 31.2563 8.41119 30.0485 6.96891 28.5349C5.52664 27.0212 4.38976 25.2312 3.62319 23.2671C2.85662 21.303 2.47538 19.2034 2.50123 17.0879C2.55344 12.8156 4.26063 8.73853 7.24726 5.75359C10.2339 2.76865 14.2553 1.12036 18.4268 1.17131C20.4924 1.19655 22.5326 1.63821 24.431 2.47107C26.3294 3.30393 28.0489 4.51168 29.4911 6.02537C30.9334 7.53906 32.0703 9.32904 32.8369 11.2931C33.6034 13.2572 33.9847 15.3569 33.9588 17.4723C33.9066 21.7446 32.1994 25.8217 29.2128 28.8066C26.2262 31.7916 22.2048 33.4399 18.0332 33.3889ZM11.41 21.8301L10.74 24.5701C10.6067 25.0901 10.7967 25.2801 11.31 25.1401L14.18 24.3601C14.46 24.2801 14.7367 24.2968 15.01 24.4101C24.16 28.2301 30.57 16.0201 22.74 10.5801C20.9067 9.30678 18.92 8.90678 16.78 9.38011C11.52 10.5501 9.41003 15.9201 11.34 20.7801C11.48 21.1201 11.5034 21.4701 11.41 21.8301Z" fill="#141414"/>
<path d="M11.3389 20.7801C9.4089 15.9201 11.5189 10.5501 16.7789 9.38015C18.9189 8.90682 20.9056 9.30682 22.7389 10.5801C30.5689 16.0201 24.1589 28.2301 15.0089 24.4101C14.7356 24.2968 14.4589 24.2801 14.1789 24.3601L11.3089 25.1401C10.7956 25.2801 10.6056 25.0901 10.7389 24.5701L11.4089 21.8301C11.5022 21.4701 11.4789 21.1201 11.3389 20.7801ZM12.8889 21.6701L12.5889 22.9601C12.4756 23.4335 12.6289 23.5435 13.0489 23.2901C13.4156 23.0768 13.8189 22.9335 14.2589 22.8601C14.5975 22.8014 14.9493 22.8467 15.2689 22.9901C24.7889 27.3301 28.7789 12.5501 19.6289 10.7401C14.0889 9.65015 10.2989 15.4501 12.7389 20.3301C12.9522 20.7568 13.0022 21.2035 12.8889 21.6701Z" fill="#010100"/>
<path d="M12.7389 20.3302C10.2989 15.4502 14.0889 9.65017 19.6289 10.7402C28.7789 12.5502 24.7889 27.3302 15.2689 22.9902C14.9492 22.8467 14.5975 22.8014 14.2589 22.8602C13.8189 22.9335 13.4156 23.0768 13.0489 23.2902C12.6289 23.5435 12.4756 23.4335 12.5889 22.9602L12.8889 21.6702C13.0022 21.2035 12.9522 20.7568 12.7389 20.3302ZM16.6889 16.3402C17.0689 15.6068 17.0389 14.8468 16.5989 14.0602C16.5195 13.9189 16.407 13.7991 16.271 13.711C16.135 13.6229 15.9797 13.5692 15.8183 13.5544C15.6569 13.5396 15.4944 13.5643 15.3447 13.6263C15.195 13.6883 15.0626 13.7857 14.9589 13.9102C12.2389 17.2002 20.9389 23.7602 22.2689 19.7802C22.3822 19.4468 22.3089 19.1602 22.0489 18.9202C21.1756 18.1268 20.3322 18.1235 19.5189 18.9102C19.2122 19.2102 18.8989 19.2135 18.5789 18.9202L16.8589 17.3102C16.5522 17.0302 16.4956 16.7068 16.6889 16.3402Z" fill="white"/>
<path d="M16.859 17.3105L18.579 18.9205C18.899 19.2138 19.2124 19.2105 19.519 18.9105C20.3324 18.1238 21.1757 18.1271 22.049 18.9205C22.309 19.1605 22.3824 19.4471 22.269 19.7805C20.939 23.7605 12.239 17.2005 14.959 13.9105C15.0627 13.786 15.1951 13.6886 15.3448 13.6266C15.4945 13.5646 15.6571 13.5399 15.8184 13.5547C15.9798 13.5695 16.1351 13.6232 16.2711 13.7113C16.4071 13.7994 16.5196 13.9192 16.599 14.0605C17.039 14.8471 17.069 15.6071 16.689 16.3405C16.4957 16.7071 16.5524 17.0305 16.859 17.3105Z" fill="#010100"/>
</svg>
